%TF.GenerationSoftware,KiCad,Pcbnew,9.0.1*%
%TF.CreationDate,2025-06-25T15:49:50+05:30*%
%TF.ProjectId,daq_idea,6461715f-6964-4656-912e-6b696361645f,rev?*%
%TF.SameCoordinates,Original*%
%TF.FileFunction,Soldermask,Bot*%
%TF.FilePolarity,Negative*%
%FSLAX46Y46*%
G04 Gerber Fmt 4.6, Leading zero omitted, Abs format (unit mm)*
G04 Created by KiCad (PCBNEW 9.0.1) date 2025-06-25 15:49:50*
%MOMM*%
%LPD*%
G01*
G04 APERTURE LIST*
%ADD10R,1.700000X1.700000*%
%ADD11C,1.700000*%
%ADD12C,2.000000*%
%ADD13C,1.600000*%
%ADD14O,1.600000X1.600000*%
%ADD15R,0.850000X0.850000*%
G04 APERTURE END LIST*
D10*
%TO.C,J3*%
X17380000Y-31330000D03*
D11*
X17380000Y-28790000D03*
%TD*%
D12*
%TO.C,TP2*%
X21090000Y-32270000D03*
%TD*%
D13*
%TO.C,R4*%
X36030000Y-34910000D03*
D14*
X43650000Y-34910000D03*
%TD*%
D15*
%TO.C,J5*%
X37240000Y-31050000D03*
%TD*%
D13*
%TO.C,C1*%
X46280000Y-25500000D03*
X46280000Y-23000000D03*
%TD*%
%TO.C,C2*%
X46220000Y-35330000D03*
X46220000Y-37830000D03*
%TD*%
D15*
%TO.C,J6*%
X46020000Y-32290000D03*
%TD*%
D12*
%TO.C,TP1*%
X21000000Y-28440000D03*
%TD*%
D10*
%TO.C,J7*%
X46595000Y-28900000D03*
D11*
X49135000Y-28900000D03*
%TD*%
D13*
%TO.C,R6*%
X36020000Y-37970000D03*
D14*
X43640000Y-37970000D03*
%TD*%
D12*
%TO.C,TP3*%
X49950000Y-33000000D03*
%TD*%
D13*
%TO.C,C3*%
X34480000Y-31730000D03*
X34480000Y-29230000D03*
%TD*%
D12*
%TO.C,TP4*%
X50010000Y-36860000D03*
%TD*%
D13*
%TO.C,R3*%
X35880000Y-26020000D03*
D14*
X43500000Y-26020000D03*
%TD*%
D13*
%TO.C,R1*%
X23960000Y-28460000D03*
D14*
X31580000Y-28460000D03*
%TD*%
D13*
%TO.C,R2*%
X24000000Y-32050000D03*
D14*
X31620000Y-32050000D03*
%TD*%
D10*
%TO.C,J1*%
X70010000Y-27070000D03*
D11*
X70010000Y-29610000D03*
X70010000Y-32150000D03*
X70010000Y-34690000D03*
X70010000Y-37230000D03*
%TD*%
D10*
%TO.C,J2*%
X57310000Y-37150000D03*
D11*
X57310000Y-34610000D03*
X57310000Y-32070000D03*
X57310000Y-29530000D03*
X57310000Y-26990000D03*
%TD*%
D10*
%TO.C,J4*%
X53560000Y-30975000D03*
D11*
X53560000Y-33515000D03*
%TD*%
D13*
%TO.C,R5*%
X35870000Y-22920000D03*
D14*
X43490000Y-22920000D03*
%TD*%
M02*
