M48
; DRILL file {KiCad 9.0.1} date 2025-06-25T15:50:30+0530
; FORMAT={-:-/ absolute / metric / decimal}
; #@! TF.CreationDate,2025-06-25T15:50:30+05:30
; #@! TF.GenerationSoftware,Kicad,Pcbnew,9.0.1
; #@! TF.FileFunction,Plated,1,2,PTH
FMAT,2
METRIC
; #@! TA.AperFunction,Plated,PTH,ComponentDrill
T1C0.500
; #@! TA.AperFunction,Plated,PTH,ComponentDrill
T2C0.800
; #@! TA.AperFunction,Plated,PTH,ComponentDrill
T3C1.000
%
G90
G05
T1
X37.24Y-31.05
X46.02Y-32.29
T2
X23.96Y-28.46
X24.0Y-32.05
X31.58Y-28.46
X31.62Y-32.05
X34.48Y-29.23
X34.48Y-31.73
X35.87Y-22.92
X35.88Y-26.02
X36.02Y-37.97
X36.03Y-34.91
X43.49Y-22.92
X43.5Y-26.02
X43.64Y-37.97
X43.65Y-34.91
X46.22Y-35.33
X46.22Y-37.83
X46.28Y-23.0
X46.28Y-25.5
T3
X17.38Y-28.79
X17.38Y-31.33
X21.0Y-28.44
X21.09Y-32.27
X46.595Y-28.9
X49.135Y-28.9
X49.95Y-33.0
X50.01Y-36.86
X53.56Y-30.975
X53.56Y-33.515
X57.31Y-26.99
X57.31Y-29.53
X57.31Y-32.07
X57.31Y-34.61
X57.31Y-37.15
X70.01Y-27.07
X70.01Y-29.61
X70.01Y-32.15
X70.01Y-34.69
X70.01Y-37.23
M30
