%TF.GenerationSoftware,KiCad,Pcbnew,9.0.1*%
%TF.CreationDate,2025-06-25T15:49:50+05:30*%
%TF.ProjectId,daq_idea,6461715f-6964-4656-912e-6b696361645f,rev?*%
%TF.SameCoordinates,Original*%
%TF.FileFunction,Copper,L1,Top*%
%TF.FilePolarity,Positive*%
%FSLAX46Y46*%
G04 Gerber Fmt 4.6, Leading zero omitted, Abs format (unit mm)*
G04 Created by KiCad (PCBNEW 9.0.1) date 2025-06-25 15:49:50*
%MOMM*%
%LPD*%
G01*
G04 APERTURE LIST*
G04 Aperture macros list*
%AMRoundRect*
0 Rectangle with rounded corners*
0 $1 Rounding radius*
0 $2 $3 $4 $5 $6 $7 $8 $9 X,Y pos of 4 corners*
0 Add a 4 corners polygon primitive as box body*
4,1,4,$2,$3,$4,$5,$6,$7,$8,$9,$2,$3,0*
0 Add four circle primitives for the rounded corners*
1,1,$1+$1,$2,$3*
1,1,$1+$1,$4,$5*
1,1,$1+$1,$6,$7*
1,1,$1+$1,$8,$9*
0 Add four rect primitives between the rounded corners*
20,1,$1+$1,$2,$3,$4,$5,0*
20,1,$1+$1,$4,$5,$6,$7,0*
20,1,$1+$1,$6,$7,$8,$9,0*
20,1,$1+$1,$8,$9,$2,$3,0*%
G04 Aperture macros list end*
%TA.AperFunction,SMDPad,CuDef*%
%ADD10RoundRect,0.100000X-0.712500X-0.100000X0.712500X-0.100000X0.712500X0.100000X-0.712500X0.100000X0*%
%TD*%
%TA.AperFunction,ComponentPad*%
%ADD11R,1.700000X1.700000*%
%TD*%
%TA.AperFunction,ComponentPad*%
%ADD12C,1.700000*%
%TD*%
%TA.AperFunction,ComponentPad*%
%ADD13C,2.000000*%
%TD*%
%TA.AperFunction,ComponentPad*%
%ADD14C,1.600000*%
%TD*%
%TA.AperFunction,ComponentPad*%
%ADD15O,1.600000X1.600000*%
%TD*%
%TA.AperFunction,ComponentPad*%
%ADD16R,0.850000X0.850000*%
%TD*%
%TA.AperFunction,SMDPad,CuDef*%
%ADD17RoundRect,0.035000X-0.700000X-0.105000X0.700000X-0.105000X0.700000X0.105000X-0.700000X0.105000X0*%
%TD*%
%TA.AperFunction,Conductor*%
%ADD18C,0.200000*%
%TD*%
G04 APERTURE END LIST*
D10*
%TO.P,U1,1,-*%
%TO.N,Net-(U1--)*%
X39447500Y-30585000D03*
%TO.P,U1,2,V_{OCM}*%
%TO.N,Net-(J7-Pin_1)*%
X39447500Y-31235000D03*
%TO.P,U1,3,+V_{S}*%
%TO.N,Net-(J5-Pin_1)*%
X39447500Y-31885000D03*
%TO.P,U1,4*%
%TO.N,Net-(J4-Pin_2)*%
X39447500Y-32535000D03*
%TO.P,U1,5*%
%TO.N,Net-(J4-Pin_1)*%
X43672500Y-32535000D03*
%TO.P,U1,6,-V_{S}*%
%TO.N,Net-(J6-Pin_1)*%
X43672500Y-31885000D03*
%TO.P,U1,7,V_{Mid}*%
%TO.N,Net-(J7-Pin_2)*%
X43672500Y-31235000D03*
%TO.P,U1,8,+*%
%TO.N,Net-(U1-+)*%
X43672500Y-30585000D03*
%TD*%
D11*
%TO.P,J3,1,Pin_1*%
%TO.N,Net-(J3-Pin_1)*%
X17380000Y-31330000D03*
D12*
%TO.P,J3,2,Pin_2*%
%TO.N,Net-(J3-Pin_2)*%
X17380000Y-28790000D03*
%TD*%
D13*
%TO.P,TP2,1,1*%
%TO.N,Net-(J3-Pin_1)*%
X21090000Y-32270000D03*
%TD*%
D14*
%TO.P,R4,1*%
%TO.N,Net-(C3-Pad1)*%
X36030000Y-34910000D03*
D15*
%TO.P,R4,2*%
%TO.N,Net-(U1--)*%
X43650000Y-34910000D03*
%TD*%
D16*
%TO.P,J5,1,Pin_1*%
%TO.N,Net-(J5-Pin_1)*%
X37240000Y-31050000D03*
%TD*%
D14*
%TO.P,C1,1*%
%TO.N,Net-(U1-+)*%
X46280000Y-25500000D03*
%TO.P,C1,2*%
%TO.N,Net-(J4-Pin_1)*%
X46280000Y-23000000D03*
%TD*%
%TO.P,C2,1*%
%TO.N,Net-(U1--)*%
X46220000Y-35330000D03*
%TO.P,C2,2*%
%TO.N,Net-(J4-Pin_2)*%
X46220000Y-37830000D03*
%TD*%
D16*
%TO.P,J6,1,Pin_1*%
%TO.N,Net-(J6-Pin_1)*%
X46020000Y-32290000D03*
%TD*%
D17*
%TO.P,U2,1,VREF*%
%TO.N,Net-(J2-Pin_5)*%
X61900000Y-31070000D03*
%TO.P,U2,2,AVDD*%
%TO.N,Net-(J2-Pin_4)*%
X61900000Y-31570000D03*
%TO.P,U2,3,AIN+*%
%TO.N,Net-(J2-Pin_3)*%
X61900000Y-32070000D03*
%TO.P,U2,4,AIN-*%
%TO.N,Net-(J2-Pin_2)*%
X61900000Y-32570000D03*
%TO.P,U2,5,GND*%
%TO.N,GND*%
X61900000Y-33070000D03*
%TO.P,U2,6,CNVST*%
%TO.N,Net-(J1-Pin_5)*%
X66200000Y-33070000D03*
%TO.P,U2,7,SDO*%
%TO.N,Net-(J1-Pin_4)*%
X66200000Y-32570000D03*
%TO.P,U2,8,SCLK*%
%TO.N,Net-(J1-Pin_3)*%
X66200000Y-32070000D03*
%TO.P,U2,9,SDI*%
%TO.N,Net-(J1-Pin_2)*%
X66200000Y-31570000D03*
%TO.P,U2,10,DV_IO*%
%TO.N,Net-(J1-Pin_1)*%
X66200000Y-31070000D03*
%TD*%
D13*
%TO.P,TP1,1,1*%
%TO.N,Net-(J3-Pin_2)*%
X21000000Y-28440000D03*
%TD*%
D11*
%TO.P,J7,1,Pin_1*%
%TO.N,Net-(J7-Pin_1)*%
X46595000Y-28900000D03*
D12*
%TO.P,J7,2,Pin_2*%
%TO.N,Net-(J7-Pin_2)*%
X49135000Y-28900000D03*
%TD*%
D14*
%TO.P,R6,1*%
%TO.N,Net-(C3-Pad1)*%
X36020000Y-37970000D03*
D15*
%TO.P,R6,2*%
%TO.N,Net-(J4-Pin_2)*%
X43640000Y-37970000D03*
%TD*%
D13*
%TO.P,TP3,1,1*%
%TO.N,Net-(J4-Pin_1)*%
X49950000Y-33000000D03*
%TD*%
D14*
%TO.P,C3,1*%
%TO.N,Net-(C3-Pad1)*%
X34480000Y-31730000D03*
%TO.P,C3,2*%
%TO.N,Net-(C3-Pad2)*%
X34480000Y-29230000D03*
%TD*%
D13*
%TO.P,TP4,1,1*%
%TO.N,Net-(J4-Pin_2)*%
X50010000Y-36860000D03*
%TD*%
D14*
%TO.P,R3,1*%
%TO.N,Net-(C3-Pad2)*%
X35880000Y-26020000D03*
D15*
%TO.P,R3,2*%
%TO.N,Net-(U1-+)*%
X43500000Y-26020000D03*
%TD*%
D14*
%TO.P,R1,1*%
%TO.N,Net-(J3-Pin_2)*%
X23960000Y-28460000D03*
D15*
%TO.P,R1,2*%
%TO.N,Net-(C3-Pad2)*%
X31580000Y-28460000D03*
%TD*%
D14*
%TO.P,R2,1*%
%TO.N,Net-(J3-Pin_1)*%
X24000000Y-32050000D03*
D15*
%TO.P,R2,2*%
%TO.N,Net-(C3-Pad1)*%
X31620000Y-32050000D03*
%TD*%
D11*
%TO.P,J1,1,Pin_1*%
%TO.N,Net-(J1-Pin_1)*%
X70010000Y-27070000D03*
D12*
%TO.P,J1,2,Pin_2*%
%TO.N,Net-(J1-Pin_2)*%
X70010000Y-29610000D03*
%TO.P,J1,3,Pin_3*%
%TO.N,Net-(J1-Pin_3)*%
X70010000Y-32150000D03*
%TO.P,J1,4,Pin_4*%
%TO.N,Net-(J1-Pin_4)*%
X70010000Y-34690000D03*
%TO.P,J1,5,Pin_5*%
%TO.N,Net-(J1-Pin_5)*%
X70010000Y-37230000D03*
%TD*%
D11*
%TO.P,J2,1,Pin_1*%
%TO.N,GND*%
X57310000Y-37150000D03*
D12*
%TO.P,J2,2,Pin_2*%
%TO.N,Net-(J2-Pin_2)*%
X57310000Y-34610000D03*
%TO.P,J2,3,Pin_3*%
%TO.N,Net-(J2-Pin_3)*%
X57310000Y-32070000D03*
%TO.P,J2,4,Pin_4*%
%TO.N,Net-(J2-Pin_4)*%
X57310000Y-29530000D03*
%TO.P,J2,5,Pin_5*%
%TO.N,Net-(J2-Pin_5)*%
X57310000Y-26990000D03*
%TD*%
D11*
%TO.P,J4,1,Pin_1*%
%TO.N,Net-(J4-Pin_1)*%
X53560000Y-30975000D03*
D12*
%TO.P,J4,2,Pin_2*%
%TO.N,Net-(J4-Pin_2)*%
X53560000Y-33515000D03*
%TD*%
D14*
%TO.P,R5,1*%
%TO.N,Net-(C3-Pad2)*%
X35870000Y-22920000D03*
D15*
%TO.P,R5,2*%
%TO.N,Net-(J4-Pin_1)*%
X43490000Y-22920000D03*
%TD*%
D18*
%TO.N,Net-(U1-+)*%
X47950000Y-27953000D02*
X47950000Y-29847000D01*
X43500000Y-26020000D02*
X45760000Y-26020000D01*
X43990000Y-25530000D02*
X43500000Y-26020000D01*
X47637000Y-27640000D02*
X47950000Y-27953000D01*
X47212000Y-30585000D02*
X43672500Y-30585000D01*
X45760000Y-26020000D02*
X46280000Y-25500000D01*
X43700000Y-27640000D02*
X47637000Y-27640000D01*
X47950000Y-29847000D02*
X47212000Y-30585000D01*
X43500000Y-26020000D02*
X43500000Y-27440000D01*
X43500000Y-27440000D02*
X43700000Y-27640000D01*
%TO.N,Net-(J4-Pin_1)*%
X51540000Y-25370000D02*
X51540000Y-31640000D01*
X51200000Y-33000000D02*
X51540000Y-32660000D01*
X46200000Y-22920000D02*
X46280000Y-23000000D01*
X49950000Y-33000000D02*
X51200000Y-33000000D01*
X50990000Y-24820000D02*
X51540000Y-25370000D01*
X48280000Y-33500000D02*
X48780000Y-33000000D01*
X48260000Y-24830000D02*
X48270000Y-24820000D01*
X43672500Y-32535000D02*
X44637500Y-33500000D01*
X44637500Y-33500000D02*
X48280000Y-33500000D01*
X46280000Y-23000000D02*
X46330000Y-23050000D01*
X52115000Y-30975000D02*
X53560000Y-30975000D01*
X47440000Y-24830000D02*
X48260000Y-24830000D01*
X47330000Y-24720000D02*
X47440000Y-24830000D01*
X48780000Y-33000000D02*
X49950000Y-33000000D01*
X46330000Y-23050000D02*
X47330000Y-23050000D01*
X47330000Y-23050000D02*
X47330000Y-24720000D01*
X51540000Y-31550000D02*
X52115000Y-30975000D01*
X51540000Y-32660000D02*
X51540000Y-31640000D01*
X43490000Y-22920000D02*
X46200000Y-22920000D01*
X43500000Y-22970000D02*
X43380000Y-22850000D01*
X51540000Y-31640000D02*
X51540000Y-31550000D01*
X48270000Y-24820000D02*
X50990000Y-24820000D01*
%TO.N,Net-(U1--)*%
X36000000Y-30110000D02*
X36420000Y-29690000D01*
X39447500Y-30067500D02*
X39447500Y-30585000D01*
X44070000Y-35330000D02*
X43650000Y-34910000D01*
X46220000Y-35330000D02*
X44070000Y-35330000D01*
X43650000Y-33700000D02*
X43401000Y-33451000D01*
X43401000Y-33451000D02*
X36321000Y-33451000D01*
X39070000Y-29690000D02*
X39447500Y-30067500D01*
X36420000Y-29690000D02*
X39070000Y-29690000D01*
X36000000Y-33130000D02*
X36000000Y-30110000D01*
X36321000Y-33451000D02*
X36000000Y-33130000D01*
X43650000Y-34910000D02*
X43650000Y-33700000D01*
%TO.N,Net-(J4-Pin_2)*%
X50010000Y-35480000D02*
X50010000Y-36860000D01*
X48431000Y-33901000D02*
X50010000Y-35480000D01*
X39447500Y-32535000D02*
X39962500Y-33050000D01*
X50010000Y-36860000D02*
X50990000Y-36860000D01*
X44471400Y-33901000D02*
X48431000Y-33901000D01*
X39962500Y-33050000D02*
X43620400Y-33050000D01*
X46220000Y-37830000D02*
X49040000Y-37830000D01*
X51420000Y-34010000D02*
X51915000Y-33515000D01*
X51915000Y-33515000D02*
X53560000Y-33515000D01*
X50990000Y-36860000D02*
X51010000Y-36880000D01*
X46220000Y-37830000D02*
X43780000Y-37830000D01*
X49040000Y-37830000D02*
X50010000Y-36860000D01*
X51420000Y-36470000D02*
X51420000Y-34010000D01*
X43620400Y-33050000D02*
X44471400Y-33901000D01*
X43780000Y-37830000D02*
X43640000Y-37970000D01*
X51010000Y-36880000D02*
X51420000Y-36470000D01*
%TO.N,Net-(C3-Pad2)*%
X35880000Y-26020000D02*
X35880000Y-22930000D01*
X34480000Y-29230000D02*
X34480000Y-29120000D01*
X34360000Y-29230000D02*
X34480000Y-29230000D01*
X33710000Y-28460000D02*
X34480000Y-29230000D01*
X34480000Y-29120000D02*
X35880000Y-27720000D01*
X35880000Y-27720000D02*
X35880000Y-26020000D01*
X31580000Y-28460000D02*
X33710000Y-28460000D01*
X35880000Y-22930000D02*
X35870000Y-22920000D01*
%TO.N,Net-(C3-Pad1)*%
X34480000Y-33360000D02*
X36030000Y-34910000D01*
X34010000Y-31730000D02*
X34480000Y-31730000D01*
X31620000Y-32050000D02*
X34160000Y-32050000D01*
X34480000Y-31730000D02*
X34480000Y-33360000D01*
X36030000Y-37960000D02*
X36020000Y-37970000D01*
X36030000Y-34910000D02*
X36030000Y-37960000D01*
X34160000Y-32050000D02*
X34480000Y-31730000D01*
%TO.N,Net-(J1-Pin_1)*%
X68360000Y-27070000D02*
X70010000Y-27070000D01*
X67680000Y-31070000D02*
X67920000Y-30830000D01*
X67920000Y-30830000D02*
X67920000Y-27510000D01*
X67920000Y-27510000D02*
X68360000Y-27070000D01*
X70010000Y-27260000D02*
X70010000Y-27070000D01*
X66200000Y-31070000D02*
X67680000Y-31070000D01*
%TO.N,Net-(J1-Pin_3)*%
X70010000Y-32150000D02*
X69930000Y-32070000D01*
X69930000Y-32070000D02*
X66200000Y-32070000D01*
%TO.N,Net-(J1-Pin_4)*%
X67830000Y-32570000D02*
X68290000Y-33030000D01*
X68290000Y-33030000D02*
X68290000Y-34540000D01*
X68290000Y-34540000D02*
X68440000Y-34690000D01*
X68440000Y-34690000D02*
X70010000Y-34690000D01*
X66200000Y-32570000D02*
X67830000Y-32570000D01*
%TO.N,Net-(J1-Pin_5)*%
X68080000Y-37230000D02*
X70010000Y-37230000D01*
X67889000Y-37039000D02*
X68080000Y-37230000D01*
X67889000Y-33200000D02*
X67889000Y-37039000D01*
X67759000Y-33070000D02*
X67889000Y-33200000D01*
X70010000Y-36880000D02*
X70010000Y-37230000D01*
X66200000Y-33070000D02*
X67759000Y-33070000D01*
%TO.N,Net-(J1-Pin_2)*%
X68501000Y-29610000D02*
X68321000Y-29790000D01*
X67747100Y-31570000D02*
X66200000Y-31570000D01*
X68321000Y-30996100D02*
X67747100Y-31570000D01*
X68321000Y-29790000D02*
X68321000Y-30996100D01*
X70010000Y-29610000D02*
X68501000Y-29610000D01*
%TO.N,Net-(J2-Pin_2)*%
X59080000Y-34610000D02*
X59370000Y-34320000D01*
X57310000Y-34610000D02*
X59080000Y-34610000D01*
X59370000Y-34320000D02*
X59370000Y-32700000D01*
X59370000Y-32700000D02*
X59500000Y-32570000D01*
X59500000Y-32570000D02*
X61900000Y-32570000D01*
%TO.N,Net-(J2-Pin_3)*%
X57310000Y-32070000D02*
X61900000Y-32070000D01*
%TO.N,Net-(J2-Pin_4)*%
X59169000Y-29809000D02*
X59169000Y-31239000D01*
X58890000Y-29530000D02*
X59169000Y-29809000D01*
X57310000Y-29530000D02*
X58890000Y-29530000D01*
X59500000Y-31570000D02*
X61900000Y-31570000D01*
X59169000Y-31239000D02*
X59500000Y-31570000D01*
%TO.N,Net-(J2-Pin_5)*%
X59090000Y-26990000D02*
X59570000Y-27470000D01*
X57310000Y-26990000D02*
X59090000Y-26990000D01*
X59660000Y-31070000D02*
X61900000Y-31070000D01*
X59570000Y-30980000D02*
X59660000Y-31070000D01*
X61390000Y-31070000D02*
X61900000Y-31070000D01*
X59570000Y-27470000D02*
X59570000Y-30980000D01*
%TO.N,Net-(J3-Pin_2)*%
X21000000Y-28440000D02*
X21060000Y-28440000D01*
X21080000Y-28460000D02*
X23960000Y-28460000D01*
X21060000Y-28440000D02*
X21080000Y-28460000D01*
X17380000Y-28790000D02*
X20650000Y-28790000D01*
X20650000Y-28790000D02*
X21000000Y-28440000D01*
%TO.N,Net-(J3-Pin_1)*%
X20150000Y-31330000D02*
X21090000Y-32270000D01*
X17380000Y-31330000D02*
X20150000Y-31330000D01*
X21370000Y-32050000D02*
X24000000Y-32050000D01*
X21090000Y-32270000D02*
X21150000Y-32270000D01*
X21150000Y-32270000D02*
X21370000Y-32050000D01*
%TO.N,Net-(J5-Pin_1)*%
X37740000Y-31050000D02*
X37970000Y-31280000D01*
X37970000Y-31280000D02*
X37970000Y-31600000D01*
X37970000Y-31600000D02*
X38255000Y-31885000D01*
X37240000Y-31050000D02*
X37740000Y-31050000D01*
X38255000Y-31885000D02*
X39447500Y-31885000D01*
%TO.N,Net-(J6-Pin_1)*%
X45615000Y-31885000D02*
X43672500Y-31885000D01*
X46020000Y-32290000D02*
X45615000Y-31885000D01*
%TO.N,Net-(J7-Pin_1)*%
X41080000Y-28900000D02*
X46595000Y-28900000D01*
X39447500Y-31235000D02*
X40455000Y-31235000D01*
X40455000Y-31235000D02*
X40780000Y-30910000D01*
X40780000Y-29200000D02*
X41080000Y-28900000D01*
X40780000Y-30910000D02*
X40780000Y-29200000D01*
%TO.N,Net-(J7-Pin_2)*%
X43672500Y-31235000D02*
X48785000Y-31235000D01*
X49135000Y-30885000D02*
X49135000Y-28900000D01*
X48785000Y-31235000D02*
X49135000Y-30885000D01*
%TO.N,GND*%
X57310000Y-37150000D02*
X59340000Y-37150000D01*
X59771000Y-36719000D02*
X59771000Y-33969000D01*
X61900000Y-33540000D02*
X61900000Y-33070000D01*
X61730000Y-33750000D02*
X61920000Y-33560000D01*
X59771000Y-33969000D02*
X59990000Y-33750000D01*
X59990000Y-33750000D02*
X61730000Y-33750000D01*
X59340000Y-37150000D02*
X59771000Y-36719000D01*
X61920000Y-33560000D02*
X61900000Y-33540000D01*
%TD*%
%TA.AperFunction,Conductor*%
%TO.N,GND*%
G36*
X71527539Y-20160185D02*
G01*
X71573294Y-20212989D01*
X71584500Y-20264500D01*
X71584500Y-26042980D01*
X71564815Y-26110019D01*
X71512011Y-26155774D01*
X71442853Y-26165718D01*
X71379297Y-26136693D01*
X71344318Y-26086313D01*
X71303797Y-25977671D01*
X71303793Y-25977664D01*
X71217547Y-25862455D01*
X71217544Y-25862452D01*
X71102335Y-25776206D01*
X71102328Y-25776202D01*
X70967482Y-25725908D01*
X70967483Y-25725908D01*
X70907883Y-25719501D01*
X70907881Y-25719500D01*
X70907873Y-25719500D01*
X70907864Y-25719500D01*
X69112129Y-25719500D01*
X69112123Y-25719501D01*
X69052516Y-25725908D01*
X68917671Y-25776202D01*
X68917664Y-25776206D01*
X68802455Y-25862452D01*
X68802452Y-25862455D01*
X68716206Y-25977664D01*
X68716202Y-25977671D01*
X68665908Y-26112517D01*
X68659501Y-26172116D01*
X68659500Y-26172135D01*
X68659500Y-26345500D01*
X68656949Y-26354185D01*
X68658238Y-26363147D01*
X68647259Y-26387187D01*
X68639815Y-26412539D01*
X68632974Y-26418466D01*
X68629213Y-26426703D01*
X68606978Y-26440992D01*
X68587011Y-26458294D01*
X68576496Y-26460581D01*
X68570435Y-26464477D01*
X68535500Y-26469500D01*
X68446669Y-26469500D01*
X68446653Y-26469499D01*
X68439057Y-26469499D01*
X68280943Y-26469499D01*
X68197078Y-26491971D01*
X68128210Y-26510424D01*
X68128209Y-26510425D01*
X68078096Y-26539359D01*
X68078095Y-26539360D01*
X68034689Y-26564420D01*
X67991285Y-26589479D01*
X67991282Y-26589481D01*
X67439479Y-27141284D01*
X67428974Y-27159481D01*
X67410475Y-27191523D01*
X67360423Y-27278215D01*
X67319499Y-27430943D01*
X67319499Y-27430945D01*
X67319499Y-27599046D01*
X67319500Y-27599059D01*
X67319500Y-30345500D01*
X67316949Y-30354185D01*
X67318238Y-30363147D01*
X67307259Y-30387187D01*
X67299815Y-30412539D01*
X67292974Y-30418466D01*
X67289213Y-30426703D01*
X67266978Y-30440992D01*
X67247011Y-30458294D01*
X67236496Y-30460581D01*
X67230435Y-30464477D01*
X67195500Y-30469500D01*
X67126774Y-30469500D01*
X67081285Y-30460855D01*
X67027979Y-30439834D01*
X67027978Y-30439833D01*
X66941927Y-30429500D01*
X65458080Y-30429500D01*
X65372022Y-30439833D01*
X65235077Y-30493837D01*
X65235075Y-30493838D01*
X65117783Y-30582783D01*
X65028838Y-30700075D01*
X64974833Y-30837022D01*
X64964500Y-30923072D01*
X64964500Y-31216920D01*
X64975102Y-31305217D01*
X64975102Y-31334782D01*
X64969457Y-31381795D01*
X64964500Y-31423073D01*
X64964500Y-31423074D01*
X64964500Y-31423078D01*
X64964500Y-31716920D01*
X64975102Y-31805217D01*
X64975102Y-31834782D01*
X64970527Y-31872883D01*
X64964500Y-31923073D01*
X64964500Y-31923074D01*
X64964500Y-31923078D01*
X64964500Y-32216920D01*
X64975102Y-32305217D01*
X64975102Y-32334782D01*
X64969881Y-32378267D01*
X64964500Y-32423073D01*
X64964500Y-32423074D01*
X64964500Y-32423078D01*
X64964500Y-32716920D01*
X64975102Y-32805217D01*
X64975102Y-32834782D01*
X64971692Y-32863181D01*
X64964500Y-32923073D01*
X64964500Y-32923077D01*
X64964500Y-32923078D01*
X64964500Y-33216919D01*
X64974833Y-33302977D01*
X65028837Y-33439922D01*
X65028838Y-33439924D01*
X65117783Y-33557216D01*
X65202274Y-33621287D01*
X65235078Y-33646163D01*
X65372021Y-33700166D01*
X65458073Y-33710500D01*
X66941926Y-33710499D01*
X67027979Y-33700166D01*
X67081285Y-33679145D01*
X67088268Y-33677817D01*
X67091839Y-33675523D01*
X67126774Y-33670500D01*
X67164500Y-33670500D01*
X67231539Y-33690185D01*
X67277294Y-33742989D01*
X67288500Y-33794500D01*
X67288500Y-36952330D01*
X67288499Y-36952348D01*
X67288499Y-37118054D01*
X67288498Y-37118054D01*
X67326789Y-37260956D01*
X67329423Y-37270785D01*
X67345728Y-37299026D01*
X67351518Y-37309053D01*
X67351519Y-37309057D01*
X67408475Y-37407709D01*
X67408481Y-37407717D01*
X67537720Y-37536956D01*
X67537725Y-37536960D01*
X67711284Y-37710520D01*
X67807533Y-37766089D01*
X67848211Y-37789575D01*
X67848212Y-37789575D01*
X67848215Y-37789577D01*
X68000943Y-37830501D01*
X68000946Y-37830501D01*
X68166654Y-37830501D01*
X68166670Y-37830500D01*
X68724281Y-37830500D01*
X68791320Y-37850185D01*
X68834765Y-37898205D01*
X68854947Y-37937814D01*
X68854948Y-37937815D01*
X68979890Y-38109786D01*
X69130213Y-38260109D01*
X69302179Y-38385048D01*
X69302181Y-38385049D01*
X69302184Y-38385051D01*
X69491588Y-38481557D01*
X69693757Y-38547246D01*
X69903713Y-38580500D01*
X69903714Y-38580500D01*
X70116286Y-38580500D01*
X70116287Y-38580500D01*
X70326243Y-38547246D01*
X70528412Y-38481557D01*
X70717816Y-38385051D01*
X70739789Y-38369086D01*
X70889786Y-38260109D01*
X70889788Y-38260106D01*
X70889792Y-38260104D01*
X71040104Y-38109792D01*
X71040106Y-38109788D01*
X71040109Y-38109786D01*
X71165048Y-37937820D01*
X71165047Y-37937820D01*
X71165051Y-37937816D01*
X71261557Y-37748412D01*
X71327246Y-37546243D01*
X71338027Y-37478175D01*
X71367956Y-37415040D01*
X71427268Y-37378109D01*
X71497130Y-37379107D01*
X71555363Y-37417717D01*
X71583477Y-37481680D01*
X71584500Y-37497573D01*
X71584500Y-40945500D01*
X71564815Y-41012539D01*
X71512011Y-41058294D01*
X71460500Y-41069500D01*
X15949500Y-41069500D01*
X15882461Y-41049815D01*
X15836706Y-40997011D01*
X15825500Y-40945500D01*
X15825500Y-32410642D01*
X15845185Y-32343603D01*
X15897989Y-32297848D01*
X15967147Y-32287904D01*
X16030703Y-32316929D01*
X16065682Y-32367309D01*
X16086202Y-32422328D01*
X16086206Y-32422335D01*
X16172452Y-32537544D01*
X16172455Y-32537547D01*
X16287664Y-32623793D01*
X16287671Y-32623797D01*
X16422517Y-32674091D01*
X16422516Y-32674091D01*
X16425028Y-32674361D01*
X16482127Y-32680500D01*
X18277872Y-32680499D01*
X18337483Y-32674091D01*
X18472331Y-32623796D01*
X18587546Y-32537546D01*
X18673796Y-32422331D01*
X18724091Y-32287483D01*
X18730500Y-32227873D01*
X18730500Y-32054500D01*
X18750185Y-31987461D01*
X18802989Y-31941706D01*
X18854500Y-31930500D01*
X19479382Y-31930500D01*
X19546421Y-31950185D01*
X19592176Y-32002989D01*
X19602120Y-32072147D01*
X19601855Y-32073898D01*
X19589500Y-32151902D01*
X19589500Y-32388097D01*
X19626446Y-32621368D01*
X19699433Y-32845996D01*
X19767241Y-32979075D01*
X19806657Y-33056433D01*
X19945483Y-33247510D01*
X20112490Y-33414517D01*
X20303567Y-33553343D01*
X20379014Y-33591785D01*
X20514003Y-33660566D01*
X20514005Y-33660566D01*
X20514008Y-33660568D01*
X20634367Y-33699675D01*
X20738631Y-33733553D01*
X20971903Y-33770500D01*
X20971908Y-33770500D01*
X21208097Y-33770500D01*
X21441368Y-33733553D01*
X21451663Y-33730208D01*
X21665992Y-33660568D01*
X21876433Y-33553343D01*
X22067510Y-33414517D01*
X22234517Y-33247510D01*
X22373343Y-33056433D01*
X22480568Y-32845992D01*
X22480569Y-32845989D01*
X22516248Y-32736182D01*
X22530198Y-32715780D01*
X22540466Y-32693297D01*
X22549574Y-32687443D01*
X22555685Y-32678507D01*
X22578450Y-32668885D01*
X22599244Y-32655523D01*
X22615653Y-32653163D01*
X22620044Y-32651308D01*
X22634179Y-32650500D01*
X22770398Y-32650500D01*
X22837437Y-32670185D01*
X22880883Y-32718205D01*
X22887715Y-32731614D01*
X23008028Y-32897213D01*
X23152786Y-33041971D01*
X23296197Y-33146163D01*
X23318390Y-33162287D01*
X23425611Y-33216919D01*
X23500776Y-33255218D01*
X23500778Y-33255218D01*
X23500781Y-33255220D01*
X23586242Y-33282988D01*
X23695465Y-33318477D01*
X23796557Y-33334488D01*
X23897648Y-33350500D01*
X23897649Y-33350500D01*
X24102351Y-33350500D01*
X24102352Y-33350500D01*
X24304534Y-33318477D01*
X24499219Y-33255220D01*
X24681610Y-33162287D01*
X24781240Y-33089902D01*
X24847213Y-33041971D01*
X24847215Y-33041968D01*
X24847219Y-33041966D01*
X24991966Y-32897219D01*
X24991968Y-32897215D01*
X24991971Y-32897213D01*
X25077601Y-32779351D01*
X25112287Y-32731610D01*
X25205220Y-32549219D01*
X25268477Y-32354534D01*
X25300500Y-32152352D01*
X25300500Y-31947648D01*
X25288657Y-31872873D01*
X25268477Y-31745465D01*
X25223633Y-31607450D01*
X25205220Y-31550781D01*
X25205218Y-31550778D01*
X25205218Y-31550776D01*
X25160662Y-31463331D01*
X25112287Y-31368390D01*
X25087870Y-31334782D01*
X24991971Y-31202786D01*
X24847213Y-31058028D01*
X24681613Y-30937715D01*
X24681612Y-30937714D01*
X24681610Y-30937713D01*
X24624653Y-30908691D01*
X24499223Y-30844781D01*
X24304534Y-30781522D01*
X24129995Y-30753878D01*
X24102352Y-30749500D01*
X23897648Y-30749500D01*
X23873329Y-30753351D01*
X23695465Y-30781522D01*
X23500776Y-30844781D01*
X23318386Y-30937715D01*
X23152786Y-31058028D01*
X23008028Y-31202786D01*
X22887715Y-31368385D01*
X22880883Y-31381795D01*
X22832909Y-31432591D01*
X22770398Y-31449500D01*
X22411773Y-31449500D01*
X22344734Y-31429815D01*
X22311455Y-31398386D01*
X22299401Y-31381795D01*
X22234517Y-31292490D01*
X22067510Y-31125483D01*
X21876433Y-30986657D01*
X21832074Y-30964055D01*
X21665996Y-30879433D01*
X21441368Y-30806446D01*
X21208097Y-30769500D01*
X21208092Y-30769500D01*
X20971908Y-30769500D01*
X20971903Y-30769500D01*
X20738630Y-30806447D01*
X20738627Y-30806447D01*
X20602722Y-30850606D01*
X20568948Y-30851570D01*
X20535171Y-30853180D01*
X20533668Y-30852578D01*
X20532881Y-30852601D01*
X20502405Y-30840063D01*
X20497136Y-30837021D01*
X20401069Y-30781557D01*
X20381785Y-30770423D01*
X20229057Y-30729499D01*
X20070943Y-30729499D01*
X20063347Y-30729499D01*
X20063331Y-30729500D01*
X18854499Y-30729500D01*
X18787460Y-30709815D01*
X18741705Y-30657011D01*
X18730499Y-30605500D01*
X18730499Y-30432129D01*
X18730498Y-30432123D01*
X18730216Y-30429501D01*
X18724091Y-30372517D01*
X18720596Y-30363147D01*
X18673797Y-30237671D01*
X18673793Y-30237664D01*
X18587547Y-30122455D01*
X18587544Y-30122452D01*
X18472335Y-30036206D01*
X18472328Y-30036202D01*
X18340917Y-29987189D01*
X18284983Y-29945318D01*
X18260566Y-29879853D01*
X18275418Y-29811580D01*
X18296563Y-29783332D01*
X18410104Y-29669792D01*
X18535051Y-29497816D01*
X18535349Y-29497230D01*
X18555235Y-29458205D01*
X18603209Y-29407409D01*
X18665719Y-29390500D01*
X19777111Y-29390500D01*
X19844150Y-29410185D01*
X19864792Y-29426819D01*
X20022490Y-29584517D01*
X20213567Y-29723343D01*
X20300136Y-29767452D01*
X20424003Y-29830566D01*
X20424005Y-29830566D01*
X20424008Y-29830568D01*
X20519761Y-29861680D01*
X20648631Y-29903553D01*
X20881903Y-29940500D01*
X20881908Y-29940500D01*
X21118097Y-29940500D01*
X21351368Y-29903553D01*
X21362448Y-29899953D01*
X21575992Y-29830568D01*
X21786433Y-29723343D01*
X21977510Y-29584517D01*
X22144517Y-29417510D01*
X22283343Y-29226433D01*
X22321808Y-29150942D01*
X22333393Y-29128205D01*
X22381368Y-29077409D01*
X22443878Y-29060500D01*
X22730398Y-29060500D01*
X22797437Y-29080185D01*
X22840882Y-29128204D01*
X22843320Y-29132989D01*
X22847715Y-29141614D01*
X22968028Y-29307213D01*
X23112786Y-29451971D01*
X23267749Y-29564556D01*
X23278390Y-29572287D01*
X23380864Y-29624500D01*
X23460776Y-29665218D01*
X23460778Y-29665218D01*
X23460781Y-29665220D01*
X23506411Y-29680046D01*
X23655465Y-29728477D01*
X23756557Y-29744488D01*
X23857648Y-29760500D01*
X23857649Y-29760500D01*
X24062351Y-29760500D01*
X24062352Y-29760500D01*
X24264534Y-29728477D01*
X24459219Y-29665220D01*
X24641610Y-29572287D01*
X24744114Y-29497814D01*
X24807213Y-29451971D01*
X24807215Y-29451968D01*
X24807219Y-29451966D01*
X24951966Y-29307219D01*
X24951968Y-29307215D01*
X24951971Y-29307213D01*
X25019867Y-29213760D01*
X25072287Y-29141610D01*
X25165220Y-28959219D01*
X25228477Y-28764534D01*
X25260500Y-28562352D01*
X25260500Y-28357648D01*
X30279500Y-28357648D01*
X30279500Y-28562351D01*
X30311522Y-28764534D01*
X30374781Y-28959223D01*
X30426385Y-29060500D01*
X30463320Y-29132989D01*
X30467715Y-29141613D01*
X30588028Y-29307213D01*
X30732786Y-29451971D01*
X30887749Y-29564556D01*
X30898390Y-29572287D01*
X31000864Y-29624500D01*
X31080776Y-29665218D01*
X31080778Y-29665218D01*
X31080781Y-29665220D01*
X31126411Y-29680046D01*
X31275465Y-29728477D01*
X31376557Y-29744488D01*
X31477648Y-29760500D01*
X31477649Y-29760500D01*
X31682351Y-29760500D01*
X31682352Y-29760500D01*
X31884534Y-29728477D01*
X32079219Y-29665220D01*
X32261610Y-29572287D01*
X32364114Y-29497814D01*
X32427213Y-29451971D01*
X32427215Y-29451968D01*
X32427219Y-29451966D01*
X32571966Y-29307219D01*
X32571968Y-29307215D01*
X32571971Y-29307213D01*
X32679686Y-29158954D01*
X32692287Y-29141610D01*
X32699117Y-29128204D01*
X32709566Y-29117140D01*
X32715889Y-29103297D01*
X32733068Y-29092256D01*
X32747091Y-29077409D01*
X32762772Y-29073167D01*
X32774667Y-29065523D01*
X32809602Y-29060500D01*
X33055500Y-29060500D01*
X33122539Y-29080185D01*
X33168294Y-29132989D01*
X33179500Y-29184500D01*
X33179500Y-29332351D01*
X33211522Y-29534534D01*
X33274781Y-29729223D01*
X33311462Y-29801212D01*
X33361775Y-29899957D01*
X33367715Y-29911613D01*
X33488028Y-30077213D01*
X33632786Y-30221971D01*
X33798388Y-30342286D01*
X33851828Y-30369516D01*
X33902623Y-30417490D01*
X33919418Y-30485312D01*
X33896880Y-30551446D01*
X33851828Y-30590484D01*
X33798388Y-30617713D01*
X33632786Y-30738028D01*
X33488028Y-30882786D01*
X33367715Y-31048386D01*
X33274781Y-31230778D01*
X33274780Y-31230780D01*
X33274780Y-31230781D01*
X33232087Y-31362179D01*
X33231554Y-31363818D01*
X33192117Y-31421494D01*
X33127758Y-31448692D01*
X33113623Y-31449500D01*
X32849602Y-31449500D01*
X32782563Y-31429815D01*
X32739117Y-31381795D01*
X32732284Y-31368385D01*
X32611971Y-31202786D01*
X32467213Y-31058028D01*
X32301613Y-30937715D01*
X32301612Y-30937714D01*
X32301610Y-30937713D01*
X32244653Y-30908691D01*
X32119223Y-30844781D01*
X31924534Y-30781522D01*
X31749995Y-30753878D01*
X31722352Y-30749500D01*
X31517648Y-30749500D01*
X31493329Y-30753351D01*
X31315465Y-30781522D01*
X31120776Y-30844781D01*
X30938386Y-30937715D01*
X30772786Y-31058028D01*
X30628028Y-31202786D01*
X30507715Y-31368386D01*
X30414781Y-31550776D01*
X30351522Y-31745465D01*
X30323391Y-31923080D01*
X30319500Y-31947648D01*
X30319500Y-32152352D01*
X30321115Y-32162550D01*
X30351522Y-32354534D01*
X30414781Y-32549223D01*
X30458596Y-32635213D01*
X30505436Y-32727142D01*
X30507715Y-32731613D01*
X30628028Y-32897213D01*
X30772786Y-33041971D01*
X30916197Y-33146163D01*
X30938390Y-33162287D01*
X31045611Y-33216919D01*
X31120776Y-33255218D01*
X31120778Y-33255218D01*
X31120781Y-33255220D01*
X31206242Y-33282988D01*
X31315465Y-33318477D01*
X31416557Y-33334488D01*
X31517648Y-33350500D01*
X31517649Y-33350500D01*
X31722351Y-33350500D01*
X31722352Y-33350500D01*
X31924534Y-33318477D01*
X32119219Y-33255220D01*
X32301610Y-33162287D01*
X32401240Y-33089902D01*
X32467213Y-33041971D01*
X32467215Y-33041968D01*
X32467219Y-33041966D01*
X32611966Y-32897219D01*
X32611968Y-32897215D01*
X32611971Y-32897213D01*
X32732284Y-32731614D01*
X32732285Y-32731613D01*
X32732287Y-32731610D01*
X32739117Y-32718204D01*
X32787091Y-32667409D01*
X32849602Y-32650500D01*
X33509953Y-32650500D01*
X33576992Y-32670185D01*
X33597634Y-32686819D01*
X33632781Y-32721966D01*
X33798390Y-32842287D01*
X33811793Y-32849116D01*
X33862589Y-32897088D01*
X33879500Y-32959601D01*
X33879500Y-33273330D01*
X33879499Y-33273348D01*
X33879499Y-33439054D01*
X33879498Y-33439054D01*
X33920423Y-33591786D01*
X33920424Y-33591787D01*
X33942775Y-33630500D01*
X33999480Y-33728716D01*
X33999482Y-33728718D01*
X34118349Y-33847585D01*
X34118355Y-33847590D01*
X34735922Y-34465157D01*
X34769407Y-34526480D01*
X34766173Y-34591155D01*
X34761522Y-34605468D01*
X34729500Y-34807648D01*
X34729500Y-35012351D01*
X34761522Y-35214534D01*
X34824781Y-35409223D01*
X34917715Y-35591613D01*
X35038028Y-35757213D01*
X35038034Y-35757219D01*
X35182781Y-35901966D01*
X35348390Y-36022287D01*
X35361793Y-36029116D01*
X35412589Y-36077088D01*
X35429500Y-36139601D01*
X35429500Y-36735302D01*
X35409815Y-36802341D01*
X35361797Y-36845786D01*
X35338386Y-36857714D01*
X35172786Y-36978028D01*
X35028028Y-37122786D01*
X34907715Y-37288386D01*
X34814781Y-37470776D01*
X34751522Y-37665465D01*
X34719500Y-37867648D01*
X34719500Y-38072351D01*
X34751522Y-38274534D01*
X34814781Y-38469223D01*
X34907715Y-38651613D01*
X35028028Y-38817213D01*
X35172786Y-38961971D01*
X35273607Y-39035220D01*
X35338390Y-39082287D01*
X35454607Y-39141503D01*
X35520776Y-39175218D01*
X35520778Y-39175218D01*
X35520781Y-39175220D01*
X35625137Y-39209127D01*
X35715465Y-39238477D01*
X35816557Y-39254488D01*
X35917648Y-39270500D01*
X35917649Y-39270500D01*
X36122351Y-39270500D01*
X36122352Y-39270500D01*
X36324534Y-39238477D01*
X36519219Y-39175220D01*
X36701610Y-39082287D01*
X36794590Y-39014732D01*
X36867213Y-38961971D01*
X36867215Y-38961968D01*
X36867219Y-38961966D01*
X37011966Y-38817219D01*
X37011968Y-38817215D01*
X37011971Y-38817213D01*
X37113685Y-38677213D01*
X37132287Y-38651610D01*
X37225220Y-38469219D01*
X37288477Y-38274534D01*
X37320500Y-38072352D01*
X37320500Y-37867648D01*
X37295613Y-37710520D01*
X37288477Y-37665465D01*
X37246723Y-37536961D01*
X37225220Y-37470781D01*
X37225218Y-37470778D01*
X37225218Y-37470776D01*
X37189155Y-37400000D01*
X37132287Y-37288390D01*
X37119487Y-37270772D01*
X37011971Y-37122786D01*
X36867213Y-36978028D01*
X36701613Y-36857714D01*
X36698203Y-36855977D01*
X36647408Y-36808001D01*
X36630500Y-36745493D01*
X36630500Y-36139601D01*
X36650185Y-36072562D01*
X36698206Y-36029116D01*
X36711610Y-36022287D01*
X36877219Y-35901966D01*
X37021966Y-35757219D01*
X37021968Y-35757215D01*
X37021971Y-35757213D01*
X37074732Y-35684590D01*
X37142287Y-35591610D01*
X37235220Y-35409219D01*
X37298477Y-35214534D01*
X37330500Y-35012352D01*
X37330500Y-34807648D01*
X37316030Y-34716287D01*
X37298477Y-34605465D01*
X37252888Y-34465157D01*
X37235220Y-34410781D01*
X37235218Y-34410778D01*
X37235218Y-34410776D01*
X37144022Y-34231795D01*
X37131126Y-34163126D01*
X37157402Y-34098385D01*
X37214509Y-34058128D01*
X37254507Y-34051500D01*
X42425493Y-34051500D01*
X42492532Y-34071185D01*
X42538287Y-34123989D01*
X42548231Y-34193147D01*
X42535978Y-34231795D01*
X42444781Y-34410776D01*
X42381522Y-34605465D01*
X42349500Y-34807648D01*
X42349500Y-35012351D01*
X42381522Y-35214534D01*
X42444781Y-35409223D01*
X42537715Y-35591613D01*
X42658028Y-35757213D01*
X42802786Y-35901971D01*
X42953694Y-36011610D01*
X42968390Y-36022287D01*
X43049499Y-36063614D01*
X43150776Y-36115218D01*
X43150778Y-36115218D01*
X43150781Y-36115220D01*
X43225818Y-36139601D01*
X43345465Y-36178477D01*
X43434760Y-36192620D01*
X43547648Y-36210500D01*
X43547649Y-36210500D01*
X43752351Y-36210500D01*
X43752352Y-36210500D01*
X43954534Y-36178477D01*
X44149219Y-36115220D01*
X44331610Y-36022287D01*
X44410030Y-35965312D01*
X44425350Y-35954182D01*
X44491156Y-35930702D01*
X44498235Y-35930500D01*
X44990398Y-35930500D01*
X45057437Y-35950185D01*
X45100883Y-35998205D01*
X45107715Y-36011614D01*
X45228028Y-36177213D01*
X45372786Y-36321971D01*
X45538388Y-36442286D01*
X45591828Y-36469516D01*
X45642623Y-36517490D01*
X45659418Y-36585312D01*
X45636880Y-36651446D01*
X45591828Y-36690484D01*
X45538388Y-36717713D01*
X45372786Y-36838028D01*
X45228028Y-36982786D01*
X45107715Y-37148385D01*
X45100883Y-37161795D01*
X45090433Y-37172859D01*
X45084111Y-37186703D01*
X45066931Y-37197743D01*
X45052909Y-37212591D01*
X45037227Y-37216832D01*
X45025333Y-37224477D01*
X44990398Y-37229500D01*
X44772683Y-37229500D01*
X44705644Y-37209815D01*
X44672365Y-37178385D01*
X44631969Y-37122785D01*
X44631964Y-37122779D01*
X44487213Y-36978028D01*
X44321613Y-36857715D01*
X44321612Y-36857714D01*
X44321610Y-36857713D01*
X44230500Y-36811290D01*
X44139223Y-36764781D01*
X43944534Y-36701522D01*
X43769995Y-36673878D01*
X43742352Y-36669500D01*
X43537648Y-36669500D01*
X43513329Y-36673351D01*
X43335465Y-36701522D01*
X43140776Y-36764781D01*
X42958386Y-36857715D01*
X42792786Y-36978028D01*
X42648028Y-37122786D01*
X42527715Y-37288386D01*
X42434781Y-37470776D01*
X42371522Y-37665465D01*
X42339500Y-37867648D01*
X42339500Y-38072351D01*
X42371522Y-38274534D01*
X42434781Y-38469223D01*
X42527715Y-38651613D01*
X42648028Y-38817213D01*
X42792786Y-38961971D01*
X42893607Y-39035220D01*
X42958390Y-39082287D01*
X43074607Y-39141503D01*
X43140776Y-39175218D01*
X43140778Y-39175218D01*
X43140781Y-39175220D01*
X43245137Y-39209127D01*
X43335465Y-39238477D01*
X43436557Y-39254488D01*
X43537648Y-39270500D01*
X43537649Y-39270500D01*
X43742351Y-39270500D01*
X43742352Y-39270500D01*
X43944534Y-39238477D01*
X44139219Y-39175220D01*
X44321610Y-39082287D01*
X44414590Y-39014732D01*
X44487213Y-38961971D01*
X44487215Y-38961968D01*
X44487219Y-38961966D01*
X44631966Y-38817219D01*
X44631968Y-38817215D01*
X44631971Y-38817213D01*
X44752286Y-38651611D01*
X44823619Y-38511614D01*
X44830450Y-38498205D01*
X44840899Y-38487141D01*
X44847222Y-38473297D01*
X44864401Y-38462256D01*
X44878424Y-38447409D01*
X44894105Y-38443167D01*
X44906000Y-38435523D01*
X44940935Y-38430500D01*
X44990398Y-38430500D01*
X45057437Y-38450185D01*
X45100882Y-38498204D01*
X45106821Y-38509859D01*
X45107715Y-38511614D01*
X45228028Y-38677213D01*
X45372786Y-38821971D01*
X45527749Y-38934556D01*
X45538390Y-38942287D01*
X45654607Y-39001503D01*
X45720776Y-39035218D01*
X45720778Y-39035218D01*
X45720781Y-39035220D01*
X45825137Y-39069127D01*
X45915465Y-39098477D01*
X46016557Y-39114488D01*
X46117648Y-39130500D01*
X46117649Y-39130500D01*
X46322351Y-39130500D01*
X46322352Y-39130500D01*
X46524534Y-39098477D01*
X46719219Y-39035220D01*
X46901610Y-38942287D01*
X46994590Y-38874732D01*
X47067213Y-38821971D01*
X47067215Y-38821968D01*
X47067219Y-38821966D01*
X47211966Y-38677219D01*
X47211968Y-38677215D01*
X47211971Y-38677213D01*
X47332284Y-38511614D01*
X47332283Y-38511614D01*
X47332287Y-38511610D01*
X47339117Y-38498204D01*
X47387091Y-38447409D01*
X47449602Y-38430500D01*
X48953331Y-38430500D01*
X48953347Y-38430501D01*
X48960943Y-38430501D01*
X49119054Y-38430501D01*
X49119057Y-38430501D01*
X49271785Y-38389577D01*
X49322147Y-38360500D01*
X49408716Y-38310520D01*
X49416812Y-38302423D01*
X49429317Y-38294759D01*
X49449444Y-38289312D01*
X49467742Y-38279318D01*
X49483473Y-38280103D01*
X49496761Y-38276508D01*
X49512714Y-38281564D01*
X49532436Y-38282549D01*
X49553251Y-38289312D01*
X49658632Y-38323553D01*
X49746110Y-38337408D01*
X49891903Y-38360500D01*
X49891908Y-38360500D01*
X50128097Y-38360500D01*
X50361368Y-38323553D01*
X50401479Y-38310520D01*
X50585992Y-38250568D01*
X50796433Y-38143343D01*
X50987510Y-38004517D01*
X51154517Y-37837510D01*
X51293343Y-37646433D01*
X51400568Y-37435992D01*
X51438212Y-37320133D01*
X51445198Y-37308733D01*
X51447310Y-37299026D01*
X51468457Y-37270776D01*
X51900520Y-36838716D01*
X51979577Y-36701784D01*
X52020501Y-36549057D01*
X52020501Y-36390942D01*
X52020501Y-36383347D01*
X52020500Y-36383329D01*
X52020500Y-34310098D01*
X52029144Y-34280660D01*
X52035668Y-34250670D01*
X52039423Y-34245653D01*
X52040185Y-34243059D01*
X52056819Y-34222416D01*
X52127418Y-34151818D01*
X52188742Y-34118334D01*
X52215099Y-34115500D01*
X52274281Y-34115500D01*
X52341320Y-34135185D01*
X52384765Y-34183205D01*
X52404947Y-34222814D01*
X52404948Y-34222815D01*
X52529890Y-34394786D01*
X52680213Y-34545109D01*
X52852179Y-34670048D01*
X52852181Y-34670049D01*
X52852184Y-34670051D01*
X53041588Y-34766557D01*
X53243757Y-34832246D01*
X53453713Y-34865500D01*
X53453714Y-34865500D01*
X53666286Y-34865500D01*
X53666287Y-34865500D01*
X53876243Y-34832246D01*
X54078412Y-34766557D01*
X54267816Y-34670051D01*
X54297630Y-34648390D01*
X54439786Y-34545109D01*
X54439788Y-34545106D01*
X54439792Y-34545104D01*
X54590104Y-34394792D01*
X54590106Y-34394788D01*
X54590109Y-34394786D01*
X54715048Y-34222820D01*
X54715047Y-34222820D01*
X54715051Y-34222816D01*
X54811557Y-34033412D01*
X54877246Y-33831243D01*
X54910500Y-33621287D01*
X54910500Y-33408713D01*
X54877246Y-33198757D01*
X54811557Y-32996588D01*
X54715051Y-32807184D01*
X54715049Y-32807181D01*
X54715048Y-32807179D01*
X54590109Y-32635213D01*
X54476569Y-32521673D01*
X54443084Y-32460350D01*
X54448068Y-32390658D01*
X54489940Y-32334725D01*
X54520915Y-32317810D01*
X54652331Y-32268796D01*
X54767546Y-32182546D01*
X54853796Y-32067331D01*
X54904091Y-31932483D01*
X54910500Y-31872873D01*
X54910499Y-30077128D01*
X54904091Y-30017517D01*
X54892779Y-29987189D01*
X54853797Y-29882671D01*
X54853793Y-29882664D01*
X54767547Y-29767455D01*
X54767544Y-29767452D01*
X54652335Y-29681206D01*
X54652328Y-29681202D01*
X54517482Y-29630908D01*
X54517483Y-29630908D01*
X54457883Y-29624501D01*
X54457881Y-29624500D01*
X54457873Y-29624500D01*
X54457864Y-29624500D01*
X52662129Y-29624500D01*
X52662123Y-29624501D01*
X52602516Y-29630908D01*
X52467671Y-29681202D01*
X52467664Y-29681206D01*
X52352455Y-29767452D01*
X52352181Y-29767727D01*
X52351840Y-29767912D01*
X52345355Y-29772768D01*
X52344656Y-29771835D01*
X52290858Y-29801212D01*
X52221166Y-29796228D01*
X52165233Y-29754356D01*
X52140816Y-29688892D01*
X52140500Y-29680046D01*
X52140500Y-26883713D01*
X55959500Y-26883713D01*
X55959500Y-27096287D01*
X55965202Y-27132287D01*
X55991049Y-27295483D01*
X55992754Y-27306243D01*
X56046767Y-27472478D01*
X56058444Y-27508414D01*
X56154951Y-27697820D01*
X56279890Y-27869786D01*
X56430213Y-28020109D01*
X56602182Y-28145050D01*
X56610946Y-28149516D01*
X56661742Y-28197491D01*
X56678536Y-28265312D01*
X56655998Y-28331447D01*
X56610946Y-28370484D01*
X56602182Y-28374949D01*
X56430213Y-28499890D01*
X56279890Y-28650213D01*
X56154951Y-28822179D01*
X56058444Y-29011585D01*
X55992753Y-29213760D01*
X55969302Y-29361824D01*
X55959500Y-29423713D01*
X55959500Y-29636287D01*
X55964806Y-29669786D01*
X55992501Y-29844649D01*
X55992754Y-29846243D01*
X56054476Y-30036204D01*
X56058444Y-30048414D01*
X56154951Y-30237820D01*
X56279890Y-30409786D01*
X56430213Y-30560109D01*
X56602182Y-30685050D01*
X56610946Y-30689516D01*
X56661742Y-30737491D01*
X56678536Y-30805312D01*
X56655998Y-30871447D01*
X56610946Y-30910484D01*
X56602182Y-30914949D01*
X56430213Y-31039890D01*
X56279890Y-31190213D01*
X56154951Y-31362179D01*
X56058444Y-31551585D01*
X55992753Y-31753760D01*
X55964446Y-31932483D01*
X55959500Y-31963713D01*
X55959500Y-32176287D01*
X55967672Y-32227883D01*
X55991490Y-32378267D01*
X55992754Y-32386243D01*
X56053542Y-32573329D01*
X56058444Y-32588414D01*
X56154951Y-32777820D01*
X56279890Y-32949786D01*
X56430213Y-33100109D01*
X56602182Y-33225050D01*
X56610946Y-33229516D01*
X56661742Y-33277491D01*
X56678536Y-33345312D01*
X56655998Y-33411447D01*
X56610946Y-33450484D01*
X56602182Y-33454949D01*
X56430213Y-33579890D01*
X56279890Y-33730213D01*
X56154951Y-33902179D01*
X56058444Y-34091585D01*
X56058443Y-34091587D01*
X56058443Y-34091588D01*
X56049753Y-34118334D01*
X55992753Y-34293760D01*
X55969302Y-34441824D01*
X55959500Y-34503713D01*
X55959500Y-34716287D01*
X55992754Y-34926243D01*
X56046130Y-35090518D01*
X56058444Y-35128414D01*
X56154951Y-35317820D01*
X56279890Y-35489786D01*
X56393818Y-35603714D01*
X56427303Y-35665037D01*
X56422319Y-35734729D01*
X56380447Y-35790662D01*
X56349471Y-35807577D01*
X56217912Y-35856646D01*
X56217906Y-35856649D01*
X56102812Y-35942809D01*
X56102809Y-35942812D01*
X56016649Y-36057906D01*
X56016645Y-36057913D01*
X55966403Y-36192620D01*
X55966401Y-36192627D01*
X55960000Y-36252155D01*
X55960000Y-36900000D01*
X56876988Y-36900000D01*
X56844075Y-36957007D01*
X56810000Y-37084174D01*
X56810000Y-37215826D01*
X56844075Y-37342993D01*
X56876988Y-37400000D01*
X55960000Y-37400000D01*
X55960000Y-38047844D01*
X55966401Y-38107372D01*
X55966403Y-38107379D01*
X56016645Y-38242086D01*
X56016649Y-38242093D01*
X56102809Y-38357187D01*
X56102812Y-38357190D01*
X56217906Y-38443350D01*
X56217913Y-38443354D01*
X56352620Y-38493596D01*
X56352627Y-38493598D01*
X56412155Y-38499999D01*
X56412172Y-38500000D01*
X57060000Y-38500000D01*
X57060000Y-37583012D01*
X57117007Y-37615925D01*
X57244174Y-37650000D01*
X57375826Y-37650000D01*
X57502993Y-37615925D01*
X57560000Y-37583012D01*
X57560000Y-38500000D01*
X58207828Y-38500000D01*
X58207844Y-38499999D01*
X58267372Y-38493598D01*
X58267379Y-38493596D01*
X58402086Y-38443354D01*
X58402093Y-38443350D01*
X58517187Y-38357190D01*
X58517190Y-38357187D01*
X58603350Y-38242093D01*
X58603354Y-38242086D01*
X58653596Y-38107379D01*
X58653598Y-38107372D01*
X58659999Y-38047844D01*
X58660000Y-38047827D01*
X58660000Y-37400000D01*
X57743012Y-37400000D01*
X57775925Y-37342993D01*
X57810000Y-37215826D01*
X57810000Y-37084174D01*
X57775925Y-36957007D01*
X57743012Y-36900000D01*
X58660000Y-36900000D01*
X58660000Y-36252172D01*
X58659999Y-36252155D01*
X58653598Y-36192627D01*
X58653596Y-36192620D01*
X58603354Y-36057913D01*
X58603350Y-36057906D01*
X58517190Y-35942812D01*
X58517187Y-35942809D01*
X58402093Y-35856649D01*
X58402088Y-35856646D01*
X58270528Y-35807577D01*
X58214595Y-35765705D01*
X58190178Y-35700241D01*
X58205030Y-35631968D01*
X58226175Y-35603720D01*
X58340104Y-35489792D01*
X58465051Y-35317816D01*
X58471018Y-35306105D01*
X58485235Y-35278205D01*
X58533209Y-35227409D01*
X58595719Y-35210500D01*
X58993331Y-35210500D01*
X58993347Y-35210501D01*
X59000943Y-35210501D01*
X59159054Y-35210501D01*
X59159057Y-35210501D01*
X59311785Y-35169577D01*
X59362147Y-35140500D01*
X59448716Y-35090520D01*
X59560520Y-34978716D01*
X59560520Y-34978714D01*
X59570723Y-34968512D01*
X59570727Y-34968506D01*
X59728506Y-34810728D01*
X59728511Y-34810724D01*
X59738714Y-34800520D01*
X59738716Y-34800520D01*
X59850520Y-34688716D01*
X59911143Y-34583713D01*
X59929577Y-34551785D01*
X59970501Y-34399057D01*
X59970501Y-34240943D01*
X59970501Y-34233348D01*
X59970500Y-34233330D01*
X59970500Y-33294500D01*
X59990185Y-33227461D01*
X60042989Y-33181706D01*
X60094500Y-33170500D01*
X60549431Y-33170500D01*
X60616470Y-33190185D01*
X60662225Y-33242989D01*
X60672547Y-33279716D01*
X60675326Y-33302861D01*
X60729278Y-33439676D01*
X60818140Y-33556859D01*
X60935323Y-33645721D01*
X61072142Y-33699675D01*
X61072141Y-33699675D01*
X61158116Y-33710000D01*
X61760000Y-33710000D01*
X61760000Y-33334499D01*
X61762550Y-33325813D01*
X61761262Y-33316852D01*
X61772240Y-33292811D01*
X61779685Y-33267460D01*
X61786525Y-33261532D01*
X61790287Y-33253296D01*
X61812521Y-33239006D01*
X61832489Y-33221705D01*
X61843003Y-33219417D01*
X61849065Y-33215522D01*
X61883996Y-33210499D01*
X61916001Y-33210499D01*
X61983039Y-33230184D01*
X62028794Y-33282988D01*
X62040000Y-33334499D01*
X62040000Y-33710000D01*
X62641884Y-33710000D01*
X62727858Y-33699675D01*
X62864676Y-33645721D01*
X62981859Y-33556859D01*
X63070721Y-33439676D01*
X63124675Y-33302858D01*
X63135000Y-33216884D01*
X63135000Y-33210000D01*
X63116010Y-33210000D01*
X63102720Y-33206097D01*
X63088901Y-33207000D01*
X63069858Y-33196448D01*
X63048971Y-33190315D01*
X63039902Y-33179849D01*
X63027787Y-33173136D01*
X63017471Y-33153962D01*
X63003216Y-33137511D01*
X63001244Y-33123802D01*
X62994683Y-33111606D01*
X62996370Y-33089902D01*
X62993272Y-33068353D01*
X62999137Y-33054316D01*
X63000099Y-33041947D01*
X63017206Y-33011075D01*
X63041472Y-32979075D01*
X63097664Y-32937552D01*
X63133863Y-32931136D01*
X63135000Y-32930000D01*
X63135000Y-32923116D01*
X63124644Y-32836889D01*
X63124644Y-32807317D01*
X63125164Y-32802982D01*
X63125166Y-32802979D01*
X63135500Y-32716927D01*
X63135499Y-32423074D01*
X63125166Y-32337021D01*
X63125164Y-32337018D01*
X63124896Y-32334779D01*
X63124897Y-32305210D01*
X63125164Y-32302982D01*
X63125166Y-32302979D01*
X63135500Y-32216927D01*
X63135499Y-31923074D01*
X63125166Y-31837021D01*
X63125164Y-31837018D01*
X63124896Y-31834779D01*
X63124897Y-31805210D01*
X63125164Y-31802982D01*
X63125166Y-31802979D01*
X63135500Y-31716927D01*
X63135499Y-31423074D01*
X63125166Y-31337021D01*
X63125164Y-31337018D01*
X63124896Y-31334779D01*
X63124897Y-31305210D01*
X63125164Y-31302982D01*
X63125166Y-31302979D01*
X63135500Y-31216927D01*
X63135499Y-30923074D01*
X63125166Y-30837021D01*
X63071163Y-30700078D01*
X63059767Y-30685050D01*
X62982216Y-30582783D01*
X62864924Y-30493838D01*
X62864922Y-30493837D01*
X62727979Y-30439834D01*
X62727978Y-30439833D01*
X62641927Y-30429500D01*
X61158080Y-30429500D01*
X61072021Y-30439834D01*
X61018715Y-30460855D01*
X60973226Y-30469500D01*
X60294500Y-30469500D01*
X60227461Y-30449815D01*
X60181706Y-30397011D01*
X60170500Y-30345500D01*
X60170500Y-27559060D01*
X60170501Y-27559047D01*
X60170501Y-27390944D01*
X60147804Y-27306239D01*
X60129577Y-27238216D01*
X60102619Y-27191523D01*
X60050524Y-27101290D01*
X60050518Y-27101282D01*
X59458717Y-26509481D01*
X59458716Y-26509480D01*
X59349712Y-26446547D01*
X59349711Y-26446546D01*
X59321783Y-26430422D01*
X59255042Y-26412539D01*
X59169057Y-26389499D01*
X59010943Y-26389499D01*
X59003347Y-26389499D01*
X59003331Y-26389500D01*
X58595719Y-26389500D01*
X58528680Y-26369815D01*
X58485235Y-26321795D01*
X58465052Y-26282185D01*
X58465051Y-26282184D01*
X58340109Y-26110213D01*
X58189786Y-25959890D01*
X58017820Y-25834951D01*
X57828414Y-25738444D01*
X57828413Y-25738443D01*
X57828412Y-25738443D01*
X57626243Y-25672754D01*
X57626241Y-25672753D01*
X57626240Y-25672753D01*
X57464957Y-25647208D01*
X57416287Y-25639500D01*
X57203713Y-25639500D01*
X57155042Y-25647208D01*
X56993760Y-25672753D01*
X56791585Y-25738444D01*
X56602179Y-25834951D01*
X56430213Y-25959890D01*
X56279890Y-26110213D01*
X56154951Y-26282179D01*
X56058444Y-26471585D01*
X55992753Y-26673760D01*
X55972680Y-26800500D01*
X55959500Y-26883713D01*
X52140500Y-26883713D01*
X52140500Y-25290943D01*
X52137454Y-25279577D01*
X52137453Y-25279574D01*
X52129534Y-25250019D01*
X52099577Y-25138216D01*
X52035961Y-25028028D01*
X52020524Y-25001290D01*
X52020521Y-25001286D01*
X52020520Y-25001284D01*
X51908716Y-24889480D01*
X51908715Y-24889479D01*
X51904385Y-24885149D01*
X51904374Y-24885139D01*
X51477590Y-24458355D01*
X51477588Y-24458352D01*
X51358717Y-24339481D01*
X51358709Y-24339475D01*
X51239106Y-24270423D01*
X51239106Y-24270422D01*
X51239101Y-24270421D01*
X51233058Y-24266932D01*
X51221786Y-24260423D01*
X51182886Y-24250000D01*
X51069057Y-24219499D01*
X50910943Y-24219499D01*
X50903347Y-24219499D01*
X50903331Y-24219500D01*
X48349057Y-24219500D01*
X48190943Y-24219500D01*
X48169389Y-24225275D01*
X48137298Y-24229500D01*
X48054500Y-24229500D01*
X47987461Y-24209815D01*
X47941706Y-24157011D01*
X47930500Y-24105500D01*
X47930500Y-22970945D01*
X47930500Y-22970943D01*
X47889577Y-22818216D01*
X47889249Y-22817648D01*
X47810524Y-22681290D01*
X47810518Y-22681282D01*
X47698717Y-22569481D01*
X47698709Y-22569475D01*
X47561790Y-22490426D01*
X47561786Y-22490424D01*
X47561785Y-22490423D01*
X47561784Y-22490423D01*
X47520325Y-22479314D01*
X47460667Y-22442949D01*
X47441937Y-22415834D01*
X47392286Y-22318388D01*
X47271971Y-22152786D01*
X47127213Y-22008028D01*
X46961613Y-21887715D01*
X46961612Y-21887714D01*
X46961610Y-21887713D01*
X46904653Y-21858691D01*
X46779223Y-21794781D01*
X46584534Y-21731522D01*
X46409995Y-21703878D01*
X46382352Y-21699500D01*
X46177648Y-21699500D01*
X46153329Y-21703351D01*
X45975465Y-21731522D01*
X45780776Y-21794781D01*
X45598386Y-21887715D01*
X45432786Y-22008028D01*
X45288034Y-22152780D01*
X45288030Y-22152786D01*
X45204042Y-22268385D01*
X45148714Y-22311051D01*
X45103725Y-22319500D01*
X44719602Y-22319500D01*
X44652563Y-22299815D01*
X44609117Y-22251795D01*
X44602284Y-22238385D01*
X44481971Y-22072786D01*
X44337213Y-21928028D01*
X44171613Y-21807715D01*
X44171612Y-21807714D01*
X44171610Y-21807713D01*
X44114653Y-21778691D01*
X43989223Y-21714781D01*
X43794534Y-21651522D01*
X43619995Y-21623878D01*
X43592352Y-21619500D01*
X43387648Y-21619500D01*
X43363329Y-21623351D01*
X43185465Y-21651522D01*
X42990776Y-21714781D01*
X42808386Y-21807715D01*
X42642786Y-21928028D01*
X42498028Y-22072786D01*
X42377715Y-22238386D01*
X42284781Y-22420776D01*
X42221522Y-22615465D01*
X42189500Y-22817648D01*
X42189500Y-23022351D01*
X42221522Y-23224534D01*
X42284781Y-23419223D01*
X42377715Y-23601613D01*
X42498028Y-23767213D01*
X42642786Y-23911971D01*
X42752892Y-23991966D01*
X42808390Y-24032287D01*
X42924607Y-24091503D01*
X42990776Y-24125218D01*
X42990778Y-24125218D01*
X42990781Y-24125220D01*
X43081499Y-24154696D01*
X43185465Y-24188477D01*
X43286557Y-24204488D01*
X43387648Y-24220500D01*
X43387649Y-24220500D01*
X43592351Y-24220500D01*
X43592352Y-24220500D01*
X43794534Y-24188477D01*
X43989219Y-24125220D01*
X44171610Y-24032287D01*
X44264590Y-23964732D01*
X44337213Y-23911971D01*
X44337215Y-23911968D01*
X44337219Y-23911966D01*
X44481966Y-23767219D01*
X44481968Y-23767215D01*
X44481971Y-23767213D01*
X44602284Y-23601614D01*
X44602285Y-23601613D01*
X44602287Y-23601610D01*
X44609117Y-23588204D01*
X44657091Y-23537409D01*
X44719602Y-23520500D01*
X45009636Y-23520500D01*
X45076675Y-23540185D01*
X45120120Y-23588203D01*
X45126953Y-23601614D01*
X45167715Y-23681614D01*
X45288028Y-23847213D01*
X45432786Y-23991971D01*
X45598388Y-24112286D01*
X45651828Y-24139516D01*
X45702623Y-24187490D01*
X45719418Y-24255312D01*
X45696880Y-24321446D01*
X45651828Y-24360484D01*
X45598388Y-24387713D01*
X45432786Y-24508028D01*
X45288028Y-24652786D01*
X45167715Y-24818386D01*
X45074781Y-25000776D01*
X45018892Y-25172786D01*
X45011523Y-25195466D01*
X44998202Y-25279574D01*
X44992607Y-25314898D01*
X44978016Y-25345675D01*
X44963847Y-25376703D01*
X44963071Y-25377201D01*
X44962678Y-25378032D01*
X44933750Y-25396044D01*
X44905069Y-25414477D01*
X44903872Y-25414648D01*
X44903367Y-25414964D01*
X44870134Y-25419500D01*
X44729602Y-25419500D01*
X44662563Y-25399815D01*
X44619117Y-25351795D01*
X44612284Y-25338385D01*
X44491971Y-25172786D01*
X44347213Y-25028028D01*
X44181613Y-24907715D01*
X44181612Y-24907714D01*
X44181610Y-24907713D01*
X44124653Y-24878691D01*
X43999223Y-24814781D01*
X43804534Y-24751522D01*
X43629995Y-24723878D01*
X43602352Y-24719500D01*
X43397648Y-24719500D01*
X43373329Y-24723351D01*
X43195465Y-24751522D01*
X43000776Y-24814781D01*
X42818386Y-24907715D01*
X42652786Y-25028028D01*
X42508028Y-25172786D01*
X42387715Y-25338386D01*
X42294781Y-25520776D01*
X42231522Y-25715465D01*
X42212598Y-25834949D01*
X42199500Y-25917648D01*
X42199500Y-26122352D01*
X42203878Y-26149995D01*
X42231522Y-26324534D01*
X42294781Y-26519223D01*
X42387715Y-26701613D01*
X42508028Y-26867213D01*
X42508034Y-26867219D01*
X42652781Y-27011966D01*
X42818390Y-27132287D01*
X42831793Y-27139116D01*
X42842856Y-27149564D01*
X42856703Y-27155888D01*
X42867744Y-27173068D01*
X42882589Y-27187088D01*
X42886830Y-27202768D01*
X42894477Y-27214666D01*
X42899500Y-27249601D01*
X42899500Y-27353330D01*
X42899499Y-27353348D01*
X42899499Y-27519054D01*
X42899498Y-27519054D01*
X42940424Y-27671789D01*
X42940425Y-27671790D01*
X42955451Y-27697815D01*
X42955452Y-27697816D01*
X43019477Y-27808712D01*
X43019481Y-27808717D01*
X43148716Y-27937952D01*
X43148721Y-27937956D01*
X43298585Y-28087820D01*
X43332068Y-28149142D01*
X43327084Y-28218834D01*
X43285212Y-28274767D01*
X43219748Y-28299184D01*
X43210902Y-28299500D01*
X41000943Y-28299500D01*
X40848213Y-28340423D01*
X40812674Y-28360943D01*
X40812673Y-28360943D01*
X40711287Y-28419477D01*
X40711282Y-28419481D01*
X40299481Y-28831282D01*
X40299479Y-28831285D01*
X40266612Y-28888214D01*
X40266611Y-28888216D01*
X40220423Y-28968214D01*
X40208802Y-29011585D01*
X40179499Y-29120943D01*
X40179499Y-29120945D01*
X40179499Y-29289046D01*
X40179500Y-29289059D01*
X40179500Y-29671585D01*
X40159815Y-29738624D01*
X40107011Y-29784379D01*
X40037853Y-29794323D01*
X39974297Y-29765298D01*
X39948113Y-29733585D01*
X39928022Y-29698787D01*
X39928018Y-29698782D01*
X39438717Y-29209481D01*
X39438716Y-29209480D01*
X39337326Y-29150943D01*
X39337325Y-29150942D01*
X39301783Y-29130422D01*
X39245881Y-29115443D01*
X39149057Y-29089499D01*
X38990943Y-29089499D01*
X38983347Y-29089499D01*
X38983331Y-29089500D01*
X36506670Y-29089500D01*
X36506654Y-29089499D01*
X36499058Y-29089499D01*
X36340943Y-29089499D01*
X36278455Y-29106243D01*
X36188214Y-29130423D01*
X36188209Y-29130426D01*
X36051290Y-29209475D01*
X36051286Y-29209478D01*
X35992181Y-29268583D01*
X35930857Y-29302067D01*
X35861166Y-29297082D01*
X35805232Y-29255211D01*
X35780816Y-29189746D01*
X35780500Y-29180901D01*
X35780500Y-29127648D01*
X35748477Y-28925465D01*
X35723041Y-28847183D01*
X35716850Y-28828131D01*
X35714856Y-28758291D01*
X35747099Y-28702134D01*
X36238506Y-28210728D01*
X36238511Y-28210724D01*
X36248714Y-28200520D01*
X36248716Y-28200520D01*
X36360520Y-28088716D01*
X36417225Y-27990500D01*
X36439577Y-27951785D01*
X36480501Y-27799057D01*
X36480501Y-27640943D01*
X36480501Y-27633348D01*
X36480500Y-27633330D01*
X36480500Y-27249601D01*
X36500185Y-27182562D01*
X36548206Y-27139116D01*
X36561610Y-27132287D01*
X36727219Y-27011966D01*
X36871966Y-26867219D01*
X36871968Y-26867215D01*
X36871971Y-26867213D01*
X36925869Y-26793027D01*
X36992287Y-26701610D01*
X37085220Y-26519219D01*
X37148477Y-26324534D01*
X37180500Y-26122352D01*
X37180500Y-25917648D01*
X37162584Y-25804534D01*
X37148477Y-25715465D01*
X37085218Y-25520776D01*
X37034124Y-25420500D01*
X36992287Y-25338390D01*
X36957815Y-25290943D01*
X36871971Y-25172786D01*
X36727213Y-25028028D01*
X36561610Y-24907712D01*
X36548200Y-24900879D01*
X36497406Y-24852903D01*
X36480500Y-24790397D01*
X36480500Y-24144506D01*
X36500185Y-24077467D01*
X36548207Y-24034020D01*
X36551610Y-24032287D01*
X36717219Y-23911966D01*
X36861966Y-23767219D01*
X36861968Y-23767215D01*
X36861971Y-23767213D01*
X36924164Y-23681610D01*
X36982287Y-23601610D01*
X37075220Y-23419219D01*
X37138477Y-23224534D01*
X37170500Y-23022352D01*
X37170500Y-22817648D01*
X37148902Y-22681284D01*
X37138477Y-22615465D01*
X37075218Y-22420776D01*
X37041503Y-22354607D01*
X36982287Y-22238390D01*
X36920093Y-22152786D01*
X36861971Y-22072786D01*
X36717213Y-21928028D01*
X36551613Y-21807715D01*
X36551612Y-21807714D01*
X36551610Y-21807713D01*
X36494653Y-21778691D01*
X36369223Y-21714781D01*
X36174534Y-21651522D01*
X35999995Y-21623878D01*
X35972352Y-21619500D01*
X35767648Y-21619500D01*
X35743329Y-21623351D01*
X35565465Y-21651522D01*
X35370776Y-21714781D01*
X35188386Y-21807715D01*
X35022786Y-21928028D01*
X34878028Y-22072786D01*
X34757715Y-22238386D01*
X34664781Y-22420776D01*
X34601522Y-22615465D01*
X34569500Y-22817648D01*
X34569500Y-23022351D01*
X34601522Y-23224534D01*
X34664781Y-23419223D01*
X34757715Y-23601613D01*
X34878028Y-23767213D01*
X34878034Y-23767219D01*
X35022781Y-23911966D01*
X35188390Y-24032287D01*
X35211793Y-24044211D01*
X35262589Y-24092183D01*
X35279500Y-24154696D01*
X35279500Y-24790397D01*
X35259815Y-24857436D01*
X35211800Y-24900879D01*
X35198389Y-24907712D01*
X35032786Y-25028028D01*
X34888028Y-25172786D01*
X34767715Y-25338386D01*
X34674781Y-25520776D01*
X34611522Y-25715465D01*
X34592598Y-25834949D01*
X34579500Y-25917648D01*
X34579500Y-26122352D01*
X34583878Y-26149995D01*
X34611522Y-26324534D01*
X34674781Y-26519223D01*
X34767715Y-26701613D01*
X34888028Y-26867213D01*
X34888034Y-26867219D01*
X35032781Y-27011966D01*
X35198390Y-27132287D01*
X35211793Y-27139116D01*
X35222856Y-27149564D01*
X35236703Y-27155888D01*
X35247744Y-27173068D01*
X35262589Y-27187088D01*
X35266830Y-27202768D01*
X35274477Y-27214666D01*
X35279500Y-27249601D01*
X35279500Y-27419902D01*
X35259815Y-27486941D01*
X35243181Y-27507583D01*
X34833273Y-27917490D01*
X34771950Y-27950975D01*
X34726195Y-27952282D01*
X34582352Y-27929500D01*
X34377648Y-27929500D01*
X34350004Y-27933878D01*
X34175466Y-27961522D01*
X34146158Y-27971045D01*
X34112341Y-27972010D01*
X34078610Y-27973618D01*
X34077107Y-27973016D01*
X34076316Y-27973039D01*
X34045879Y-27960515D01*
X34045843Y-27960501D01*
X33991904Y-27929360D01*
X33991902Y-27929358D01*
X33991901Y-27929358D01*
X33941785Y-27900423D01*
X33789057Y-27859499D01*
X33630943Y-27859499D01*
X33623347Y-27859499D01*
X33623331Y-27859500D01*
X32809602Y-27859500D01*
X32742563Y-27839815D01*
X32699117Y-27791795D01*
X32692284Y-27778385D01*
X32571971Y-27612786D01*
X32427213Y-27468028D01*
X32261613Y-27347715D01*
X32261612Y-27347714D01*
X32261610Y-27347713D01*
X32180213Y-27306239D01*
X32079223Y-27254781D01*
X31884534Y-27191522D01*
X31709995Y-27163878D01*
X31682352Y-27159500D01*
X31477648Y-27159500D01*
X31453329Y-27163351D01*
X31275465Y-27191522D01*
X31080776Y-27254781D01*
X30898386Y-27347715D01*
X30732786Y-27468028D01*
X30588028Y-27612786D01*
X30467715Y-27778386D01*
X30374781Y-27960776D01*
X30311522Y-28155465D01*
X30279500Y-28357648D01*
X25260500Y-28357648D01*
X25242113Y-28241557D01*
X25228477Y-28155465D01*
X25186893Y-28027483D01*
X25165220Y-27960781D01*
X25165218Y-27960778D01*
X25165218Y-27960776D01*
X25118912Y-27869896D01*
X25072287Y-27778390D01*
X25064556Y-27767749D01*
X24951971Y-27612786D01*
X24807213Y-27468028D01*
X24641613Y-27347715D01*
X24641612Y-27347714D01*
X24641610Y-27347713D01*
X24560213Y-27306239D01*
X24459223Y-27254781D01*
X24264534Y-27191522D01*
X24089995Y-27163878D01*
X24062352Y-27159500D01*
X23857648Y-27159500D01*
X23833329Y-27163351D01*
X23655465Y-27191522D01*
X23460776Y-27254781D01*
X23278386Y-27347715D01*
X23112786Y-27468028D01*
X22968028Y-27612786D01*
X22847715Y-27778385D01*
X22840883Y-27791795D01*
X22792909Y-27842591D01*
X22730398Y-27859500D01*
X22464259Y-27859500D01*
X22397220Y-27839815D01*
X22353774Y-27791795D01*
X22292628Y-27671790D01*
X22283343Y-27653567D01*
X22144517Y-27462490D01*
X21977510Y-27295483D01*
X21786433Y-27156657D01*
X21752005Y-27139115D01*
X21575996Y-27049433D01*
X21351368Y-26976446D01*
X21118097Y-26939500D01*
X21118092Y-26939500D01*
X20881908Y-26939500D01*
X20881903Y-26939500D01*
X20648631Y-26976446D01*
X20424003Y-27049433D01*
X20213566Y-27156657D01*
X20104550Y-27235862D01*
X20022490Y-27295483D01*
X20022488Y-27295485D01*
X20022487Y-27295485D01*
X19855485Y-27462487D01*
X19855485Y-27462488D01*
X19855483Y-27462490D01*
X19822721Y-27507583D01*
X19716657Y-27653566D01*
X19609433Y-27864003D01*
X19536446Y-28088631D01*
X19535312Y-28093360D01*
X19533266Y-28092869D01*
X19507089Y-28148055D01*
X19447769Y-28184972D01*
X19414565Y-28189500D01*
X18665719Y-28189500D01*
X18598680Y-28169815D01*
X18555235Y-28121795D01*
X18535052Y-28082185D01*
X18535051Y-28082184D01*
X18410109Y-27910213D01*
X18259786Y-27759890D01*
X18087820Y-27634951D01*
X17898414Y-27538444D01*
X17898413Y-27538443D01*
X17898412Y-27538443D01*
X17696243Y-27472754D01*
X17696241Y-27472753D01*
X17696240Y-27472753D01*
X17534957Y-27447208D01*
X17486287Y-27439500D01*
X17273713Y-27439500D01*
X17225042Y-27447208D01*
X17063760Y-27472753D01*
X16861585Y-27538444D01*
X16672179Y-27634951D01*
X16500213Y-27759890D01*
X16349890Y-27910213D01*
X16224951Y-28082179D01*
X16128444Y-28271585D01*
X16128443Y-28271587D01*
X16128443Y-28271588D01*
X16119477Y-28299184D01*
X16067431Y-28459363D01*
X16027993Y-28517039D01*
X15963635Y-28544237D01*
X15894788Y-28532322D01*
X15843313Y-28485078D01*
X15825500Y-28421045D01*
X15825500Y-20264500D01*
X15845185Y-20197461D01*
X15897989Y-20151706D01*
X15949500Y-20140500D01*
X71460500Y-20140500D01*
X71527539Y-20160185D01*
G37*
%TD.AperFunction*%
%TD*%
M02*
