%TF.GenerationSoftware,KiCad,Pcbnew,9.0.1*%
%TF.CreationDate,2025-06-25T15:49:50+05:30*%
%TF.ProjectId,daq_idea,6461715f-6964-4656-912e-6b696361645f,rev?*%
%TF.SameCoordinates,Original*%
%TF.FileFunction,Legend,Top*%
%TF.FilePolarity,Positive*%
%FSLAX46Y46*%
G04 Gerber Fmt 4.6, Leading zero omitted, Abs format (unit mm)*
G04 Created by KiCad (PCBNEW 9.0.1) date 2025-06-25 15:49:50*
%MOMM*%
%LPD*%
G01*
G04 APERTURE LIST*
%ADD10C,0.150000*%
%ADD11C,0.300000*%
%ADD12C,0.120000*%
%ADD13C,0.127000*%
%ADD14C,0.200000*%
G04 APERTURE END LIST*
D10*
X52298095Y-27954819D02*
X52869523Y-27954819D01*
X52583809Y-28954819D02*
X52583809Y-27954819D01*
X53202857Y-28954819D02*
X53202857Y-27954819D01*
X53202857Y-27954819D02*
X53583809Y-27954819D01*
X53583809Y-27954819D02*
X53679047Y-28002438D01*
X53679047Y-28002438D02*
X53726666Y-28050057D01*
X53726666Y-28050057D02*
X53774285Y-28145295D01*
X53774285Y-28145295D02*
X53774285Y-28288152D01*
X53774285Y-28288152D02*
X53726666Y-28383390D01*
X53726666Y-28383390D02*
X53679047Y-28431009D01*
X53679047Y-28431009D02*
X53583809Y-28478628D01*
X53583809Y-28478628D02*
X53202857Y-28478628D01*
X54107619Y-27954819D02*
X54726666Y-27954819D01*
X54726666Y-27954819D02*
X54393333Y-28335771D01*
X54393333Y-28335771D02*
X54536190Y-28335771D01*
X54536190Y-28335771D02*
X54631428Y-28383390D01*
X54631428Y-28383390D02*
X54679047Y-28431009D01*
X54679047Y-28431009D02*
X54726666Y-28526247D01*
X54726666Y-28526247D02*
X54726666Y-28764342D01*
X54726666Y-28764342D02*
X54679047Y-28859580D01*
X54679047Y-28859580D02*
X54631428Y-28907200D01*
X54631428Y-28907200D02*
X54536190Y-28954819D01*
X54536190Y-28954819D02*
X54250476Y-28954819D01*
X54250476Y-28954819D02*
X54155238Y-28907200D01*
X54155238Y-28907200D02*
X54107619Y-28859580D01*
D11*
X16214510Y-35250828D02*
X16214510Y-33750828D01*
X16928796Y-34250828D02*
X16928796Y-35250828D01*
X16928796Y-34393685D02*
X17000225Y-34322257D01*
X17000225Y-34322257D02*
X17143082Y-34250828D01*
X17143082Y-34250828D02*
X17357368Y-34250828D01*
X17357368Y-34250828D02*
X17500225Y-34322257D01*
X17500225Y-34322257D02*
X17571654Y-34465114D01*
X17571654Y-34465114D02*
X17571654Y-35250828D01*
X18285939Y-34679400D02*
X19428797Y-34679400D01*
X48864510Y-39455114D02*
X48364510Y-39455114D01*
X48364510Y-40240828D02*
X48364510Y-38740828D01*
X48364510Y-38740828D02*
X49078796Y-38740828D01*
X49293082Y-40383685D02*
X50435939Y-40383685D01*
X51007367Y-40240828D02*
X50864510Y-40169400D01*
X50864510Y-40169400D02*
X50793081Y-40097971D01*
X50793081Y-40097971D02*
X50721653Y-39955114D01*
X50721653Y-39955114D02*
X50721653Y-39526542D01*
X50721653Y-39526542D02*
X50793081Y-39383685D01*
X50793081Y-39383685D02*
X50864510Y-39312257D01*
X50864510Y-39312257D02*
X51007367Y-39240828D01*
X51007367Y-39240828D02*
X51221653Y-39240828D01*
X51221653Y-39240828D02*
X51364510Y-39312257D01*
X51364510Y-39312257D02*
X51435939Y-39383685D01*
X51435939Y-39383685D02*
X51507367Y-39526542D01*
X51507367Y-39526542D02*
X51507367Y-39955114D01*
X51507367Y-39955114D02*
X51435939Y-40097971D01*
X51435939Y-40097971D02*
X51364510Y-40169400D01*
X51364510Y-40169400D02*
X51221653Y-40240828D01*
X51221653Y-40240828D02*
X51007367Y-40240828D01*
X52793082Y-39240828D02*
X52793082Y-40240828D01*
X52150224Y-39240828D02*
X52150224Y-40026542D01*
X52150224Y-40026542D02*
X52221653Y-40169400D01*
X52221653Y-40169400D02*
X52364510Y-40240828D01*
X52364510Y-40240828D02*
X52578796Y-40240828D01*
X52578796Y-40240828D02*
X52721653Y-40169400D01*
X52721653Y-40169400D02*
X52793082Y-40097971D01*
X53293082Y-39240828D02*
X53864510Y-39240828D01*
X53507367Y-38740828D02*
X53507367Y-40026542D01*
X53507367Y-40026542D02*
X53578796Y-40169400D01*
X53578796Y-40169400D02*
X53721653Y-40240828D01*
X53721653Y-40240828D02*
X53864510Y-40240828D01*
X54364510Y-39669400D02*
X55507368Y-39669400D01*
X16504510Y-26600828D02*
X16504510Y-25100828D01*
X17218796Y-25600828D02*
X17218796Y-26600828D01*
X17218796Y-25743685D02*
X17290225Y-25672257D01*
X17290225Y-25672257D02*
X17433082Y-25600828D01*
X17433082Y-25600828D02*
X17647368Y-25600828D01*
X17647368Y-25600828D02*
X17790225Y-25672257D01*
X17790225Y-25672257D02*
X17861654Y-25815114D01*
X17861654Y-25815114D02*
X17861654Y-26600828D01*
X18575939Y-26029400D02*
X19718797Y-26029400D01*
X19147368Y-26600828D02*
X19147368Y-25457971D01*
X48704510Y-25885114D02*
X48204510Y-25885114D01*
X48204510Y-26670828D02*
X48204510Y-25170828D01*
X48204510Y-25170828D02*
X48918796Y-25170828D01*
X49133082Y-26813685D02*
X50275939Y-26813685D01*
X50847367Y-26670828D02*
X50704510Y-26599400D01*
X50704510Y-26599400D02*
X50633081Y-26527971D01*
X50633081Y-26527971D02*
X50561653Y-26385114D01*
X50561653Y-26385114D02*
X50561653Y-25956542D01*
X50561653Y-25956542D02*
X50633081Y-25813685D01*
X50633081Y-25813685D02*
X50704510Y-25742257D01*
X50704510Y-25742257D02*
X50847367Y-25670828D01*
X50847367Y-25670828D02*
X51061653Y-25670828D01*
X51061653Y-25670828D02*
X51204510Y-25742257D01*
X51204510Y-25742257D02*
X51275939Y-25813685D01*
X51275939Y-25813685D02*
X51347367Y-25956542D01*
X51347367Y-25956542D02*
X51347367Y-26385114D01*
X51347367Y-26385114D02*
X51275939Y-26527971D01*
X51275939Y-26527971D02*
X51204510Y-26599400D01*
X51204510Y-26599400D02*
X51061653Y-26670828D01*
X51061653Y-26670828D02*
X50847367Y-26670828D01*
X52633082Y-25670828D02*
X52633082Y-26670828D01*
X51990224Y-25670828D02*
X51990224Y-26456542D01*
X51990224Y-26456542D02*
X52061653Y-26599400D01*
X52061653Y-26599400D02*
X52204510Y-26670828D01*
X52204510Y-26670828D02*
X52418796Y-26670828D01*
X52418796Y-26670828D02*
X52561653Y-26599400D01*
X52561653Y-26599400D02*
X52633082Y-26527971D01*
X53133082Y-25670828D02*
X53704510Y-25670828D01*
X53347367Y-25170828D02*
X53347367Y-26456542D01*
X53347367Y-26456542D02*
X53418796Y-26599400D01*
X53418796Y-26599400D02*
X53561653Y-26670828D01*
X53561653Y-26670828D02*
X53704510Y-26670828D01*
X54204510Y-26099400D02*
X55347368Y-26099400D01*
X54775939Y-26670828D02*
X54775939Y-25527971D01*
D10*
X18376666Y-33354819D02*
X18376666Y-34069104D01*
X18376666Y-34069104D02*
X18329047Y-34211961D01*
X18329047Y-34211961D02*
X18233809Y-34307200D01*
X18233809Y-34307200D02*
X18090952Y-34354819D01*
X18090952Y-34354819D02*
X17995714Y-34354819D01*
X18757619Y-33354819D02*
X19376666Y-33354819D01*
X19376666Y-33354819D02*
X19043333Y-33735771D01*
X19043333Y-33735771D02*
X19186190Y-33735771D01*
X19186190Y-33735771D02*
X19281428Y-33783390D01*
X19281428Y-33783390D02*
X19329047Y-33831009D01*
X19329047Y-33831009D02*
X19376666Y-33926247D01*
X19376666Y-33926247D02*
X19376666Y-34164342D01*
X19376666Y-34164342D02*
X19329047Y-34259580D01*
X19329047Y-34259580D02*
X19281428Y-34307200D01*
X19281428Y-34307200D02*
X19186190Y-34354819D01*
X19186190Y-34354819D02*
X18900476Y-34354819D01*
X18900476Y-34354819D02*
X18805238Y-34307200D01*
X18805238Y-34307200D02*
X18757619Y-34259580D01*
X20528095Y-34224819D02*
X21099523Y-34224819D01*
X20813809Y-35224819D02*
X20813809Y-34224819D01*
X21432857Y-35224819D02*
X21432857Y-34224819D01*
X21432857Y-34224819D02*
X21813809Y-34224819D01*
X21813809Y-34224819D02*
X21909047Y-34272438D01*
X21909047Y-34272438D02*
X21956666Y-34320057D01*
X21956666Y-34320057D02*
X22004285Y-34415295D01*
X22004285Y-34415295D02*
X22004285Y-34558152D01*
X22004285Y-34558152D02*
X21956666Y-34653390D01*
X21956666Y-34653390D02*
X21909047Y-34701009D01*
X21909047Y-34701009D02*
X21813809Y-34748628D01*
X21813809Y-34748628D02*
X21432857Y-34748628D01*
X22385238Y-34320057D02*
X22432857Y-34272438D01*
X22432857Y-34272438D02*
X22528095Y-34224819D01*
X22528095Y-34224819D02*
X22766190Y-34224819D01*
X22766190Y-34224819D02*
X22861428Y-34272438D01*
X22861428Y-34272438D02*
X22909047Y-34320057D01*
X22909047Y-34320057D02*
X22956666Y-34415295D01*
X22956666Y-34415295D02*
X22956666Y-34510533D01*
X22956666Y-34510533D02*
X22909047Y-34653390D01*
X22909047Y-34653390D02*
X22337619Y-35224819D01*
X22337619Y-35224819D02*
X22956666Y-35224819D01*
X33333333Y-35954819D02*
X33000000Y-35478628D01*
X32761905Y-35954819D02*
X32761905Y-34954819D01*
X32761905Y-34954819D02*
X33142857Y-34954819D01*
X33142857Y-34954819D02*
X33238095Y-35002438D01*
X33238095Y-35002438D02*
X33285714Y-35050057D01*
X33285714Y-35050057D02*
X33333333Y-35145295D01*
X33333333Y-35145295D02*
X33333333Y-35288152D01*
X33333333Y-35288152D02*
X33285714Y-35383390D01*
X33285714Y-35383390D02*
X33238095Y-35431009D01*
X33238095Y-35431009D02*
X33142857Y-35478628D01*
X33142857Y-35478628D02*
X32761905Y-35478628D01*
X34190476Y-35288152D02*
X34190476Y-35954819D01*
X33952381Y-34907200D02*
X33714286Y-35621485D01*
X33714286Y-35621485D02*
X34333333Y-35621485D01*
X46659580Y-20726666D02*
X46707200Y-20774285D01*
X46707200Y-20774285D02*
X46754819Y-20917142D01*
X46754819Y-20917142D02*
X46754819Y-21012380D01*
X46754819Y-21012380D02*
X46707200Y-21155237D01*
X46707200Y-21155237D02*
X46611961Y-21250475D01*
X46611961Y-21250475D02*
X46516723Y-21298094D01*
X46516723Y-21298094D02*
X46326247Y-21345713D01*
X46326247Y-21345713D02*
X46183390Y-21345713D01*
X46183390Y-21345713D02*
X45992914Y-21298094D01*
X45992914Y-21298094D02*
X45897676Y-21250475D01*
X45897676Y-21250475D02*
X45802438Y-21155237D01*
X45802438Y-21155237D02*
X45754819Y-21012380D01*
X45754819Y-21012380D02*
X45754819Y-20917142D01*
X45754819Y-20917142D02*
X45802438Y-20774285D01*
X45802438Y-20774285D02*
X45850057Y-20726666D01*
X46754819Y-19774285D02*
X46754819Y-20345713D01*
X46754819Y-20059999D02*
X45754819Y-20059999D01*
X45754819Y-20059999D02*
X45897676Y-20155237D01*
X45897676Y-20155237D02*
X45992914Y-20250475D01*
X45992914Y-20250475D02*
X46040533Y-20345713D01*
X46219580Y-40576666D02*
X46267200Y-40624285D01*
X46267200Y-40624285D02*
X46314819Y-40767142D01*
X46314819Y-40767142D02*
X46314819Y-40862380D01*
X46314819Y-40862380D02*
X46267200Y-41005237D01*
X46267200Y-41005237D02*
X46171961Y-41100475D01*
X46171961Y-41100475D02*
X46076723Y-41148094D01*
X46076723Y-41148094D02*
X45886247Y-41195713D01*
X45886247Y-41195713D02*
X45743390Y-41195713D01*
X45743390Y-41195713D02*
X45552914Y-41148094D01*
X45552914Y-41148094D02*
X45457676Y-41100475D01*
X45457676Y-41100475D02*
X45362438Y-41005237D01*
X45362438Y-41005237D02*
X45314819Y-40862380D01*
X45314819Y-40862380D02*
X45314819Y-40767142D01*
X45314819Y-40767142D02*
X45362438Y-40624285D01*
X45362438Y-40624285D02*
X45410057Y-40576666D01*
X45410057Y-40195713D02*
X45362438Y-40148094D01*
X45362438Y-40148094D02*
X45314819Y-40052856D01*
X45314819Y-40052856D02*
X45314819Y-39814761D01*
X45314819Y-39814761D02*
X45362438Y-39719523D01*
X45362438Y-39719523D02*
X45410057Y-39671904D01*
X45410057Y-39671904D02*
X45505295Y-39624285D01*
X45505295Y-39624285D02*
X45600533Y-39624285D01*
X45600533Y-39624285D02*
X45743390Y-39671904D01*
X45743390Y-39671904D02*
X46314819Y-40243332D01*
X46314819Y-40243332D02*
X46314819Y-39624285D01*
X20078095Y-25434819D02*
X20649523Y-25434819D01*
X20363809Y-26434819D02*
X20363809Y-25434819D01*
X20982857Y-26434819D02*
X20982857Y-25434819D01*
X20982857Y-25434819D02*
X21363809Y-25434819D01*
X21363809Y-25434819D02*
X21459047Y-25482438D01*
X21459047Y-25482438D02*
X21506666Y-25530057D01*
X21506666Y-25530057D02*
X21554285Y-25625295D01*
X21554285Y-25625295D02*
X21554285Y-25768152D01*
X21554285Y-25768152D02*
X21506666Y-25863390D01*
X21506666Y-25863390D02*
X21459047Y-25911009D01*
X21459047Y-25911009D02*
X21363809Y-25958628D01*
X21363809Y-25958628D02*
X20982857Y-25958628D01*
X22506666Y-26434819D02*
X21935238Y-26434819D01*
X22220952Y-26434819D02*
X22220952Y-25434819D01*
X22220952Y-25434819D02*
X22125714Y-25577676D01*
X22125714Y-25577676D02*
X22030476Y-25672914D01*
X22030476Y-25672914D02*
X21935238Y-25720533D01*
X33333333Y-38424819D02*
X33000000Y-37948628D01*
X32761905Y-38424819D02*
X32761905Y-37424819D01*
X32761905Y-37424819D02*
X33142857Y-37424819D01*
X33142857Y-37424819D02*
X33238095Y-37472438D01*
X33238095Y-37472438D02*
X33285714Y-37520057D01*
X33285714Y-37520057D02*
X33333333Y-37615295D01*
X33333333Y-37615295D02*
X33333333Y-37758152D01*
X33333333Y-37758152D02*
X33285714Y-37853390D01*
X33285714Y-37853390D02*
X33238095Y-37901009D01*
X33238095Y-37901009D02*
X33142857Y-37948628D01*
X33142857Y-37948628D02*
X32761905Y-37948628D01*
X34190476Y-37424819D02*
X34000000Y-37424819D01*
X34000000Y-37424819D02*
X33904762Y-37472438D01*
X33904762Y-37472438D02*
X33857143Y-37520057D01*
X33857143Y-37520057D02*
X33761905Y-37662914D01*
X33761905Y-37662914D02*
X33714286Y-37853390D01*
X33714286Y-37853390D02*
X33714286Y-38234342D01*
X33714286Y-38234342D02*
X33761905Y-38329580D01*
X33761905Y-38329580D02*
X33809524Y-38377200D01*
X33809524Y-38377200D02*
X33904762Y-38424819D01*
X33904762Y-38424819D02*
X34095238Y-38424819D01*
X34095238Y-38424819D02*
X34190476Y-38377200D01*
X34190476Y-38377200D02*
X34238095Y-38329580D01*
X34238095Y-38329580D02*
X34285714Y-38234342D01*
X34285714Y-38234342D02*
X34285714Y-37996247D01*
X34285714Y-37996247D02*
X34238095Y-37901009D01*
X34238095Y-37901009D02*
X34190476Y-37853390D01*
X34190476Y-37853390D02*
X34095238Y-37805771D01*
X34095238Y-37805771D02*
X33904762Y-37805771D01*
X33904762Y-37805771D02*
X33809524Y-37853390D01*
X33809524Y-37853390D02*
X33761905Y-37901009D01*
X33761905Y-37901009D02*
X33714286Y-37996247D01*
X32212931Y-35666666D02*
X32260551Y-35714285D01*
X32260551Y-35714285D02*
X32308170Y-35857142D01*
X32308170Y-35857142D02*
X32308170Y-35952380D01*
X32308170Y-35952380D02*
X32260551Y-36095237D01*
X32260551Y-36095237D02*
X32165312Y-36190475D01*
X32165312Y-36190475D02*
X32070074Y-36238094D01*
X32070074Y-36238094D02*
X31879598Y-36285713D01*
X31879598Y-36285713D02*
X31736741Y-36285713D01*
X31736741Y-36285713D02*
X31546265Y-36238094D01*
X31546265Y-36238094D02*
X31451027Y-36190475D01*
X31451027Y-36190475D02*
X31355789Y-36095237D01*
X31355789Y-36095237D02*
X31308170Y-35952380D01*
X31308170Y-35952380D02*
X31308170Y-35857142D01*
X31308170Y-35857142D02*
X31355789Y-35714285D01*
X31355789Y-35714285D02*
X31403408Y-35666666D01*
X31308170Y-35333332D02*
X31308170Y-34714285D01*
X31308170Y-34714285D02*
X31689122Y-35047618D01*
X31689122Y-35047618D02*
X31689122Y-34904761D01*
X31689122Y-34904761D02*
X31736741Y-34809523D01*
X31736741Y-34809523D02*
X31784360Y-34761904D01*
X31784360Y-34761904D02*
X31879598Y-34714285D01*
X31879598Y-34714285D02*
X32117693Y-34714285D01*
X32117693Y-34714285D02*
X32212931Y-34761904D01*
X32212931Y-34761904D02*
X32260551Y-34809523D01*
X32260551Y-34809523D02*
X32308170Y-34904761D01*
X32308170Y-34904761D02*
X32308170Y-35190475D01*
X32308170Y-35190475D02*
X32260551Y-35285713D01*
X32260551Y-35285713D02*
X32212931Y-35333332D01*
X52238095Y-37454819D02*
X52809523Y-37454819D01*
X52523809Y-38454819D02*
X52523809Y-37454819D01*
X53142857Y-38454819D02*
X53142857Y-37454819D01*
X53142857Y-37454819D02*
X53523809Y-37454819D01*
X53523809Y-37454819D02*
X53619047Y-37502438D01*
X53619047Y-37502438D02*
X53666666Y-37550057D01*
X53666666Y-37550057D02*
X53714285Y-37645295D01*
X53714285Y-37645295D02*
X53714285Y-37788152D01*
X53714285Y-37788152D02*
X53666666Y-37883390D01*
X53666666Y-37883390D02*
X53619047Y-37931009D01*
X53619047Y-37931009D02*
X53523809Y-37978628D01*
X53523809Y-37978628D02*
X53142857Y-37978628D01*
X54571428Y-37788152D02*
X54571428Y-38454819D01*
X54333333Y-37407200D02*
X54095238Y-38121485D01*
X54095238Y-38121485D02*
X54714285Y-38121485D01*
X32833333Y-25954819D02*
X32500000Y-25478628D01*
X32261905Y-25954819D02*
X32261905Y-24954819D01*
X32261905Y-24954819D02*
X32642857Y-24954819D01*
X32642857Y-24954819D02*
X32738095Y-25002438D01*
X32738095Y-25002438D02*
X32785714Y-25050057D01*
X32785714Y-25050057D02*
X32833333Y-25145295D01*
X32833333Y-25145295D02*
X32833333Y-25288152D01*
X32833333Y-25288152D02*
X32785714Y-25383390D01*
X32785714Y-25383390D02*
X32738095Y-25431009D01*
X32738095Y-25431009D02*
X32642857Y-25478628D01*
X32642857Y-25478628D02*
X32261905Y-25478628D01*
X33166667Y-24954819D02*
X33785714Y-24954819D01*
X33785714Y-24954819D02*
X33452381Y-25335771D01*
X33452381Y-25335771D02*
X33595238Y-25335771D01*
X33595238Y-25335771D02*
X33690476Y-25383390D01*
X33690476Y-25383390D02*
X33738095Y-25431009D01*
X33738095Y-25431009D02*
X33785714Y-25526247D01*
X33785714Y-25526247D02*
X33785714Y-25764342D01*
X33785714Y-25764342D02*
X33738095Y-25859580D01*
X33738095Y-25859580D02*
X33690476Y-25907200D01*
X33690476Y-25907200D02*
X33595238Y-25954819D01*
X33595238Y-25954819D02*
X33309524Y-25954819D01*
X33309524Y-25954819D02*
X33214286Y-25907200D01*
X33214286Y-25907200D02*
X33166667Y-25859580D01*
X27603333Y-26544819D02*
X27270000Y-26068628D01*
X27031905Y-26544819D02*
X27031905Y-25544819D01*
X27031905Y-25544819D02*
X27412857Y-25544819D01*
X27412857Y-25544819D02*
X27508095Y-25592438D01*
X27508095Y-25592438D02*
X27555714Y-25640057D01*
X27555714Y-25640057D02*
X27603333Y-25735295D01*
X27603333Y-25735295D02*
X27603333Y-25878152D01*
X27603333Y-25878152D02*
X27555714Y-25973390D01*
X27555714Y-25973390D02*
X27508095Y-26021009D01*
X27508095Y-26021009D02*
X27412857Y-26068628D01*
X27412857Y-26068628D02*
X27031905Y-26068628D01*
X28555714Y-26544819D02*
X27984286Y-26544819D01*
X28270000Y-26544819D02*
X28270000Y-25544819D01*
X28270000Y-25544819D02*
X28174762Y-25687676D01*
X28174762Y-25687676D02*
X28079524Y-25782914D01*
X28079524Y-25782914D02*
X27984286Y-25830533D01*
X27593333Y-36474819D02*
X27260000Y-35998628D01*
X27021905Y-36474819D02*
X27021905Y-35474819D01*
X27021905Y-35474819D02*
X27402857Y-35474819D01*
X27402857Y-35474819D02*
X27498095Y-35522438D01*
X27498095Y-35522438D02*
X27545714Y-35570057D01*
X27545714Y-35570057D02*
X27593333Y-35665295D01*
X27593333Y-35665295D02*
X27593333Y-35808152D01*
X27593333Y-35808152D02*
X27545714Y-35903390D01*
X27545714Y-35903390D02*
X27498095Y-35951009D01*
X27498095Y-35951009D02*
X27402857Y-35998628D01*
X27402857Y-35998628D02*
X27021905Y-35998628D01*
X27974286Y-35570057D02*
X28021905Y-35522438D01*
X28021905Y-35522438D02*
X28117143Y-35474819D01*
X28117143Y-35474819D02*
X28355238Y-35474819D01*
X28355238Y-35474819D02*
X28450476Y-35522438D01*
X28450476Y-35522438D02*
X28498095Y-35570057D01*
X28498095Y-35570057D02*
X28545714Y-35665295D01*
X28545714Y-35665295D02*
X28545714Y-35760533D01*
X28545714Y-35760533D02*
X28498095Y-35903390D01*
X28498095Y-35903390D02*
X27926667Y-36474819D01*
X27926667Y-36474819D02*
X28545714Y-36474819D01*
X33163333Y-23374819D02*
X32830000Y-22898628D01*
X32591905Y-23374819D02*
X32591905Y-22374819D01*
X32591905Y-22374819D02*
X32972857Y-22374819D01*
X32972857Y-22374819D02*
X33068095Y-22422438D01*
X33068095Y-22422438D02*
X33115714Y-22470057D01*
X33115714Y-22470057D02*
X33163333Y-22565295D01*
X33163333Y-22565295D02*
X33163333Y-22708152D01*
X33163333Y-22708152D02*
X33115714Y-22803390D01*
X33115714Y-22803390D02*
X33068095Y-22851009D01*
X33068095Y-22851009D02*
X32972857Y-22898628D01*
X32972857Y-22898628D02*
X32591905Y-22898628D01*
X34068095Y-22374819D02*
X33591905Y-22374819D01*
X33591905Y-22374819D02*
X33544286Y-22851009D01*
X33544286Y-22851009D02*
X33591905Y-22803390D01*
X33591905Y-22803390D02*
X33687143Y-22755771D01*
X33687143Y-22755771D02*
X33925238Y-22755771D01*
X33925238Y-22755771D02*
X34020476Y-22803390D01*
X34020476Y-22803390D02*
X34068095Y-22851009D01*
X34068095Y-22851009D02*
X34115714Y-22946247D01*
X34115714Y-22946247D02*
X34115714Y-23184342D01*
X34115714Y-23184342D02*
X34068095Y-23279580D01*
X34068095Y-23279580D02*
X34020476Y-23327200D01*
X34020476Y-23327200D02*
X33925238Y-23374819D01*
X33925238Y-23374819D02*
X33687143Y-23374819D01*
X33687143Y-23374819D02*
X33591905Y-23327200D01*
X33591905Y-23327200D02*
X33544286Y-23279580D01*
D12*
%TO.C,U1*%
X41560000Y-29950000D02*
X40060000Y-29950000D01*
X41560000Y-29950000D02*
X43060000Y-29950000D01*
X41560000Y-33170000D02*
X40060000Y-33170000D01*
X41560000Y-33170000D02*
X43060000Y-33170000D01*
X39347500Y-30125000D02*
X39107500Y-29795000D01*
X39587500Y-29795000D01*
X39347500Y-30125000D01*
G36*
X39347500Y-30125000D02*
G01*
X39107500Y-29795000D01*
X39587500Y-29795000D01*
X39347500Y-30125000D01*
G37*
%TO.C,J3*%
X16000000Y-30060000D02*
X16000000Y-27410000D01*
X18760000Y-27410000D02*
X16000000Y-27410000D01*
X18760000Y-30060000D02*
X16000000Y-30060000D01*
X18760000Y-30060000D02*
X18760000Y-27410000D01*
X18760000Y-31330000D02*
X18760000Y-32710000D01*
X18760000Y-32710000D02*
X17380000Y-32710000D01*
%TO.C,TP2*%
X22590000Y-32270000D02*
G75*
G02*
X19590000Y-32270000I-1500000J0D01*
G01*
X19590000Y-32270000D02*
G75*
G02*
X22590000Y-32270000I1500000J0D01*
G01*
%TO.C,R4*%
X36570000Y-33540000D02*
X43110000Y-33540000D01*
X36570000Y-33870000D02*
X36570000Y-33540000D01*
X36570000Y-35950000D02*
X36570000Y-36280000D01*
X36570000Y-36280000D02*
X43110000Y-36280000D01*
X43110000Y-33540000D02*
X43110000Y-33870000D01*
X43110000Y-36280000D02*
X43110000Y-35950000D01*
%TO.C,J5*%
X36495000Y-30315000D02*
X37240000Y-30315000D01*
X36495000Y-31050000D02*
X36495000Y-30315000D01*
X36495000Y-31785000D02*
X36495000Y-31660000D01*
X36495000Y-31785000D02*
X36554435Y-31785000D01*
X36495000Y-31785000D02*
X37985000Y-31785000D01*
X37925565Y-31785000D02*
X37985000Y-31785000D01*
X37985000Y-31785000D02*
X37985000Y-31660000D01*
%TO.C,C1*%
X44910000Y-21630000D02*
X47650000Y-21630000D01*
X44910000Y-26870000D02*
X44910000Y-21630000D01*
X44910000Y-26870000D02*
X47650000Y-26870000D01*
X47650000Y-26870000D02*
X47650000Y-21630000D01*
%TO.C,C2*%
X44850000Y-33960000D02*
X44850000Y-39200000D01*
X47590000Y-33960000D02*
X44850000Y-33960000D01*
X47590000Y-33960000D02*
X47590000Y-39200000D01*
X47590000Y-39200000D02*
X44850000Y-39200000D01*
%TO.C,J6*%
X45275000Y-31555000D02*
X46020000Y-31555000D01*
X45275000Y-32290000D02*
X45275000Y-31555000D01*
X45275000Y-33025000D02*
X45275000Y-32900000D01*
X45275000Y-33025000D02*
X45334435Y-33025000D01*
X45275000Y-33025000D02*
X46765000Y-33025000D01*
X46705565Y-33025000D02*
X46765000Y-33025000D01*
X46765000Y-33025000D02*
X46765000Y-32900000D01*
D13*
%TO.C,U2*%
X62525000Y-30545000D02*
X65575000Y-30545000D01*
X62525000Y-33595000D02*
X65575000Y-33595000D01*
D14*
X60530000Y-30790000D02*
G75*
G02*
X60330000Y-30790000I-100000J0D01*
G01*
X60330000Y-30790000D02*
G75*
G02*
X60530000Y-30790000I100000J0D01*
G01*
D12*
%TO.C,TP1*%
X22500000Y-28440000D02*
G75*
G02*
X19500000Y-28440000I-1500000J0D01*
G01*
X19500000Y-28440000D02*
G75*
G02*
X22500000Y-28440000I1500000J0D01*
G01*
%TO.C,J7*%
X45215000Y-30280000D02*
X45215000Y-28900000D01*
X46595000Y-30280000D02*
X45215000Y-30280000D01*
X47865000Y-27520000D02*
X50515000Y-27520000D01*
X47865000Y-30280000D02*
X47865000Y-27520000D01*
X47865000Y-30280000D02*
X50515000Y-30280000D01*
X50515000Y-30280000D02*
X50515000Y-27520000D01*
%TO.C,R6*%
X36560000Y-36600000D02*
X43100000Y-36600000D01*
X36560000Y-36930000D02*
X36560000Y-36600000D01*
X36560000Y-39010000D02*
X36560000Y-39340000D01*
X36560000Y-39340000D02*
X43100000Y-39340000D01*
X43100000Y-36600000D02*
X43100000Y-36930000D01*
X43100000Y-39340000D02*
X43100000Y-39010000D01*
%TO.C,TP3*%
X51450000Y-33000000D02*
G75*
G02*
X48450000Y-33000000I-1500000J0D01*
G01*
X48450000Y-33000000D02*
G75*
G02*
X51450000Y-33000000I1500000J0D01*
G01*
%TO.C,C3*%
X33110000Y-27860000D02*
X35850000Y-27860000D01*
X33110000Y-33100000D02*
X33110000Y-27860000D01*
X33110000Y-33100000D02*
X35850000Y-33100000D01*
X35850000Y-33100000D02*
X35850000Y-27860000D01*
%TO.C,TP4*%
X51510000Y-36860000D02*
G75*
G02*
X48510000Y-36860000I-1500000J0D01*
G01*
X48510000Y-36860000D02*
G75*
G02*
X51510000Y-36860000I1500000J0D01*
G01*
%TO.C,R3*%
X36420000Y-24650000D02*
X42960000Y-24650000D01*
X36420000Y-24980000D02*
X36420000Y-24650000D01*
X36420000Y-27060000D02*
X36420000Y-27390000D01*
X36420000Y-27390000D02*
X42960000Y-27390000D01*
X42960000Y-24650000D02*
X42960000Y-24980000D01*
X42960000Y-27390000D02*
X42960000Y-27060000D01*
%TO.C,R1*%
X24500000Y-27090000D02*
X31040000Y-27090000D01*
X24500000Y-27420000D02*
X24500000Y-27090000D01*
X24500000Y-29500000D02*
X24500000Y-29830000D01*
X24500000Y-29830000D02*
X31040000Y-29830000D01*
X31040000Y-27090000D02*
X31040000Y-27420000D01*
X31040000Y-29830000D02*
X31040000Y-29500000D01*
%TO.C,R2*%
X24540000Y-30680000D02*
X31080000Y-30680000D01*
X24540000Y-31010000D02*
X24540000Y-30680000D01*
X24540000Y-33090000D02*
X24540000Y-33420000D01*
X24540000Y-33420000D02*
X31080000Y-33420000D01*
X31080000Y-30680000D02*
X31080000Y-31010000D01*
X31080000Y-33420000D02*
X31080000Y-33090000D01*
%TO.C,J1*%
X68630000Y-25690000D02*
X70010000Y-25690000D01*
X68630000Y-27070000D02*
X68630000Y-25690000D01*
X68630000Y-28340000D02*
X68630000Y-38610000D01*
X68630000Y-28340000D02*
X71390000Y-28340000D01*
X68630000Y-38610000D02*
X71390000Y-38610000D01*
X71390000Y-28340000D02*
X71390000Y-38610000D01*
%TO.C,J2*%
X55930000Y-35880000D02*
X55930000Y-25610000D01*
X58690000Y-25610000D02*
X55930000Y-25610000D01*
X58690000Y-35880000D02*
X55930000Y-35880000D01*
X58690000Y-35880000D02*
X58690000Y-25610000D01*
X58690000Y-37150000D02*
X58690000Y-38530000D01*
X58690000Y-38530000D02*
X57310000Y-38530000D01*
%TO.C,J4*%
X52180000Y-29595000D02*
X53560000Y-29595000D01*
X52180000Y-30975000D02*
X52180000Y-29595000D01*
X52180000Y-32245000D02*
X52180000Y-34895000D01*
X52180000Y-32245000D02*
X54940000Y-32245000D01*
X52180000Y-34895000D02*
X54940000Y-34895000D01*
X54940000Y-32245000D02*
X54940000Y-34895000D01*
%TO.C,R5*%
X36410000Y-21550000D02*
X42950000Y-21550000D01*
X36410000Y-21880000D02*
X36410000Y-21550000D01*
X36410000Y-23960000D02*
X36410000Y-24290000D01*
X36410000Y-24290000D02*
X42950000Y-24290000D01*
X42950000Y-21550000D02*
X42950000Y-21880000D01*
X42950000Y-24290000D02*
X42950000Y-23960000D01*
%TD*%
M02*
