%TF.GenerationSoftware,KiCad,Pcbnew,9.0.3*%
%TF.CreationDate,2025-11-11T16:23:08+05:30*%
%TF.ProjectId,Multi_daq,4d756c74-695f-4646-9171-2e6b69636164,rev?*%
%TF.SameCoordinates,Original*%
%TF.FileFunction,Soldermask,Top*%
%TF.FilePolarity,Negative*%
%FSLAX46Y46*%
G04 Gerber Fmt 4.6, Leading zero omitted, Abs format (unit mm)*
G04 Created by KiCad (PCBNEW 9.0.3) date 2025-11-11 16:23:08*
%MOMM*%
%LPD*%
G01*
G04 APERTURE LIST*
G04 Aperture macros list*
%AMRoundRect*
0 Rectangle with rounded corners*
0 $1 Rounding radius*
0 $2 $3 $4 $5 $6 $7 $8 $9 X,Y pos of 4 corners*
0 Add a 4 corners polygon primitive as box body*
4,1,4,$2,$3,$4,$5,$6,$7,$8,$9,$2,$3,0*
0 Add four circle primitives for the rounded corners*
1,1,$1+$1,$2,$3*
1,1,$1+$1,$4,$5*
1,1,$1+$1,$6,$7*
1,1,$1+$1,$8,$9*
0 Add four rect primitives between the rounded corners*
20,1,$1+$1,$2,$3,$4,$5,0*
20,1,$1+$1,$4,$5,$6,$7,0*
20,1,$1+$1,$6,$7,$8,$9,0*
20,1,$1+$1,$8,$9,$2,$3,0*%
G04 Aperture macros list end*
%ADD10C,1.600000*%
%ADD11C,2.000000*%
%ADD12RoundRect,0.060500X0.181500X-0.776500X0.181500X0.776500X-0.181500X0.776500X-0.181500X-0.776500X0*%
%ADD13O,1.511200X2.819200*%
%ADD14C,3.419200*%
%ADD15R,1.700000X1.700000*%
%ADD16C,1.700000*%
%ADD17RoundRect,0.102000X0.279400X-0.660400X0.279400X0.660400X-0.279400X0.660400X-0.279400X-0.660400X0*%
%ADD18RoundRect,0.100000X0.100000X-0.712500X0.100000X0.712500X-0.100000X0.712500X-0.100000X-0.712500X0*%
%ADD19RoundRect,0.150000X0.150000X-0.512500X0.150000X0.512500X-0.150000X0.512500X-0.150000X-0.512500X0*%
G04 APERTURE END LIST*
D10*
%TO.C,C2*%
X238750000Y-74500000D03*
X241250000Y-74500000D03*
%TD*%
%TO.C,R55*%
X217270000Y-71810000D03*
X217270000Y-64190000D03*
%TD*%
%TO.C,R12*%
X245000000Y-65380000D03*
X245000000Y-73000000D03*
%TD*%
%TO.C,R33*%
X100500000Y-71810000D03*
X100500000Y-64190000D03*
%TD*%
D11*
%TO.C,TP20*%
X182110000Y-60000000D03*
%TD*%
D12*
%TO.C,U21*%
X212270000Y-50650000D03*
X212770000Y-50650000D03*
X213270000Y-50650000D03*
X213770000Y-50650000D03*
X214270000Y-50650000D03*
X214270000Y-46350000D03*
X213770000Y-46350000D03*
X213270000Y-46350000D03*
X212770000Y-46350000D03*
X212270000Y-46350000D03*
%TD*%
D10*
%TO.C,R41*%
X66325000Y-61942800D03*
X66325000Y-54322800D03*
%TD*%
%TO.C,R18*%
X158000000Y-60810000D03*
X158000000Y-53190000D03*
%TD*%
%TO.C,R20*%
X125000000Y-59310000D03*
X125000000Y-51690000D03*
%TD*%
D13*
%TO.C,J6*%
X160920000Y-79920000D03*
X163460000Y-79920000D03*
D14*
X166000000Y-85000000D03*
X155840000Y-85000000D03*
%TD*%
D10*
%TO.C,R30*%
X142825000Y-61977800D03*
X142825000Y-69597800D03*
%TD*%
%TO.C,R2*%
X227770000Y-70310000D03*
X227770000Y-62690000D03*
%TD*%
%TO.C,C6*%
X173000000Y-70357800D03*
X170500000Y-70357800D03*
%TD*%
%TO.C,C32*%
X175750000Y-48500000D03*
X178250000Y-48500000D03*
%TD*%
%TO.C,R11*%
X252075000Y-65607500D03*
X252075000Y-73227500D03*
%TD*%
%TO.C,R67*%
X202500000Y-65690000D03*
X202500000Y-73310000D03*
%TD*%
%TO.C,R36*%
X101500000Y-61310000D03*
X101500000Y-53690000D03*
%TD*%
%TO.C,C18*%
X113000000Y-51000000D03*
X110500000Y-51000000D03*
%TD*%
D12*
%TO.C,U6*%
X128405000Y-50127800D03*
X128905000Y-50127800D03*
X129405000Y-50127800D03*
X129905000Y-50127800D03*
X130405000Y-50127800D03*
X130405000Y-45827800D03*
X129905000Y-45827800D03*
X129405000Y-45827800D03*
X128905000Y-45827800D03*
X128405000Y-45827800D03*
%TD*%
D11*
%TO.C,TP36*%
X264500000Y-53000000D03*
%TD*%
D10*
%TO.C,C28*%
X183750000Y-70500000D03*
X181250000Y-70500000D03*
%TD*%
%TO.C,R52*%
X272500000Y-56810000D03*
X272500000Y-49190000D03*
%TD*%
%TO.C,C13*%
X122250000Y-49000000D03*
X124750000Y-49000000D03*
%TD*%
D11*
%TO.C,TP4*%
X162000000Y-74500000D03*
%TD*%
%TO.C,TP13*%
X106000000Y-55000000D03*
%TD*%
D10*
%TO.C,R58*%
X178000000Y-69500000D03*
X178000000Y-61880000D03*
%TD*%
%TO.C,R71*%
X199500000Y-65690000D03*
X199500000Y-73310000D03*
%TD*%
%TO.C,C9*%
X130500000Y-68977800D03*
X128000000Y-68977800D03*
%TD*%
D15*
%TO.C,J5*%
X225460000Y-41500000D03*
D16*
X228000000Y-41500000D03*
X230540000Y-41500000D03*
X233080000Y-41500000D03*
X235620000Y-41500000D03*
X238160000Y-41500000D03*
%TD*%
D17*
%TO.C,U7*%
X141500000Y-74500000D03*
X142439800Y-74500000D03*
X143379600Y-74500000D03*
X143379600Y-71756800D03*
X141500000Y-71756800D03*
%TD*%
D10*
%TO.C,R53*%
X269500000Y-56810000D03*
X269500000Y-49190000D03*
%TD*%
%TO.C,R62*%
X178000000Y-59120000D03*
X178000000Y-51500000D03*
%TD*%
%TO.C,R59*%
X217500000Y-60120000D03*
X217500000Y-52500000D03*
%TD*%
%TO.C,R13*%
X166500000Y-70810000D03*
X166500000Y-63190000D03*
%TD*%
%TO.C,R16*%
X124905000Y-69810000D03*
X124905000Y-62190000D03*
%TD*%
%TO.C,C17*%
X75000000Y-70500000D03*
X72500000Y-70500000D03*
%TD*%
%TO.C,R68*%
X197990500Y-50021000D03*
X197990500Y-57641000D03*
%TD*%
%TO.C,R51*%
X256000000Y-57810000D03*
X256000000Y-50190000D03*
%TD*%
%TO.C,R4*%
X228000000Y-60310000D03*
X228000000Y-52690000D03*
%TD*%
D12*
%TO.C,U5*%
X160825000Y-52507800D03*
X161325000Y-52507800D03*
X161825000Y-52507800D03*
X162325000Y-52507800D03*
X162825000Y-52507800D03*
X162825000Y-48207800D03*
X162325000Y-48207800D03*
X161825000Y-48207800D03*
X161325000Y-48207800D03*
X160825000Y-48207800D03*
%TD*%
D11*
%TO.C,TP33*%
X267350000Y-73650000D03*
%TD*%
D10*
%TO.C,R22*%
X169500000Y-60310000D03*
X169500000Y-52690000D03*
%TD*%
%TO.C,R8*%
X245075000Y-48880000D03*
X245075000Y-56500000D03*
%TD*%
D11*
%TO.C,TP19*%
X213270000Y-54500000D03*
%TD*%
D10*
%TO.C,R64*%
X220500000Y-59810000D03*
X220500000Y-52190000D03*
%TD*%
%TO.C,R6*%
X239500000Y-60310000D03*
X239500000Y-52690000D03*
%TD*%
D18*
%TO.C,U4*%
X128430000Y-65090300D03*
X129080000Y-65090300D03*
X129730000Y-65090300D03*
X130380000Y-65090300D03*
X130380000Y-60865300D03*
X129730000Y-60865300D03*
X129080000Y-60865300D03*
X128430000Y-60865300D03*
%TD*%
D10*
%TO.C,R57*%
X208500000Y-70620000D03*
X208500000Y-63000000D03*
%TD*%
%TO.C,R3*%
X236500000Y-60310000D03*
X236500000Y-52690000D03*
%TD*%
D19*
%TO.C,U1*%
X247625000Y-61727500D03*
X248575000Y-61727500D03*
X249525000Y-61727500D03*
X249525000Y-59452500D03*
X247625000Y-59452500D03*
%TD*%
D13*
%TO.C,J7*%
X126825000Y-78897800D03*
X129365000Y-78897800D03*
D14*
X131905000Y-83977800D03*
X121745000Y-83977800D03*
%TD*%
D10*
%TO.C,R72*%
X196500000Y-65690000D03*
X196500000Y-73310000D03*
%TD*%
D13*
%TO.C,J10*%
X103785000Y-79357800D03*
X106325000Y-79357800D03*
D14*
X108865000Y-84437800D03*
X98705000Y-84437800D03*
%TD*%
D11*
%TO.C,TP18*%
X213270000Y-58500000D03*
%TD*%
D15*
%TO.C,J3*%
X257650000Y-41500000D03*
D16*
X260190000Y-41500000D03*
X262730000Y-41500000D03*
X265270000Y-41500000D03*
X267810000Y-41500000D03*
X270350000Y-41500000D03*
%TD*%
D10*
%TO.C,R39*%
X97500000Y-61310000D03*
X97500000Y-53690000D03*
%TD*%
%TO.C,C19*%
X98490000Y-49820000D03*
X100990000Y-49820000D03*
%TD*%
D11*
%TO.C,TP16*%
X211770000Y-74000000D03*
%TD*%
D10*
%TO.C,R40*%
X113000000Y-61620000D03*
X113000000Y-54000000D03*
%TD*%
%TO.C,R17*%
X166500000Y-60310000D03*
X166500000Y-52690000D03*
%TD*%
%TO.C,C23*%
X193250000Y-71500000D03*
X190750000Y-71500000D03*
%TD*%
%TO.C,R15*%
X157825000Y-70810000D03*
X157825000Y-63190000D03*
%TD*%
D13*
%TO.C,J14*%
X211965500Y-79035300D03*
X214505500Y-79035300D03*
D14*
X217045500Y-84115300D03*
X206885500Y-84115300D03*
%TD*%
D11*
%TO.C,TP10*%
X104325000Y-74357800D03*
%TD*%
D10*
%TO.C,R21*%
X155000000Y-60810000D03*
X155000000Y-53190000D03*
%TD*%
%TO.C,R32*%
X78325000Y-71500000D03*
X78325000Y-63880000D03*
%TD*%
%TO.C,R35*%
X110000000Y-61620000D03*
X110000000Y-54000000D03*
%TD*%
%TO.C,C3*%
X233270000Y-69949700D03*
X230770000Y-69949700D03*
%TD*%
%TO.C,C22*%
X223000000Y-70000000D03*
X220500000Y-70000000D03*
%TD*%
%TO.C,R29*%
X145825000Y-61977800D03*
X145825000Y-69597800D03*
%TD*%
%TO.C,C11*%
X155000000Y-50357800D03*
X157500000Y-50357800D03*
%TD*%
%TO.C,C31*%
X189250000Y-51000000D03*
X186750000Y-51000000D03*
%TD*%
D11*
%TO.C,TP1*%
X232270000Y-74949700D03*
%TD*%
%TO.C,TP35*%
X264500000Y-57000000D03*
%TD*%
D10*
%TO.C,R10*%
X248500000Y-65380000D03*
X248500000Y-73000000D03*
%TD*%
%TO.C,R69*%
X194720500Y-50021000D03*
X194720500Y-57641000D03*
%TD*%
D12*
%TO.C,U22*%
X181770000Y-51800000D03*
X182270000Y-51800000D03*
X182770000Y-51800000D03*
X183270000Y-51800000D03*
X183770000Y-51800000D03*
X183770000Y-47500000D03*
X183270000Y-47500000D03*
X182770000Y-47500000D03*
X182270000Y-47500000D03*
X181770000Y-47500000D03*
%TD*%
D10*
%TO.C,R24*%
X136500000Y-59810000D03*
X136500000Y-52190000D03*
%TD*%
%TO.C,C27*%
X257000000Y-47537500D03*
X259500000Y-47537500D03*
%TD*%
D11*
%TO.C,TP12*%
X105825000Y-58857800D03*
%TD*%
%TO.C,TP15*%
X74000000Y-55000000D03*
%TD*%
D10*
%TO.C,C15*%
X81575000Y-70632800D03*
X84075000Y-70632800D03*
%TD*%
%TO.C,R28*%
X148000000Y-44380000D03*
X148000000Y-52000000D03*
%TD*%
D18*
%TO.C,U12*%
X230525000Y-67112500D03*
X231175000Y-67112500D03*
X231825000Y-67112500D03*
X232475000Y-67112500D03*
X232475000Y-62887500D03*
X231825000Y-62887500D03*
X231175000Y-62887500D03*
X230525000Y-62887500D03*
%TD*%
D10*
%TO.C,R46*%
X94000000Y-47690000D03*
X94000000Y-55310000D03*
%TD*%
%TO.C,R5*%
X225000000Y-60310000D03*
X225000000Y-52690000D03*
%TD*%
D18*
%TO.C,U20*%
X181295000Y-67262500D03*
X181945000Y-67262500D03*
X182595000Y-67262500D03*
X183245000Y-67262500D03*
X183245000Y-63037500D03*
X182595000Y-63037500D03*
X181945000Y-63037500D03*
X181295000Y-63037500D03*
%TD*%
D10*
%TO.C,C1*%
X273250000Y-68500000D03*
X275750000Y-68500000D03*
%TD*%
D17*
%TO.C,U14*%
X88620400Y-78000000D03*
X89560200Y-78000000D03*
X90500000Y-78000000D03*
X90500000Y-75256800D03*
X88620400Y-75256800D03*
%TD*%
D10*
%TO.C,R42*%
X78500000Y-61442800D03*
X78500000Y-53822800D03*
%TD*%
%TO.C,R34*%
X69000000Y-72120000D03*
X69000000Y-64500000D03*
%TD*%
%TO.C,C8*%
X163500000Y-70500000D03*
X161000000Y-70500000D03*
%TD*%
%TO.C,R31*%
X109825000Y-72120000D03*
X109825000Y-64500000D03*
%TD*%
%TO.C,C24*%
X214000000Y-70000000D03*
X211500000Y-70000000D03*
%TD*%
D12*
%TO.C,U18*%
X263500000Y-49500000D03*
X264000000Y-49500000D03*
X264500000Y-49500000D03*
X265000000Y-49500000D03*
X265500000Y-49500000D03*
X265500000Y-45200000D03*
X265000000Y-45200000D03*
X264500000Y-45200000D03*
X264000000Y-45200000D03*
X263500000Y-45200000D03*
%TD*%
D13*
%TO.C,J11*%
X73285000Y-79168100D03*
X75825000Y-79168100D03*
D14*
X78365000Y-84248100D03*
X68205000Y-84248100D03*
%TD*%
D15*
%TO.C,J8*%
X121055000Y-41857800D03*
D16*
X123595000Y-41857800D03*
X126135000Y-41857800D03*
X128675000Y-41857800D03*
X131215000Y-41857800D03*
X133755000Y-41857800D03*
%TD*%
D10*
%TO.C,C20*%
X78575000Y-51132800D03*
X81075000Y-51132800D03*
%TD*%
D18*
%TO.C,U19*%
X211795000Y-66112500D03*
X212445000Y-66112500D03*
X213095000Y-66112500D03*
X213745000Y-66112500D03*
X213745000Y-61887500D03*
X213095000Y-61887500D03*
X212445000Y-61887500D03*
X211795000Y-61887500D03*
%TD*%
D11*
%TO.C,TP7*%
X161825000Y-56357800D03*
%TD*%
D10*
%TO.C,R48*%
X87220000Y-64140000D03*
X87220000Y-71760000D03*
%TD*%
%TO.C,R19*%
X133500000Y-59810000D03*
X133500000Y-52190000D03*
%TD*%
D13*
%TO.C,J4*%
X231770000Y-79570000D03*
X234310000Y-79570000D03*
D14*
X236850000Y-84650000D03*
X226690000Y-84650000D03*
%TD*%
D12*
%TO.C,U13*%
X72825000Y-50782800D03*
X73325000Y-50782800D03*
X73825000Y-50782800D03*
X74325000Y-50782800D03*
X74825000Y-50782800D03*
X74825000Y-46482800D03*
X74325000Y-46482800D03*
X73825000Y-46482800D03*
X73325000Y-46482800D03*
X72825000Y-46482800D03*
%TD*%
D10*
%TO.C,C16*%
X106500000Y-70500000D03*
X104000000Y-70500000D03*
%TD*%
%TO.C,R61*%
X186000000Y-61810000D03*
X186000000Y-54190000D03*
%TD*%
%TO.C,C12*%
X136000000Y-49477800D03*
X133500000Y-49477800D03*
%TD*%
D19*
%TO.C,U24*%
X198500000Y-62775000D03*
X199450000Y-62775000D03*
X200400000Y-62775000D03*
X200400000Y-60500000D03*
X198500000Y-60500000D03*
%TD*%
D11*
%TO.C,TP9*%
X129405000Y-53477800D03*
%TD*%
D10*
%TO.C,C29*%
X220250000Y-49500000D03*
X217750000Y-49500000D03*
%TD*%
D11*
%TO.C,TP11*%
X73500000Y-74132800D03*
%TD*%
D10*
%TO.C,R37*%
X81500000Y-61442800D03*
X81500000Y-53822800D03*
%TD*%
D13*
%TO.C,J2*%
X267325000Y-79277800D03*
X269865000Y-79277800D03*
D14*
X272405000Y-84357800D03*
X262245000Y-84357800D03*
%TD*%
D15*
%TO.C,J9*%
X96785000Y-42857800D03*
D16*
X99325000Y-42857800D03*
X101865000Y-42857800D03*
X104405000Y-42857800D03*
X106945000Y-42857800D03*
X109485000Y-42857800D03*
%TD*%
D10*
%TO.C,R44*%
X91000000Y-47547800D03*
X91000000Y-55167800D03*
%TD*%
%TO.C,R54*%
X259500000Y-57810000D03*
X259500000Y-50190000D03*
%TD*%
D18*
%TO.C,U9*%
X104850000Y-66470300D03*
X105500000Y-66470300D03*
X106150000Y-66470300D03*
X106800000Y-66470300D03*
X106800000Y-62245300D03*
X106150000Y-62245300D03*
X105500000Y-62245300D03*
X104850000Y-62245300D03*
%TD*%
D12*
%TO.C,U15*%
X231500000Y-49150000D03*
X232000000Y-49150000D03*
X232500000Y-49150000D03*
X233000000Y-49150000D03*
X233500000Y-49150000D03*
X233500000Y-44850000D03*
X233000000Y-44850000D03*
X232500000Y-44850000D03*
X232000000Y-44850000D03*
X231500000Y-44850000D03*
%TD*%
D10*
%TO.C,R49*%
X259500000Y-68310000D03*
X259500000Y-60690000D03*
%TD*%
D15*
%TO.C,J16*%
X174230000Y-41650000D03*
D16*
X176770000Y-41650000D03*
X179310000Y-41650000D03*
X181850000Y-41650000D03*
X184390000Y-41650000D03*
X186930000Y-41650000D03*
%TD*%
D11*
%TO.C,TP21*%
X182090000Y-56180000D03*
%TD*%
D10*
%TO.C,R9*%
X252500000Y-48880000D03*
X252500000Y-56500000D03*
%TD*%
%TO.C,R43*%
X93825000Y-64047800D03*
X93825000Y-71667800D03*
%TD*%
%TO.C,R26*%
X144500000Y-44380000D03*
X144500000Y-52000000D03*
%TD*%
%TO.C,C14*%
X113000000Y-71357800D03*
X115500000Y-71357800D03*
%TD*%
%TO.C,R63*%
X206000000Y-60120000D03*
X206000000Y-52500000D03*
%TD*%
%TO.C,R27*%
X140825000Y-44167800D03*
X140825000Y-51787800D03*
%TD*%
D18*
%TO.C,U10*%
X72850000Y-66245300D03*
X73500000Y-66245300D03*
X74150000Y-66245300D03*
X74800000Y-66245300D03*
X74800000Y-62020300D03*
X74150000Y-62020300D03*
X73500000Y-62020300D03*
X72850000Y-62020300D03*
%TD*%
D19*
%TO.C,U16*%
X89875000Y-59995300D03*
X90825000Y-59995300D03*
X91775000Y-59995300D03*
X91775000Y-57720300D03*
X89875000Y-57720300D03*
%TD*%
D10*
%TO.C,R38*%
X69325000Y-61942800D03*
X69325000Y-54322800D03*
%TD*%
%TO.C,C21*%
X66500000Y-51500000D03*
X69000000Y-51500000D03*
%TD*%
D11*
%TO.C,TP8*%
X129405000Y-57477800D03*
%TD*%
%TO.C,TP14*%
X73825000Y-59132800D03*
%TD*%
D15*
%TO.C,J13*%
X205920000Y-41000000D03*
D16*
X208460000Y-41000000D03*
X211000000Y-41000000D03*
X213540000Y-41000000D03*
X216080000Y-41000000D03*
X218620000Y-41000000D03*
%TD*%
D10*
%TO.C,C7*%
X139000000Y-69500000D03*
X136500000Y-69500000D03*
%TD*%
%TO.C,R7*%
X249000000Y-48880000D03*
X249000000Y-56500000D03*
%TD*%
%TO.C,R1*%
X236270000Y-70810000D03*
X236270000Y-63190000D03*
%TD*%
D11*
%TO.C,TP3*%
X231770000Y-53000000D03*
%TD*%
D10*
%TO.C,R25*%
X148825000Y-61977800D03*
X148825000Y-69597800D03*
%TD*%
%TO.C,R50*%
X269325000Y-68810000D03*
X269325000Y-61190000D03*
%TD*%
%TO.C,C4*%
X239000000Y-49949700D03*
X236500000Y-49949700D03*
%TD*%
D12*
%TO.C,U11*%
X104825000Y-51507800D03*
X105325000Y-51507800D03*
X105825000Y-51507800D03*
X106325000Y-51507800D03*
X106825000Y-51507800D03*
X106825000Y-47207800D03*
X106325000Y-47207800D03*
X105825000Y-47207800D03*
X105325000Y-47207800D03*
X104825000Y-47207800D03*
%TD*%
D10*
%TO.C,R70*%
X201220500Y-50211000D03*
X201220500Y-57831000D03*
%TD*%
D11*
%TO.C,TP6*%
X161825000Y-60357800D03*
%TD*%
D10*
%TO.C,C30*%
X206000000Y-49500000D03*
X208500000Y-49500000D03*
%TD*%
%TO.C,R60*%
X209000000Y-60120000D03*
X209000000Y-52500000D03*
%TD*%
%TO.C,R14*%
X133500000Y-70120000D03*
X133500000Y-62500000D03*
%TD*%
%TO.C,R23*%
X122000000Y-59310000D03*
X122000000Y-51690000D03*
%TD*%
D18*
%TO.C,U17*%
X263350000Y-65112500D03*
X264000000Y-65112500D03*
X264650000Y-65112500D03*
X265300000Y-65112500D03*
X265300000Y-60887500D03*
X264650000Y-60887500D03*
X264000000Y-60887500D03*
X263350000Y-60887500D03*
%TD*%
D11*
%TO.C,TP2*%
X231770000Y-58500000D03*
%TD*%
D18*
%TO.C,U3*%
X160850000Y-67470300D03*
X161500000Y-67470300D03*
X162150000Y-67470300D03*
X162800000Y-67470300D03*
X162800000Y-63245300D03*
X162150000Y-63245300D03*
X161500000Y-63245300D03*
X160850000Y-63245300D03*
%TD*%
D13*
%TO.C,J15*%
X180352500Y-79185300D03*
X182892500Y-79185300D03*
D14*
X185432500Y-84265300D03*
X175272500Y-84265300D03*
%TD*%
D17*
%TO.C,U23*%
X191120400Y-77500000D03*
X192060200Y-77500000D03*
X193000000Y-77500000D03*
X193000000Y-74756800D03*
X191120400Y-74756800D03*
%TD*%
D10*
%TO.C,C5*%
X225000000Y-50000000D03*
X227500000Y-50000000D03*
%TD*%
D11*
%TO.C,TP17*%
X181270000Y-74150000D03*
%TD*%
D15*
%TO.C,J1*%
X153205000Y-41357800D03*
D16*
X155745000Y-41357800D03*
X158285000Y-41357800D03*
X160825000Y-41357800D03*
X163365000Y-41357800D03*
X165905000Y-41357800D03*
%TD*%
D10*
%TO.C,R65*%
X174500000Y-59120000D03*
X174500000Y-51500000D03*
%TD*%
%TO.C,R45*%
X87825000Y-47547800D03*
X87825000Y-55167800D03*
%TD*%
D19*
%TO.C,U8*%
X144875000Y-57305300D03*
X145825000Y-57305300D03*
X146775000Y-57305300D03*
X146775000Y-55030300D03*
X144875000Y-55030300D03*
%TD*%
D15*
%TO.C,J12*%
X67150000Y-43000000D03*
D16*
X69690000Y-43000000D03*
X72230000Y-43000000D03*
X74770000Y-43000000D03*
X77310000Y-43000000D03*
X79850000Y-43000000D03*
%TD*%
D10*
%TO.C,C10*%
X169000000Y-49500000D03*
X166500000Y-49500000D03*
%TD*%
D11*
%TO.C,TP5*%
X127405000Y-73857800D03*
%TD*%
D10*
%TO.C,C26*%
X272000000Y-46500000D03*
X269500000Y-46500000D03*
%TD*%
%TO.C,C25*%
X265825000Y-68037500D03*
X263325000Y-68037500D03*
%TD*%
D17*
%TO.C,U2*%
X249575000Y-78470700D03*
X250514800Y-78470700D03*
X251454600Y-78470700D03*
X251454600Y-75727500D03*
X249575000Y-75727500D03*
%TD*%
D10*
%TO.C,R47*%
X90825000Y-64237800D03*
X90825000Y-71857800D03*
%TD*%
%TO.C,R56*%
X187500000Y-71810000D03*
X187500000Y-64190000D03*
%TD*%
%TO.C,R66*%
X189000000Y-61810000D03*
X189000000Y-54190000D03*
%TD*%
M02*
