%TF.GenerationSoftware,KiCad,Pcbnew,9.0.3*%
%TF.CreationDate,2025-11-11T16:23:08+05:30*%
%TF.ProjectId,Multi_daq,4d756c74-695f-4646-9171-2e6b69636164,rev?*%
%TF.SameCoordinates,Original*%
%TF.FileFunction,Legend,Top*%
%TF.FilePolarity,Positive*%
%FSLAX46Y46*%
G04 Gerber Fmt 4.6, Leading zero omitted, Abs format (unit mm)*
G04 Created by KiCad (PCBNEW 9.0.3) date 2025-11-11 16:23:08*
%MOMM*%
%LPD*%
G01*
G04 APERTURE LIST*
%ADD10C,0.100000*%
%ADD11C,0.120000*%
%ADD12C,0.127000*%
%ADD13C,0.200000*%
%ADD14C,0.152400*%
G04 APERTURE END LIST*
D10*
X149522931Y-35670038D02*
X149522931Y-33670038D01*
X149522931Y-33670038D02*
X150022931Y-35098609D01*
X150022931Y-35098609D02*
X150522931Y-33670038D01*
X150522931Y-33670038D02*
X150522931Y-35670038D01*
X151237217Y-33670038D02*
X151237217Y-35289085D01*
X151237217Y-35289085D02*
X151308646Y-35479561D01*
X151308646Y-35479561D02*
X151380075Y-35574800D01*
X151380075Y-35574800D02*
X151522932Y-35670038D01*
X151522932Y-35670038D02*
X151808646Y-35670038D01*
X151808646Y-35670038D02*
X151951503Y-35574800D01*
X151951503Y-35574800D02*
X152022932Y-35479561D01*
X152022932Y-35479561D02*
X152094360Y-35289085D01*
X152094360Y-35289085D02*
X152094360Y-33670038D01*
X153522932Y-35670038D02*
X152808646Y-35670038D01*
X152808646Y-35670038D02*
X152808646Y-33670038D01*
X153808647Y-33670038D02*
X154665790Y-33670038D01*
X154237218Y-35670038D02*
X154237218Y-33670038D01*
X155165789Y-35670038D02*
X155165789Y-33670038D01*
X155880075Y-34908133D02*
X157022933Y-34908133D01*
X158594361Y-35479561D02*
X158522933Y-35574800D01*
X158522933Y-35574800D02*
X158308647Y-35670038D01*
X158308647Y-35670038D02*
X158165790Y-35670038D01*
X158165790Y-35670038D02*
X157951504Y-35574800D01*
X157951504Y-35574800D02*
X157808647Y-35384323D01*
X157808647Y-35384323D02*
X157737218Y-35193847D01*
X157737218Y-35193847D02*
X157665790Y-34812895D01*
X157665790Y-34812895D02*
X157665790Y-34527180D01*
X157665790Y-34527180D02*
X157737218Y-34146228D01*
X157737218Y-34146228D02*
X157808647Y-33955752D01*
X157808647Y-33955752D02*
X157951504Y-33765276D01*
X157951504Y-33765276D02*
X158165790Y-33670038D01*
X158165790Y-33670038D02*
X158308647Y-33670038D01*
X158308647Y-33670038D02*
X158522933Y-33765276D01*
X158522933Y-33765276D02*
X158594361Y-33860514D01*
X159237218Y-35670038D02*
X159237218Y-33670038D01*
X159237218Y-34622419D02*
X160094361Y-34622419D01*
X160094361Y-35670038D02*
X160094361Y-33670038D01*
X160737219Y-35098609D02*
X161451505Y-35098609D01*
X160594362Y-35670038D02*
X161094362Y-33670038D01*
X161094362Y-33670038D02*
X161594362Y-35670038D01*
X162094361Y-35670038D02*
X162094361Y-33670038D01*
X162094361Y-33670038D02*
X162951504Y-35670038D01*
X162951504Y-35670038D02*
X162951504Y-33670038D01*
X163665790Y-35670038D02*
X163665790Y-33670038D01*
X163665790Y-33670038D02*
X164522933Y-35670038D01*
X164522933Y-35670038D02*
X164522933Y-33670038D01*
X165237219Y-34622419D02*
X165737219Y-34622419D01*
X165951505Y-35670038D02*
X165237219Y-35670038D01*
X165237219Y-35670038D02*
X165237219Y-33670038D01*
X165237219Y-33670038D02*
X165951505Y-33670038D01*
X167308648Y-35670038D02*
X166594362Y-35670038D01*
X166594362Y-35670038D02*
X166594362Y-33670038D01*
X167808648Y-34908133D02*
X168951506Y-34908133D01*
X169665791Y-35670038D02*
X169665791Y-33670038D01*
X169665791Y-33670038D02*
X170022934Y-33670038D01*
X170022934Y-33670038D02*
X170237220Y-33765276D01*
X170237220Y-33765276D02*
X170380077Y-33955752D01*
X170380077Y-33955752D02*
X170451506Y-34146228D01*
X170451506Y-34146228D02*
X170522934Y-34527180D01*
X170522934Y-34527180D02*
X170522934Y-34812895D01*
X170522934Y-34812895D02*
X170451506Y-35193847D01*
X170451506Y-35193847D02*
X170380077Y-35384323D01*
X170380077Y-35384323D02*
X170237220Y-35574800D01*
X170237220Y-35574800D02*
X170022934Y-35670038D01*
X170022934Y-35670038D02*
X169665791Y-35670038D01*
X171094363Y-35098609D02*
X171808649Y-35098609D01*
X170951506Y-35670038D02*
X171451506Y-33670038D01*
X171451506Y-33670038D02*
X171951506Y-35670038D01*
X173451505Y-35860514D02*
X173308648Y-35765276D01*
X173308648Y-35765276D02*
X173165791Y-35574800D01*
X173165791Y-35574800D02*
X172951505Y-35289085D01*
X172951505Y-35289085D02*
X172808648Y-35193847D01*
X172808648Y-35193847D02*
X172665791Y-35193847D01*
X172737220Y-35670038D02*
X172594363Y-35574800D01*
X172594363Y-35574800D02*
X172451505Y-35384323D01*
X172451505Y-35384323D02*
X172380077Y-35003371D01*
X172380077Y-35003371D02*
X172380077Y-34336704D01*
X172380077Y-34336704D02*
X172451505Y-33955752D01*
X172451505Y-33955752D02*
X172594363Y-33765276D01*
X172594363Y-33765276D02*
X172737220Y-33670038D01*
X172737220Y-33670038D02*
X173022934Y-33670038D01*
X173022934Y-33670038D02*
X173165791Y-33765276D01*
X173165791Y-33765276D02*
X173308648Y-33955752D01*
X173308648Y-33955752D02*
X173380077Y-34336704D01*
X173380077Y-34336704D02*
X173380077Y-35003371D01*
X173380077Y-35003371D02*
X173308648Y-35384323D01*
X173308648Y-35384323D02*
X173165791Y-35574800D01*
X173165791Y-35574800D02*
X173022934Y-35670038D01*
X173022934Y-35670038D02*
X172737220Y-35670038D01*
X174022934Y-34908133D02*
X175165792Y-34908133D01*
X175880077Y-35670038D02*
X175880077Y-33670038D01*
X175880077Y-33670038D02*
X176451506Y-33670038D01*
X176451506Y-33670038D02*
X176594363Y-33765276D01*
X176594363Y-33765276D02*
X176665792Y-33860514D01*
X176665792Y-33860514D02*
X176737220Y-34050990D01*
X176737220Y-34050990D02*
X176737220Y-34336704D01*
X176737220Y-34336704D02*
X176665792Y-34527180D01*
X176665792Y-34527180D02*
X176594363Y-34622419D01*
X176594363Y-34622419D02*
X176451506Y-34717657D01*
X176451506Y-34717657D02*
X175880077Y-34717657D01*
X178237220Y-35670038D02*
X177737220Y-34717657D01*
X177380077Y-35670038D02*
X177380077Y-33670038D01*
X177380077Y-33670038D02*
X177951506Y-33670038D01*
X177951506Y-33670038D02*
X178094363Y-33765276D01*
X178094363Y-33765276D02*
X178165792Y-33860514D01*
X178165792Y-33860514D02*
X178237220Y-34050990D01*
X178237220Y-34050990D02*
X178237220Y-34336704D01*
X178237220Y-34336704D02*
X178165792Y-34527180D01*
X178165792Y-34527180D02*
X178094363Y-34622419D01*
X178094363Y-34622419D02*
X177951506Y-34717657D01*
X177951506Y-34717657D02*
X177380077Y-34717657D01*
X179165792Y-33670038D02*
X179451506Y-33670038D01*
X179451506Y-33670038D02*
X179594363Y-33765276D01*
X179594363Y-33765276D02*
X179737220Y-33955752D01*
X179737220Y-33955752D02*
X179808649Y-34336704D01*
X179808649Y-34336704D02*
X179808649Y-35003371D01*
X179808649Y-35003371D02*
X179737220Y-35384323D01*
X179737220Y-35384323D02*
X179594363Y-35574800D01*
X179594363Y-35574800D02*
X179451506Y-35670038D01*
X179451506Y-35670038D02*
X179165792Y-35670038D01*
X179165792Y-35670038D02*
X179022935Y-35574800D01*
X179022935Y-35574800D02*
X178880077Y-35384323D01*
X178880077Y-35384323D02*
X178808649Y-35003371D01*
X178808649Y-35003371D02*
X178808649Y-34336704D01*
X178808649Y-34336704D02*
X178880077Y-33955752D01*
X178880077Y-33955752D02*
X179022935Y-33765276D01*
X179022935Y-33765276D02*
X179165792Y-33670038D01*
X180237221Y-33670038D02*
X181094364Y-33670038D01*
X180665792Y-35670038D02*
X180665792Y-33670038D01*
X181880078Y-33670038D02*
X182165792Y-33670038D01*
X182165792Y-33670038D02*
X182308649Y-33765276D01*
X182308649Y-33765276D02*
X182451506Y-33955752D01*
X182451506Y-33955752D02*
X182522935Y-34336704D01*
X182522935Y-34336704D02*
X182522935Y-35003371D01*
X182522935Y-35003371D02*
X182451506Y-35384323D01*
X182451506Y-35384323D02*
X182308649Y-35574800D01*
X182308649Y-35574800D02*
X182165792Y-35670038D01*
X182165792Y-35670038D02*
X181880078Y-35670038D01*
X181880078Y-35670038D02*
X181737221Y-35574800D01*
X181737221Y-35574800D02*
X181594363Y-35384323D01*
X181594363Y-35384323D02*
X181522935Y-35003371D01*
X181522935Y-35003371D02*
X181522935Y-34336704D01*
X181522935Y-34336704D02*
X181594363Y-33955752D01*
X181594363Y-33955752D02*
X181737221Y-33765276D01*
X181737221Y-33765276D02*
X181880078Y-33670038D01*
X182951507Y-33670038D02*
X183808650Y-33670038D01*
X183380078Y-35670038D02*
X183380078Y-33670038D01*
X184594364Y-34717657D02*
X184594364Y-35670038D01*
X184094364Y-33670038D02*
X184594364Y-34717657D01*
X184594364Y-34717657D02*
X185094364Y-33670038D01*
X185594363Y-35670038D02*
X185594363Y-33670038D01*
X185594363Y-33670038D02*
X186165792Y-33670038D01*
X186165792Y-33670038D02*
X186308649Y-33765276D01*
X186308649Y-33765276D02*
X186380078Y-33860514D01*
X186380078Y-33860514D02*
X186451506Y-34050990D01*
X186451506Y-34050990D02*
X186451506Y-34336704D01*
X186451506Y-34336704D02*
X186380078Y-34527180D01*
X186380078Y-34527180D02*
X186308649Y-34622419D01*
X186308649Y-34622419D02*
X186165792Y-34717657D01*
X186165792Y-34717657D02*
X185594363Y-34717657D01*
X187094363Y-34622419D02*
X187594363Y-34622419D01*
X187808649Y-35670038D02*
X187094363Y-35670038D01*
X187094363Y-35670038D02*
X187094363Y-33670038D01*
X187094363Y-33670038D02*
X187808649Y-33670038D01*
X222576704Y-45893734D02*
X222576704Y-45417544D01*
X222862419Y-45988972D02*
X221862419Y-45655639D01*
X221862419Y-45655639D02*
X222862419Y-45322306D01*
X222862419Y-44988972D02*
X221862419Y-44988972D01*
X221862419Y-44988972D02*
X221862419Y-44750877D01*
X221862419Y-44750877D02*
X221910038Y-44608020D01*
X221910038Y-44608020D02*
X222005276Y-44512782D01*
X222005276Y-44512782D02*
X222100514Y-44465163D01*
X222100514Y-44465163D02*
X222290990Y-44417544D01*
X222290990Y-44417544D02*
X222433847Y-44417544D01*
X222433847Y-44417544D02*
X222624323Y-44465163D01*
X222624323Y-44465163D02*
X222719561Y-44512782D01*
X222719561Y-44512782D02*
X222814800Y-44608020D01*
X222814800Y-44608020D02*
X222862419Y-44750877D01*
X222862419Y-44750877D02*
X222862419Y-44988972D01*
X222767180Y-43417544D02*
X222814800Y-43465163D01*
X222814800Y-43465163D02*
X222862419Y-43608020D01*
X222862419Y-43608020D02*
X222862419Y-43703258D01*
X222862419Y-43703258D02*
X222814800Y-43846115D01*
X222814800Y-43846115D02*
X222719561Y-43941353D01*
X222719561Y-43941353D02*
X222624323Y-43988972D01*
X222624323Y-43988972D02*
X222433847Y-44036591D01*
X222433847Y-44036591D02*
X222290990Y-44036591D01*
X222290990Y-44036591D02*
X222100514Y-43988972D01*
X222100514Y-43988972D02*
X222005276Y-43941353D01*
X222005276Y-43941353D02*
X221910038Y-43846115D01*
X221910038Y-43846115D02*
X221862419Y-43703258D01*
X221862419Y-43703258D02*
X221862419Y-43608020D01*
X221862419Y-43608020D02*
X221910038Y-43465163D01*
X221910038Y-43465163D02*
X221957657Y-43417544D01*
X171396704Y-45783734D02*
X171396704Y-45307544D01*
X171682419Y-45878972D02*
X170682419Y-45545639D01*
X170682419Y-45545639D02*
X171682419Y-45212306D01*
X171682419Y-44878972D02*
X170682419Y-44878972D01*
X170682419Y-44878972D02*
X170682419Y-44640877D01*
X170682419Y-44640877D02*
X170730038Y-44498020D01*
X170730038Y-44498020D02*
X170825276Y-44402782D01*
X170825276Y-44402782D02*
X170920514Y-44355163D01*
X170920514Y-44355163D02*
X171110990Y-44307544D01*
X171110990Y-44307544D02*
X171253847Y-44307544D01*
X171253847Y-44307544D02*
X171444323Y-44355163D01*
X171444323Y-44355163D02*
X171539561Y-44402782D01*
X171539561Y-44402782D02*
X171634800Y-44498020D01*
X171634800Y-44498020D02*
X171682419Y-44640877D01*
X171682419Y-44640877D02*
X171682419Y-44878972D01*
X171587180Y-43307544D02*
X171634800Y-43355163D01*
X171634800Y-43355163D02*
X171682419Y-43498020D01*
X171682419Y-43498020D02*
X171682419Y-43593258D01*
X171682419Y-43593258D02*
X171634800Y-43736115D01*
X171634800Y-43736115D02*
X171539561Y-43831353D01*
X171539561Y-43831353D02*
X171444323Y-43878972D01*
X171444323Y-43878972D02*
X171253847Y-43926591D01*
X171253847Y-43926591D02*
X171110990Y-43926591D01*
X171110990Y-43926591D02*
X170920514Y-43878972D01*
X170920514Y-43878972D02*
X170825276Y-43831353D01*
X170825276Y-43831353D02*
X170730038Y-43736115D01*
X170730038Y-43736115D02*
X170682419Y-43593258D01*
X170682419Y-43593258D02*
X170682419Y-43498020D01*
X170682419Y-43498020D02*
X170730038Y-43355163D01*
X170730038Y-43355163D02*
X170777657Y-43307544D01*
X117656704Y-46993734D02*
X117656704Y-46517544D01*
X117942419Y-47088972D02*
X116942419Y-46755639D01*
X116942419Y-46755639D02*
X117942419Y-46422306D01*
X117942419Y-46088972D02*
X116942419Y-46088972D01*
X116942419Y-46088972D02*
X116942419Y-45850877D01*
X116942419Y-45850877D02*
X116990038Y-45708020D01*
X116990038Y-45708020D02*
X117085276Y-45612782D01*
X117085276Y-45612782D02*
X117180514Y-45565163D01*
X117180514Y-45565163D02*
X117370990Y-45517544D01*
X117370990Y-45517544D02*
X117513847Y-45517544D01*
X117513847Y-45517544D02*
X117704323Y-45565163D01*
X117704323Y-45565163D02*
X117799561Y-45612782D01*
X117799561Y-45612782D02*
X117894800Y-45708020D01*
X117894800Y-45708020D02*
X117942419Y-45850877D01*
X117942419Y-45850877D02*
X117942419Y-46088972D01*
X117847180Y-44517544D02*
X117894800Y-44565163D01*
X117894800Y-44565163D02*
X117942419Y-44708020D01*
X117942419Y-44708020D02*
X117942419Y-44803258D01*
X117942419Y-44803258D02*
X117894800Y-44946115D01*
X117894800Y-44946115D02*
X117799561Y-45041353D01*
X117799561Y-45041353D02*
X117704323Y-45088972D01*
X117704323Y-45088972D02*
X117513847Y-45136591D01*
X117513847Y-45136591D02*
X117370990Y-45136591D01*
X117370990Y-45136591D02*
X117180514Y-45088972D01*
X117180514Y-45088972D02*
X117085276Y-45041353D01*
X117085276Y-45041353D02*
X116990038Y-44946115D01*
X116990038Y-44946115D02*
X116942419Y-44803258D01*
X116942419Y-44803258D02*
X116942419Y-44708020D01*
X116942419Y-44708020D02*
X116990038Y-44565163D01*
X116990038Y-44565163D02*
X117037657Y-44517544D01*
X65436704Y-47983734D02*
X65436704Y-47507544D01*
X65722419Y-48078972D02*
X64722419Y-47745639D01*
X64722419Y-47745639D02*
X65722419Y-47412306D01*
X65722419Y-47078972D02*
X64722419Y-47078972D01*
X64722419Y-47078972D02*
X64722419Y-46840877D01*
X64722419Y-46840877D02*
X64770038Y-46698020D01*
X64770038Y-46698020D02*
X64865276Y-46602782D01*
X64865276Y-46602782D02*
X64960514Y-46555163D01*
X64960514Y-46555163D02*
X65150990Y-46507544D01*
X65150990Y-46507544D02*
X65293847Y-46507544D01*
X65293847Y-46507544D02*
X65484323Y-46555163D01*
X65484323Y-46555163D02*
X65579561Y-46602782D01*
X65579561Y-46602782D02*
X65674800Y-46698020D01*
X65674800Y-46698020D02*
X65722419Y-46840877D01*
X65722419Y-46840877D02*
X65722419Y-47078972D01*
X65627180Y-45507544D02*
X65674800Y-45555163D01*
X65674800Y-45555163D02*
X65722419Y-45698020D01*
X65722419Y-45698020D02*
X65722419Y-45793258D01*
X65722419Y-45793258D02*
X65674800Y-45936115D01*
X65674800Y-45936115D02*
X65579561Y-46031353D01*
X65579561Y-46031353D02*
X65484323Y-46078972D01*
X65484323Y-46078972D02*
X65293847Y-46126591D01*
X65293847Y-46126591D02*
X65150990Y-46126591D01*
X65150990Y-46126591D02*
X64960514Y-46078972D01*
X64960514Y-46078972D02*
X64865276Y-46031353D01*
X64865276Y-46031353D02*
X64770038Y-45936115D01*
X64770038Y-45936115D02*
X64722419Y-45793258D01*
X64722419Y-45793258D02*
X64722419Y-45698020D01*
X64722419Y-45698020D02*
X64770038Y-45555163D01*
X64770038Y-45555163D02*
X64817657Y-45507544D01*
X255088609Y-64782782D02*
X255088609Y-65116115D01*
X255612419Y-65116115D02*
X254612419Y-65116115D01*
X254612419Y-65116115D02*
X254612419Y-64639925D01*
X255612419Y-64258972D02*
X254612419Y-64258972D01*
X254612419Y-64258972D02*
X254612419Y-64020877D01*
X254612419Y-64020877D02*
X254660038Y-63878020D01*
X254660038Y-63878020D02*
X254755276Y-63782782D01*
X254755276Y-63782782D02*
X254850514Y-63735163D01*
X254850514Y-63735163D02*
X255040990Y-63687544D01*
X255040990Y-63687544D02*
X255183847Y-63687544D01*
X255183847Y-63687544D02*
X255374323Y-63735163D01*
X255374323Y-63735163D02*
X255469561Y-63782782D01*
X255469561Y-63782782D02*
X255564800Y-63878020D01*
X255564800Y-63878020D02*
X255612419Y-64020877D01*
X255612419Y-64020877D02*
X255612419Y-64258972D01*
X255326704Y-63306591D02*
X255326704Y-62830401D01*
X255612419Y-63401829D02*
X254612419Y-63068496D01*
X254612419Y-63068496D02*
X255612419Y-62735163D01*
X224278609Y-65112782D02*
X224278609Y-65446115D01*
X224802419Y-65446115D02*
X223802419Y-65446115D01*
X223802419Y-65446115D02*
X223802419Y-64969925D01*
X224802419Y-64588972D02*
X223802419Y-64588972D01*
X223802419Y-64588972D02*
X223802419Y-64350877D01*
X223802419Y-64350877D02*
X223850038Y-64208020D01*
X223850038Y-64208020D02*
X223945276Y-64112782D01*
X223945276Y-64112782D02*
X224040514Y-64065163D01*
X224040514Y-64065163D02*
X224230990Y-64017544D01*
X224230990Y-64017544D02*
X224373847Y-64017544D01*
X224373847Y-64017544D02*
X224564323Y-64065163D01*
X224564323Y-64065163D02*
X224659561Y-64112782D01*
X224659561Y-64112782D02*
X224754800Y-64208020D01*
X224754800Y-64208020D02*
X224802419Y-64350877D01*
X224802419Y-64350877D02*
X224802419Y-64588972D01*
X224516704Y-63636591D02*
X224516704Y-63160401D01*
X224802419Y-63731829D02*
X223802419Y-63398496D01*
X223802419Y-63398496D02*
X224802419Y-63065163D01*
X204898609Y-64682782D02*
X204898609Y-65016115D01*
X205422419Y-65016115D02*
X204422419Y-65016115D01*
X204422419Y-65016115D02*
X204422419Y-64539925D01*
X205422419Y-64158972D02*
X204422419Y-64158972D01*
X204422419Y-64158972D02*
X204422419Y-63920877D01*
X204422419Y-63920877D02*
X204470038Y-63778020D01*
X204470038Y-63778020D02*
X204565276Y-63682782D01*
X204565276Y-63682782D02*
X204660514Y-63635163D01*
X204660514Y-63635163D02*
X204850990Y-63587544D01*
X204850990Y-63587544D02*
X204993847Y-63587544D01*
X204993847Y-63587544D02*
X205184323Y-63635163D01*
X205184323Y-63635163D02*
X205279561Y-63682782D01*
X205279561Y-63682782D02*
X205374800Y-63778020D01*
X205374800Y-63778020D02*
X205422419Y-63920877D01*
X205422419Y-63920877D02*
X205422419Y-64158972D01*
X205136704Y-63206591D02*
X205136704Y-62730401D01*
X205422419Y-63301829D02*
X204422419Y-62968496D01*
X204422419Y-62968496D02*
X205422419Y-62635163D01*
X174448609Y-65622782D02*
X174448609Y-65956115D01*
X174972419Y-65956115D02*
X173972419Y-65956115D01*
X173972419Y-65956115D02*
X173972419Y-65479925D01*
X174972419Y-65098972D02*
X173972419Y-65098972D01*
X173972419Y-65098972D02*
X173972419Y-64860877D01*
X173972419Y-64860877D02*
X174020038Y-64718020D01*
X174020038Y-64718020D02*
X174115276Y-64622782D01*
X174115276Y-64622782D02*
X174210514Y-64575163D01*
X174210514Y-64575163D02*
X174400990Y-64527544D01*
X174400990Y-64527544D02*
X174543847Y-64527544D01*
X174543847Y-64527544D02*
X174734323Y-64575163D01*
X174734323Y-64575163D02*
X174829561Y-64622782D01*
X174829561Y-64622782D02*
X174924800Y-64718020D01*
X174924800Y-64718020D02*
X174972419Y-64860877D01*
X174972419Y-64860877D02*
X174972419Y-65098972D01*
X174686704Y-64146591D02*
X174686704Y-63670401D01*
X174972419Y-64241829D02*
X173972419Y-63908496D01*
X173972419Y-63908496D02*
X174972419Y-63575163D01*
X154558609Y-66712782D02*
X154558609Y-67046115D01*
X155082419Y-67046115D02*
X154082419Y-67046115D01*
X154082419Y-67046115D02*
X154082419Y-66569925D01*
X155082419Y-66188972D02*
X154082419Y-66188972D01*
X154082419Y-66188972D02*
X154082419Y-65950877D01*
X154082419Y-65950877D02*
X154130038Y-65808020D01*
X154130038Y-65808020D02*
X154225276Y-65712782D01*
X154225276Y-65712782D02*
X154320514Y-65665163D01*
X154320514Y-65665163D02*
X154510990Y-65617544D01*
X154510990Y-65617544D02*
X154653847Y-65617544D01*
X154653847Y-65617544D02*
X154844323Y-65665163D01*
X154844323Y-65665163D02*
X154939561Y-65712782D01*
X154939561Y-65712782D02*
X155034800Y-65808020D01*
X155034800Y-65808020D02*
X155082419Y-65950877D01*
X155082419Y-65950877D02*
X155082419Y-66188972D01*
X154796704Y-65236591D02*
X154796704Y-64760401D01*
X155082419Y-65331829D02*
X154082419Y-64998496D01*
X154082419Y-64998496D02*
X155082419Y-64665163D01*
X121858609Y-64992782D02*
X121858609Y-65326115D01*
X122382419Y-65326115D02*
X121382419Y-65326115D01*
X121382419Y-65326115D02*
X121382419Y-64849925D01*
X122382419Y-64468972D02*
X121382419Y-64468972D01*
X121382419Y-64468972D02*
X121382419Y-64230877D01*
X121382419Y-64230877D02*
X121430038Y-64088020D01*
X121430038Y-64088020D02*
X121525276Y-63992782D01*
X121525276Y-63992782D02*
X121620514Y-63945163D01*
X121620514Y-63945163D02*
X121810990Y-63897544D01*
X121810990Y-63897544D02*
X121953847Y-63897544D01*
X121953847Y-63897544D02*
X122144323Y-63945163D01*
X122144323Y-63945163D02*
X122239561Y-63992782D01*
X122239561Y-63992782D02*
X122334800Y-64088020D01*
X122334800Y-64088020D02*
X122382419Y-64230877D01*
X122382419Y-64230877D02*
X122382419Y-64468972D01*
X122096704Y-63516591D02*
X122096704Y-63040401D01*
X122382419Y-63611829D02*
X121382419Y-63278496D01*
X121382419Y-63278496D02*
X122382419Y-62945163D01*
X97628609Y-66352782D02*
X97628609Y-66686115D01*
X98152419Y-66686115D02*
X97152419Y-66686115D01*
X97152419Y-66686115D02*
X97152419Y-66209925D01*
X98152419Y-65828972D02*
X97152419Y-65828972D01*
X97152419Y-65828972D02*
X97152419Y-65590877D01*
X97152419Y-65590877D02*
X97200038Y-65448020D01*
X97200038Y-65448020D02*
X97295276Y-65352782D01*
X97295276Y-65352782D02*
X97390514Y-65305163D01*
X97390514Y-65305163D02*
X97580990Y-65257544D01*
X97580990Y-65257544D02*
X97723847Y-65257544D01*
X97723847Y-65257544D02*
X97914323Y-65305163D01*
X97914323Y-65305163D02*
X98009561Y-65352782D01*
X98009561Y-65352782D02*
X98104800Y-65448020D01*
X98104800Y-65448020D02*
X98152419Y-65590877D01*
X98152419Y-65590877D02*
X98152419Y-65828972D01*
X97866704Y-64876591D02*
X97866704Y-64400401D01*
X98152419Y-64971829D02*
X97152419Y-64638496D01*
X97152419Y-64638496D02*
X98152419Y-64305163D01*
X64618609Y-67672782D02*
X64618609Y-68006115D01*
X65142419Y-68006115D02*
X64142419Y-68006115D01*
X64142419Y-68006115D02*
X64142419Y-67529925D01*
X65142419Y-67148972D02*
X64142419Y-67148972D01*
X64142419Y-67148972D02*
X64142419Y-66910877D01*
X64142419Y-66910877D02*
X64190038Y-66768020D01*
X64190038Y-66768020D02*
X64285276Y-66672782D01*
X64285276Y-66672782D02*
X64380514Y-66625163D01*
X64380514Y-66625163D02*
X64570990Y-66577544D01*
X64570990Y-66577544D02*
X64713847Y-66577544D01*
X64713847Y-66577544D02*
X64904323Y-66625163D01*
X64904323Y-66625163D02*
X64999561Y-66672782D01*
X64999561Y-66672782D02*
X65094800Y-66768020D01*
X65094800Y-66768020D02*
X65142419Y-66910877D01*
X65142419Y-66910877D02*
X65142419Y-67148972D01*
X64856704Y-66196591D02*
X64856704Y-65720401D01*
X65142419Y-66291829D02*
X64142419Y-65958496D01*
X64142419Y-65958496D02*
X65142419Y-65625163D01*
X256815312Y-89087180D02*
X256767693Y-89134800D01*
X256767693Y-89134800D02*
X256624836Y-89182419D01*
X256624836Y-89182419D02*
X256529598Y-89182419D01*
X256529598Y-89182419D02*
X256386741Y-89134800D01*
X256386741Y-89134800D02*
X256291503Y-89039561D01*
X256291503Y-89039561D02*
X256243884Y-88944323D01*
X256243884Y-88944323D02*
X256196265Y-88753847D01*
X256196265Y-88753847D02*
X256196265Y-88610990D01*
X256196265Y-88610990D02*
X256243884Y-88420514D01*
X256243884Y-88420514D02*
X256291503Y-88325276D01*
X256291503Y-88325276D02*
X256386741Y-88230038D01*
X256386741Y-88230038D02*
X256529598Y-88182419D01*
X256529598Y-88182419D02*
X256624836Y-88182419D01*
X256624836Y-88182419D02*
X256767693Y-88230038D01*
X256767693Y-88230038D02*
X256815312Y-88277657D01*
X257243884Y-89182419D02*
X257243884Y-88182419D01*
X257243884Y-88658609D02*
X257815312Y-88658609D01*
X257815312Y-89182419D02*
X257815312Y-88182419D01*
X258434360Y-88610990D02*
X258339122Y-88563371D01*
X258339122Y-88563371D02*
X258291503Y-88515752D01*
X258291503Y-88515752D02*
X258243884Y-88420514D01*
X258243884Y-88420514D02*
X258243884Y-88372895D01*
X258243884Y-88372895D02*
X258291503Y-88277657D01*
X258291503Y-88277657D02*
X258339122Y-88230038D01*
X258339122Y-88230038D02*
X258434360Y-88182419D01*
X258434360Y-88182419D02*
X258624836Y-88182419D01*
X258624836Y-88182419D02*
X258720074Y-88230038D01*
X258720074Y-88230038D02*
X258767693Y-88277657D01*
X258767693Y-88277657D02*
X258815312Y-88372895D01*
X258815312Y-88372895D02*
X258815312Y-88420514D01*
X258815312Y-88420514D02*
X258767693Y-88515752D01*
X258767693Y-88515752D02*
X258720074Y-88563371D01*
X258720074Y-88563371D02*
X258624836Y-88610990D01*
X258624836Y-88610990D02*
X258434360Y-88610990D01*
X258434360Y-88610990D02*
X258339122Y-88658609D01*
X258339122Y-88658609D02*
X258291503Y-88706228D01*
X258291503Y-88706228D02*
X258243884Y-88801466D01*
X258243884Y-88801466D02*
X258243884Y-88991942D01*
X258243884Y-88991942D02*
X258291503Y-89087180D01*
X258291503Y-89087180D02*
X258339122Y-89134800D01*
X258339122Y-89134800D02*
X258434360Y-89182419D01*
X258434360Y-89182419D02*
X258624836Y-89182419D01*
X258624836Y-89182419D02*
X258720074Y-89134800D01*
X258720074Y-89134800D02*
X258767693Y-89087180D01*
X258767693Y-89087180D02*
X258815312Y-88991942D01*
X258815312Y-88991942D02*
X258815312Y-88801466D01*
X258815312Y-88801466D02*
X258767693Y-88706228D01*
X258767693Y-88706228D02*
X258720074Y-88658609D01*
X258720074Y-88658609D02*
X258624836Y-88610990D01*
X221625312Y-88477180D02*
X221577693Y-88524800D01*
X221577693Y-88524800D02*
X221434836Y-88572419D01*
X221434836Y-88572419D02*
X221339598Y-88572419D01*
X221339598Y-88572419D02*
X221196741Y-88524800D01*
X221196741Y-88524800D02*
X221101503Y-88429561D01*
X221101503Y-88429561D02*
X221053884Y-88334323D01*
X221053884Y-88334323D02*
X221006265Y-88143847D01*
X221006265Y-88143847D02*
X221006265Y-88000990D01*
X221006265Y-88000990D02*
X221053884Y-87810514D01*
X221053884Y-87810514D02*
X221101503Y-87715276D01*
X221101503Y-87715276D02*
X221196741Y-87620038D01*
X221196741Y-87620038D02*
X221339598Y-87572419D01*
X221339598Y-87572419D02*
X221434836Y-87572419D01*
X221434836Y-87572419D02*
X221577693Y-87620038D01*
X221577693Y-87620038D02*
X221625312Y-87667657D01*
X222053884Y-88572419D02*
X222053884Y-87572419D01*
X222053884Y-88048609D02*
X222625312Y-88048609D01*
X222625312Y-88572419D02*
X222625312Y-87572419D01*
X223006265Y-87572419D02*
X223672931Y-87572419D01*
X223672931Y-87572419D02*
X223244360Y-88572419D01*
X201345312Y-88517180D02*
X201297693Y-88564800D01*
X201297693Y-88564800D02*
X201154836Y-88612419D01*
X201154836Y-88612419D02*
X201059598Y-88612419D01*
X201059598Y-88612419D02*
X200916741Y-88564800D01*
X200916741Y-88564800D02*
X200821503Y-88469561D01*
X200821503Y-88469561D02*
X200773884Y-88374323D01*
X200773884Y-88374323D02*
X200726265Y-88183847D01*
X200726265Y-88183847D02*
X200726265Y-88040990D01*
X200726265Y-88040990D02*
X200773884Y-87850514D01*
X200773884Y-87850514D02*
X200821503Y-87755276D01*
X200821503Y-87755276D02*
X200916741Y-87660038D01*
X200916741Y-87660038D02*
X201059598Y-87612419D01*
X201059598Y-87612419D02*
X201154836Y-87612419D01*
X201154836Y-87612419D02*
X201297693Y-87660038D01*
X201297693Y-87660038D02*
X201345312Y-87707657D01*
X201773884Y-88612419D02*
X201773884Y-87612419D01*
X201773884Y-88088609D02*
X202345312Y-88088609D01*
X202345312Y-88612419D02*
X202345312Y-87612419D01*
X203250074Y-87612419D02*
X203059598Y-87612419D01*
X203059598Y-87612419D02*
X202964360Y-87660038D01*
X202964360Y-87660038D02*
X202916741Y-87707657D01*
X202916741Y-87707657D02*
X202821503Y-87850514D01*
X202821503Y-87850514D02*
X202773884Y-88040990D01*
X202773884Y-88040990D02*
X202773884Y-88421942D01*
X202773884Y-88421942D02*
X202821503Y-88517180D01*
X202821503Y-88517180D02*
X202869122Y-88564800D01*
X202869122Y-88564800D02*
X202964360Y-88612419D01*
X202964360Y-88612419D02*
X203154836Y-88612419D01*
X203154836Y-88612419D02*
X203250074Y-88564800D01*
X203250074Y-88564800D02*
X203297693Y-88517180D01*
X203297693Y-88517180D02*
X203345312Y-88421942D01*
X203345312Y-88421942D02*
X203345312Y-88183847D01*
X203345312Y-88183847D02*
X203297693Y-88088609D01*
X203297693Y-88088609D02*
X203250074Y-88040990D01*
X203250074Y-88040990D02*
X203154836Y-87993371D01*
X203154836Y-87993371D02*
X202964360Y-87993371D01*
X202964360Y-87993371D02*
X202869122Y-88040990D01*
X202869122Y-88040990D02*
X202821503Y-88088609D01*
X202821503Y-88088609D02*
X202773884Y-88183847D01*
X170435312Y-87907180D02*
X170387693Y-87954800D01*
X170387693Y-87954800D02*
X170244836Y-88002419D01*
X170244836Y-88002419D02*
X170149598Y-88002419D01*
X170149598Y-88002419D02*
X170006741Y-87954800D01*
X170006741Y-87954800D02*
X169911503Y-87859561D01*
X169911503Y-87859561D02*
X169863884Y-87764323D01*
X169863884Y-87764323D02*
X169816265Y-87573847D01*
X169816265Y-87573847D02*
X169816265Y-87430990D01*
X169816265Y-87430990D02*
X169863884Y-87240514D01*
X169863884Y-87240514D02*
X169911503Y-87145276D01*
X169911503Y-87145276D02*
X170006741Y-87050038D01*
X170006741Y-87050038D02*
X170149598Y-87002419D01*
X170149598Y-87002419D02*
X170244836Y-87002419D01*
X170244836Y-87002419D02*
X170387693Y-87050038D01*
X170387693Y-87050038D02*
X170435312Y-87097657D01*
X170863884Y-88002419D02*
X170863884Y-87002419D01*
X170863884Y-87478609D02*
X171435312Y-87478609D01*
X171435312Y-88002419D02*
X171435312Y-87002419D01*
X172387693Y-87002419D02*
X171911503Y-87002419D01*
X171911503Y-87002419D02*
X171863884Y-87478609D01*
X171863884Y-87478609D02*
X171911503Y-87430990D01*
X171911503Y-87430990D02*
X172006741Y-87383371D01*
X172006741Y-87383371D02*
X172244836Y-87383371D01*
X172244836Y-87383371D02*
X172340074Y-87430990D01*
X172340074Y-87430990D02*
X172387693Y-87478609D01*
X172387693Y-87478609D02*
X172435312Y-87573847D01*
X172435312Y-87573847D02*
X172435312Y-87811942D01*
X172435312Y-87811942D02*
X172387693Y-87907180D01*
X172387693Y-87907180D02*
X172340074Y-87954800D01*
X172340074Y-87954800D02*
X172244836Y-88002419D01*
X172244836Y-88002419D02*
X172006741Y-88002419D01*
X172006741Y-88002419D02*
X171911503Y-87954800D01*
X171911503Y-87954800D02*
X171863884Y-87907180D01*
X150145312Y-89537180D02*
X150097693Y-89584800D01*
X150097693Y-89584800D02*
X149954836Y-89632419D01*
X149954836Y-89632419D02*
X149859598Y-89632419D01*
X149859598Y-89632419D02*
X149716741Y-89584800D01*
X149716741Y-89584800D02*
X149621503Y-89489561D01*
X149621503Y-89489561D02*
X149573884Y-89394323D01*
X149573884Y-89394323D02*
X149526265Y-89203847D01*
X149526265Y-89203847D02*
X149526265Y-89060990D01*
X149526265Y-89060990D02*
X149573884Y-88870514D01*
X149573884Y-88870514D02*
X149621503Y-88775276D01*
X149621503Y-88775276D02*
X149716741Y-88680038D01*
X149716741Y-88680038D02*
X149859598Y-88632419D01*
X149859598Y-88632419D02*
X149954836Y-88632419D01*
X149954836Y-88632419D02*
X150097693Y-88680038D01*
X150097693Y-88680038D02*
X150145312Y-88727657D01*
X150573884Y-89632419D02*
X150573884Y-88632419D01*
X150573884Y-89108609D02*
X151145312Y-89108609D01*
X151145312Y-89632419D02*
X151145312Y-88632419D01*
X152050074Y-88965752D02*
X152050074Y-89632419D01*
X151811979Y-88584800D02*
X151573884Y-89299085D01*
X151573884Y-89299085D02*
X152192931Y-89299085D01*
X116785312Y-88517180D02*
X116737693Y-88564800D01*
X116737693Y-88564800D02*
X116594836Y-88612419D01*
X116594836Y-88612419D02*
X116499598Y-88612419D01*
X116499598Y-88612419D02*
X116356741Y-88564800D01*
X116356741Y-88564800D02*
X116261503Y-88469561D01*
X116261503Y-88469561D02*
X116213884Y-88374323D01*
X116213884Y-88374323D02*
X116166265Y-88183847D01*
X116166265Y-88183847D02*
X116166265Y-88040990D01*
X116166265Y-88040990D02*
X116213884Y-87850514D01*
X116213884Y-87850514D02*
X116261503Y-87755276D01*
X116261503Y-87755276D02*
X116356741Y-87660038D01*
X116356741Y-87660038D02*
X116499598Y-87612419D01*
X116499598Y-87612419D02*
X116594836Y-87612419D01*
X116594836Y-87612419D02*
X116737693Y-87660038D01*
X116737693Y-87660038D02*
X116785312Y-87707657D01*
X117213884Y-88612419D02*
X117213884Y-87612419D01*
X117213884Y-88088609D02*
X117785312Y-88088609D01*
X117785312Y-88612419D02*
X117785312Y-87612419D01*
X118166265Y-87612419D02*
X118785312Y-87612419D01*
X118785312Y-87612419D02*
X118451979Y-87993371D01*
X118451979Y-87993371D02*
X118594836Y-87993371D01*
X118594836Y-87993371D02*
X118690074Y-88040990D01*
X118690074Y-88040990D02*
X118737693Y-88088609D01*
X118737693Y-88088609D02*
X118785312Y-88183847D01*
X118785312Y-88183847D02*
X118785312Y-88421942D01*
X118785312Y-88421942D02*
X118737693Y-88517180D01*
X118737693Y-88517180D02*
X118690074Y-88564800D01*
X118690074Y-88564800D02*
X118594836Y-88612419D01*
X118594836Y-88612419D02*
X118309122Y-88612419D01*
X118309122Y-88612419D02*
X118213884Y-88564800D01*
X118213884Y-88564800D02*
X118166265Y-88517180D01*
X93385312Y-88517180D02*
X93337693Y-88564800D01*
X93337693Y-88564800D02*
X93194836Y-88612419D01*
X93194836Y-88612419D02*
X93099598Y-88612419D01*
X93099598Y-88612419D02*
X92956741Y-88564800D01*
X92956741Y-88564800D02*
X92861503Y-88469561D01*
X92861503Y-88469561D02*
X92813884Y-88374323D01*
X92813884Y-88374323D02*
X92766265Y-88183847D01*
X92766265Y-88183847D02*
X92766265Y-88040990D01*
X92766265Y-88040990D02*
X92813884Y-87850514D01*
X92813884Y-87850514D02*
X92861503Y-87755276D01*
X92861503Y-87755276D02*
X92956741Y-87660038D01*
X92956741Y-87660038D02*
X93099598Y-87612419D01*
X93099598Y-87612419D02*
X93194836Y-87612419D01*
X93194836Y-87612419D02*
X93337693Y-87660038D01*
X93337693Y-87660038D02*
X93385312Y-87707657D01*
X93813884Y-88612419D02*
X93813884Y-87612419D01*
X93813884Y-88088609D02*
X94385312Y-88088609D01*
X94385312Y-88612419D02*
X94385312Y-87612419D01*
X94813884Y-87707657D02*
X94861503Y-87660038D01*
X94861503Y-87660038D02*
X94956741Y-87612419D01*
X94956741Y-87612419D02*
X95194836Y-87612419D01*
X95194836Y-87612419D02*
X95290074Y-87660038D01*
X95290074Y-87660038D02*
X95337693Y-87707657D01*
X95337693Y-87707657D02*
X95385312Y-87802895D01*
X95385312Y-87802895D02*
X95385312Y-87898133D01*
X95385312Y-87898133D02*
X95337693Y-88040990D01*
X95337693Y-88040990D02*
X94766265Y-88612419D01*
X94766265Y-88612419D02*
X95385312Y-88612419D01*
X62895312Y-88287180D02*
X62847693Y-88334800D01*
X62847693Y-88334800D02*
X62704836Y-88382419D01*
X62704836Y-88382419D02*
X62609598Y-88382419D01*
X62609598Y-88382419D02*
X62466741Y-88334800D01*
X62466741Y-88334800D02*
X62371503Y-88239561D01*
X62371503Y-88239561D02*
X62323884Y-88144323D01*
X62323884Y-88144323D02*
X62276265Y-87953847D01*
X62276265Y-87953847D02*
X62276265Y-87810990D01*
X62276265Y-87810990D02*
X62323884Y-87620514D01*
X62323884Y-87620514D02*
X62371503Y-87525276D01*
X62371503Y-87525276D02*
X62466741Y-87430038D01*
X62466741Y-87430038D02*
X62609598Y-87382419D01*
X62609598Y-87382419D02*
X62704836Y-87382419D01*
X62704836Y-87382419D02*
X62847693Y-87430038D01*
X62847693Y-87430038D02*
X62895312Y-87477657D01*
X63323884Y-88382419D02*
X63323884Y-87382419D01*
X63323884Y-87858609D02*
X63895312Y-87858609D01*
X63895312Y-88382419D02*
X63895312Y-87382419D01*
X64895312Y-88382419D02*
X64323884Y-88382419D01*
X64609598Y-88382419D02*
X64609598Y-87382419D01*
X64609598Y-87382419D02*
X64514360Y-87525276D01*
X64514360Y-87525276D02*
X64419122Y-87620514D01*
X64419122Y-87620514D02*
X64323884Y-87668133D01*
X268151027Y-33922419D02*
X268484360Y-34922419D01*
X268484360Y-34922419D02*
X268817693Y-33922419D01*
X269531979Y-34874800D02*
X269436741Y-34922419D01*
X269436741Y-34922419D02*
X269246265Y-34922419D01*
X269246265Y-34922419D02*
X269151027Y-34874800D01*
X269151027Y-34874800D02*
X269103408Y-34779561D01*
X269103408Y-34779561D02*
X269103408Y-34398609D01*
X269103408Y-34398609D02*
X269151027Y-34303371D01*
X269151027Y-34303371D02*
X269246265Y-34255752D01*
X269246265Y-34255752D02*
X269436741Y-34255752D01*
X269436741Y-34255752D02*
X269531979Y-34303371D01*
X269531979Y-34303371D02*
X269579598Y-34398609D01*
X269579598Y-34398609D02*
X269579598Y-34493847D01*
X269579598Y-34493847D02*
X269103408Y-34589085D01*
X270008170Y-34922419D02*
X270008170Y-34255752D01*
X270008170Y-34446228D02*
X270055789Y-34350990D01*
X270055789Y-34350990D02*
X270103408Y-34303371D01*
X270103408Y-34303371D02*
X270198646Y-34255752D01*
X270198646Y-34255752D02*
X270293884Y-34255752D01*
X270579599Y-34874800D02*
X270674837Y-34922419D01*
X270674837Y-34922419D02*
X270865313Y-34922419D01*
X270865313Y-34922419D02*
X270960551Y-34874800D01*
X270960551Y-34874800D02*
X271008170Y-34779561D01*
X271008170Y-34779561D02*
X271008170Y-34731942D01*
X271008170Y-34731942D02*
X270960551Y-34636704D01*
X270960551Y-34636704D02*
X270865313Y-34589085D01*
X270865313Y-34589085D02*
X270722456Y-34589085D01*
X270722456Y-34589085D02*
X270627218Y-34541466D01*
X270627218Y-34541466D02*
X270579599Y-34446228D01*
X270579599Y-34446228D02*
X270579599Y-34398609D01*
X270579599Y-34398609D02*
X270627218Y-34303371D01*
X270627218Y-34303371D02*
X270722456Y-34255752D01*
X270722456Y-34255752D02*
X270865313Y-34255752D01*
X270865313Y-34255752D02*
X270960551Y-34303371D01*
X271436742Y-34922419D02*
X271436742Y-34255752D01*
X271436742Y-33922419D02*
X271389123Y-33970038D01*
X271389123Y-33970038D02*
X271436742Y-34017657D01*
X271436742Y-34017657D02*
X271484361Y-33970038D01*
X271484361Y-33970038D02*
X271436742Y-33922419D01*
X271436742Y-33922419D02*
X271436742Y-34017657D01*
X272055789Y-34922419D02*
X271960551Y-34874800D01*
X271960551Y-34874800D02*
X271912932Y-34827180D01*
X271912932Y-34827180D02*
X271865313Y-34731942D01*
X271865313Y-34731942D02*
X271865313Y-34446228D01*
X271865313Y-34446228D02*
X271912932Y-34350990D01*
X271912932Y-34350990D02*
X271960551Y-34303371D01*
X271960551Y-34303371D02*
X272055789Y-34255752D01*
X272055789Y-34255752D02*
X272198646Y-34255752D01*
X272198646Y-34255752D02*
X272293884Y-34303371D01*
X272293884Y-34303371D02*
X272341503Y-34350990D01*
X272341503Y-34350990D02*
X272389122Y-34446228D01*
X272389122Y-34446228D02*
X272389122Y-34731942D01*
X272389122Y-34731942D02*
X272341503Y-34827180D01*
X272341503Y-34827180D02*
X272293884Y-34874800D01*
X272293884Y-34874800D02*
X272198646Y-34922419D01*
X272198646Y-34922419D02*
X272055789Y-34922419D01*
X272817694Y-34255752D02*
X272817694Y-34922419D01*
X272817694Y-34350990D02*
X272865313Y-34303371D01*
X272865313Y-34303371D02*
X272960551Y-34255752D01*
X272960551Y-34255752D02*
X273103408Y-34255752D01*
X273103408Y-34255752D02*
X273198646Y-34303371D01*
X273198646Y-34303371D02*
X273246265Y-34398609D01*
X273246265Y-34398609D02*
X273246265Y-34922419D01*
X275008170Y-34922419D02*
X274436742Y-34922419D01*
X274722456Y-34922419D02*
X274722456Y-33922419D01*
X274722456Y-33922419D02*
X274627218Y-34065276D01*
X274627218Y-34065276D02*
X274531980Y-34160514D01*
X274531980Y-34160514D02*
X274436742Y-34208133D01*
D11*
%TO.C,C2*%
X237380000Y-73130000D02*
X242620000Y-73130000D01*
X237380000Y-75870000D02*
X237380000Y-73130000D01*
X242620000Y-73130000D02*
X242620000Y-75870000D01*
X242620000Y-75870000D02*
X237380000Y-75870000D01*
%TO.C,R55*%
X215900000Y-64730000D02*
X216230000Y-64730000D01*
X215900000Y-71270000D02*
X215900000Y-64730000D01*
X216230000Y-71270000D02*
X215900000Y-71270000D01*
X218310000Y-71270000D02*
X218640000Y-71270000D01*
X218640000Y-64730000D02*
X218310000Y-64730000D01*
X218640000Y-71270000D02*
X218640000Y-64730000D01*
%TO.C,R12*%
X243630000Y-65920000D02*
X243630000Y-72460000D01*
X243630000Y-72460000D02*
X243960000Y-72460000D01*
X243960000Y-65920000D02*
X243630000Y-65920000D01*
X246040000Y-65920000D02*
X246370000Y-65920000D01*
X246370000Y-65920000D02*
X246370000Y-72460000D01*
X246370000Y-72460000D02*
X246040000Y-72460000D01*
%TO.C,R33*%
X99130000Y-64730000D02*
X99460000Y-64730000D01*
X99130000Y-71270000D02*
X99130000Y-64730000D01*
X99460000Y-71270000D02*
X99130000Y-71270000D01*
X101540000Y-71270000D02*
X101870000Y-71270000D01*
X101870000Y-64730000D02*
X101540000Y-64730000D01*
X101870000Y-71270000D02*
X101870000Y-64730000D01*
%TO.C,TP20*%
X183610000Y-60000000D02*
G75*
G02*
X180610000Y-60000000I-1500000J0D01*
G01*
X180610000Y-60000000D02*
G75*
G02*
X183610000Y-60000000I1500000J0D01*
G01*
D12*
%TO.C,U21*%
X211745000Y-50025000D02*
X211745000Y-46975000D01*
X214795000Y-50025000D02*
X214795000Y-46975000D01*
D13*
X212090000Y-52120000D02*
G75*
G02*
X211890000Y-52120000I-100000J0D01*
G01*
X211890000Y-52120000D02*
G75*
G02*
X212090000Y-52120000I100000J0D01*
G01*
D11*
%TO.C,R41*%
X64955000Y-54862800D02*
X65285000Y-54862800D01*
X64955000Y-61402800D02*
X64955000Y-54862800D01*
X65285000Y-61402800D02*
X64955000Y-61402800D01*
X67365000Y-61402800D02*
X67695000Y-61402800D01*
X67695000Y-54862800D02*
X67365000Y-54862800D01*
X67695000Y-61402800D02*
X67695000Y-54862800D01*
%TO.C,R18*%
X156630000Y-53730000D02*
X156960000Y-53730000D01*
X156630000Y-60270000D02*
X156630000Y-53730000D01*
X156960000Y-60270000D02*
X156630000Y-60270000D01*
X159040000Y-60270000D02*
X159370000Y-60270000D01*
X159370000Y-53730000D02*
X159040000Y-53730000D01*
X159370000Y-60270000D02*
X159370000Y-53730000D01*
%TO.C,R20*%
X123630000Y-52230000D02*
X123960000Y-52230000D01*
X123630000Y-58770000D02*
X123630000Y-52230000D01*
X123960000Y-58770000D02*
X123630000Y-58770000D01*
X126040000Y-58770000D02*
X126370000Y-58770000D01*
X126370000Y-52230000D02*
X126040000Y-52230000D01*
X126370000Y-58770000D02*
X126370000Y-52230000D01*
D12*
%TO.C,J6*%
X153427000Y-76948200D02*
X153427000Y-90791200D01*
X153427000Y-90791200D02*
X168413000Y-90791200D01*
X168413000Y-76948200D02*
X153427000Y-76948200D01*
X168413000Y-90791200D02*
X168413000Y-76948200D01*
D11*
%TO.C,R30*%
X141455000Y-62517800D02*
X141455000Y-69057800D01*
X141455000Y-69057800D02*
X141785000Y-69057800D01*
X141785000Y-62517800D02*
X141455000Y-62517800D01*
X143865000Y-62517800D02*
X144195000Y-62517800D01*
X144195000Y-62517800D02*
X144195000Y-69057800D01*
X144195000Y-69057800D02*
X143865000Y-69057800D01*
%TO.C,R2*%
X226400000Y-63230000D02*
X226730000Y-63230000D01*
X226400000Y-69770000D02*
X226400000Y-63230000D01*
X226730000Y-69770000D02*
X226400000Y-69770000D01*
X228810000Y-69770000D02*
X229140000Y-69770000D01*
X229140000Y-63230000D02*
X228810000Y-63230000D01*
X229140000Y-69770000D02*
X229140000Y-63230000D01*
%TO.C,C6*%
X169130000Y-68987800D02*
X174370000Y-68987800D01*
X169130000Y-71727800D02*
X169130000Y-68987800D01*
X174370000Y-68987800D02*
X174370000Y-71727800D01*
X174370000Y-71727800D02*
X169130000Y-71727800D01*
%TO.C,C32*%
X174380000Y-47130000D02*
X179620000Y-47130000D01*
X174380000Y-49870000D02*
X174380000Y-47130000D01*
X179620000Y-47130000D02*
X179620000Y-49870000D01*
X179620000Y-49870000D02*
X174380000Y-49870000D01*
%TO.C,R11*%
X250705000Y-66147500D02*
X250705000Y-72687500D01*
X250705000Y-72687500D02*
X251035000Y-72687500D01*
X251035000Y-66147500D02*
X250705000Y-66147500D01*
X253115000Y-66147500D02*
X253445000Y-66147500D01*
X253445000Y-66147500D02*
X253445000Y-72687500D01*
X253445000Y-72687500D02*
X253115000Y-72687500D01*
%TO.C,R67*%
X201130000Y-66230000D02*
X201130000Y-72770000D01*
X201130000Y-72770000D02*
X201460000Y-72770000D01*
X201460000Y-66230000D02*
X201130000Y-66230000D01*
X203540000Y-66230000D02*
X203870000Y-66230000D01*
X203870000Y-66230000D02*
X203870000Y-72770000D01*
X203870000Y-72770000D02*
X203540000Y-72770000D01*
%TO.C,R36*%
X100130000Y-54230000D02*
X100460000Y-54230000D01*
X100130000Y-60770000D02*
X100130000Y-54230000D01*
X100460000Y-60770000D02*
X100130000Y-60770000D01*
X102540000Y-60770000D02*
X102870000Y-60770000D01*
X102870000Y-54230000D02*
X102540000Y-54230000D01*
X102870000Y-60770000D02*
X102870000Y-54230000D01*
%TO.C,C18*%
X109130000Y-49630000D02*
X114370000Y-49630000D01*
X109130000Y-52370000D02*
X109130000Y-49630000D01*
X114370000Y-49630000D02*
X114370000Y-52370000D01*
X114370000Y-52370000D02*
X109130000Y-52370000D01*
D12*
%TO.C,U6*%
X127880000Y-49502800D02*
X127880000Y-46452800D01*
X130930000Y-49502800D02*
X130930000Y-46452800D01*
D13*
X128225000Y-51597800D02*
G75*
G02*
X128025000Y-51597800I-100000J0D01*
G01*
X128025000Y-51597800D02*
G75*
G02*
X128225000Y-51597800I100000J0D01*
G01*
D11*
%TO.C,TP36*%
X266000000Y-53000000D02*
G75*
G02*
X263000000Y-53000000I-1500000J0D01*
G01*
X263000000Y-53000000D02*
G75*
G02*
X266000000Y-53000000I1500000J0D01*
G01*
%TO.C,C28*%
X179880000Y-69130000D02*
X185120000Y-69130000D01*
X179880000Y-71870000D02*
X179880000Y-69130000D01*
X185120000Y-69130000D02*
X185120000Y-71870000D01*
X185120000Y-71870000D02*
X179880000Y-71870000D01*
%TO.C,R52*%
X271130000Y-49730000D02*
X271460000Y-49730000D01*
X271130000Y-56270000D02*
X271130000Y-49730000D01*
X271460000Y-56270000D02*
X271130000Y-56270000D01*
X273540000Y-56270000D02*
X273870000Y-56270000D01*
X273870000Y-49730000D02*
X273540000Y-49730000D01*
X273870000Y-56270000D02*
X273870000Y-49730000D01*
%TO.C,C13*%
X120880000Y-47630000D02*
X126120000Y-47630000D01*
X120880000Y-50370000D02*
X120880000Y-47630000D01*
X126120000Y-47630000D02*
X126120000Y-50370000D01*
X126120000Y-50370000D02*
X120880000Y-50370000D01*
%TO.C,TP4*%
X163500000Y-74500000D02*
G75*
G02*
X160500000Y-74500000I-1500000J0D01*
G01*
X160500000Y-74500000D02*
G75*
G02*
X163500000Y-74500000I1500000J0D01*
G01*
%TO.C,TP13*%
X107500000Y-55000000D02*
G75*
G02*
X104500000Y-55000000I-1500000J0D01*
G01*
X104500000Y-55000000D02*
G75*
G02*
X107500000Y-55000000I1500000J0D01*
G01*
%TO.C,R58*%
X176630000Y-62420000D02*
X176960000Y-62420000D01*
X176630000Y-68960000D02*
X176630000Y-62420000D01*
X176960000Y-68960000D02*
X176630000Y-68960000D01*
X179040000Y-68960000D02*
X179370000Y-68960000D01*
X179370000Y-62420000D02*
X179040000Y-62420000D01*
X179370000Y-68960000D02*
X179370000Y-62420000D01*
%TO.C,R71*%
X198130000Y-66230000D02*
X198130000Y-72770000D01*
X198130000Y-72770000D02*
X198460000Y-72770000D01*
X198460000Y-66230000D02*
X198130000Y-66230000D01*
X200540000Y-66230000D02*
X200870000Y-66230000D01*
X200870000Y-66230000D02*
X200870000Y-72770000D01*
X200870000Y-72770000D02*
X200540000Y-72770000D01*
%TO.C,C9*%
X126630000Y-67607800D02*
X131870000Y-67607800D01*
X126630000Y-70347800D02*
X126630000Y-67607800D01*
X131870000Y-67607800D02*
X131870000Y-70347800D01*
X131870000Y-70347800D02*
X126630000Y-70347800D01*
%TO.C,J5*%
X224080000Y-42880000D02*
X224080000Y-41500000D01*
X225460000Y-42880000D02*
X224080000Y-42880000D01*
X226730000Y-40120000D02*
X239540000Y-40120000D01*
X226730000Y-42880000D02*
X226730000Y-40120000D01*
X226730000Y-42880000D02*
X239540000Y-42880000D01*
X239540000Y-42880000D02*
X239540000Y-40120000D01*
D14*
%TO.C,U7*%
X140890400Y-72493400D02*
X140890400Y-72823600D01*
X140890400Y-72823600D02*
X140890400Y-73433200D01*
X140890400Y-73433200D02*
X140890400Y-73763400D01*
X140890400Y-72823600D02*
G75*
G02*
X140890400Y-73433200I0J-304800D01*
G01*
D11*
%TO.C,R53*%
X268130000Y-49730000D02*
X268460000Y-49730000D01*
X268130000Y-56270000D02*
X268130000Y-49730000D01*
X268460000Y-56270000D02*
X268130000Y-56270000D01*
X270540000Y-56270000D02*
X270870000Y-56270000D01*
X270870000Y-49730000D02*
X270540000Y-49730000D01*
X270870000Y-56270000D02*
X270870000Y-49730000D01*
%TO.C,R62*%
X176630000Y-52040000D02*
X176960000Y-52040000D01*
X176630000Y-58580000D02*
X176630000Y-52040000D01*
X176960000Y-58580000D02*
X176630000Y-58580000D01*
X179040000Y-58580000D02*
X179370000Y-58580000D01*
X179370000Y-52040000D02*
X179040000Y-52040000D01*
X179370000Y-58580000D02*
X179370000Y-52040000D01*
%TO.C,R59*%
X216130000Y-53040000D02*
X216460000Y-53040000D01*
X216130000Y-59580000D02*
X216130000Y-53040000D01*
X216460000Y-59580000D02*
X216130000Y-59580000D01*
X218540000Y-59580000D02*
X218870000Y-59580000D01*
X218870000Y-53040000D02*
X218540000Y-53040000D01*
X218870000Y-59580000D02*
X218870000Y-53040000D01*
%TO.C,R13*%
X165130000Y-63730000D02*
X165460000Y-63730000D01*
X165130000Y-70270000D02*
X165130000Y-63730000D01*
X165460000Y-70270000D02*
X165130000Y-70270000D01*
X167540000Y-70270000D02*
X167870000Y-70270000D01*
X167870000Y-63730000D02*
X167540000Y-63730000D01*
X167870000Y-70270000D02*
X167870000Y-63730000D01*
%TO.C,R16*%
X123535000Y-62730000D02*
X123865000Y-62730000D01*
X123535000Y-69270000D02*
X123535000Y-62730000D01*
X123865000Y-69270000D02*
X123535000Y-69270000D01*
X125945000Y-69270000D02*
X126275000Y-69270000D01*
X126275000Y-62730000D02*
X125945000Y-62730000D01*
X126275000Y-69270000D02*
X126275000Y-62730000D01*
%TO.C,C17*%
X71130000Y-69130000D02*
X76370000Y-69130000D01*
X71130000Y-71870000D02*
X71130000Y-69130000D01*
X76370000Y-69130000D02*
X76370000Y-71870000D01*
X76370000Y-71870000D02*
X71130000Y-71870000D01*
%TO.C,R68*%
X196620500Y-50561000D02*
X196620500Y-57101000D01*
X196620500Y-57101000D02*
X196950500Y-57101000D01*
X196950500Y-50561000D02*
X196620500Y-50561000D01*
X199030500Y-50561000D02*
X199360500Y-50561000D01*
X199360500Y-50561000D02*
X199360500Y-57101000D01*
X199360500Y-57101000D02*
X199030500Y-57101000D01*
%TO.C,R51*%
X254630000Y-50730000D02*
X254960000Y-50730000D01*
X254630000Y-57270000D02*
X254630000Y-50730000D01*
X254960000Y-57270000D02*
X254630000Y-57270000D01*
X257040000Y-57270000D02*
X257370000Y-57270000D01*
X257370000Y-50730000D02*
X257040000Y-50730000D01*
X257370000Y-57270000D02*
X257370000Y-50730000D01*
%TO.C,R4*%
X226630000Y-53230000D02*
X226960000Y-53230000D01*
X226630000Y-59770000D02*
X226630000Y-53230000D01*
X226960000Y-59770000D02*
X226630000Y-59770000D01*
X229040000Y-59770000D02*
X229370000Y-59770000D01*
X229370000Y-53230000D02*
X229040000Y-53230000D01*
X229370000Y-59770000D02*
X229370000Y-53230000D01*
D12*
%TO.C,U5*%
X160300000Y-51882800D02*
X160300000Y-48832800D01*
X163350000Y-51882800D02*
X163350000Y-48832800D01*
D13*
X160645000Y-53977800D02*
G75*
G02*
X160445000Y-53977800I-100000J0D01*
G01*
X160445000Y-53977800D02*
G75*
G02*
X160645000Y-53977800I100000J0D01*
G01*
D11*
%TO.C,TP33*%
X268850000Y-73650000D02*
G75*
G02*
X265850000Y-73650000I-1500000J0D01*
G01*
X265850000Y-73650000D02*
G75*
G02*
X268850000Y-73650000I1500000J0D01*
G01*
%TO.C,R22*%
X168130000Y-53230000D02*
X168460000Y-53230000D01*
X168130000Y-59770000D02*
X168130000Y-53230000D01*
X168460000Y-59770000D02*
X168130000Y-59770000D01*
X170540000Y-59770000D02*
X170870000Y-59770000D01*
X170870000Y-53230000D02*
X170540000Y-53230000D01*
X170870000Y-59770000D02*
X170870000Y-53230000D01*
%TO.C,R8*%
X243705000Y-49420000D02*
X243705000Y-55960000D01*
X243705000Y-55960000D02*
X244035000Y-55960000D01*
X244035000Y-49420000D02*
X243705000Y-49420000D01*
X246115000Y-49420000D02*
X246445000Y-49420000D01*
X246445000Y-49420000D02*
X246445000Y-55960000D01*
X246445000Y-55960000D02*
X246115000Y-55960000D01*
%TO.C,TP19*%
X214770000Y-54500000D02*
G75*
G02*
X211770000Y-54500000I-1500000J0D01*
G01*
X211770000Y-54500000D02*
G75*
G02*
X214770000Y-54500000I1500000J0D01*
G01*
%TO.C,R64*%
X219130000Y-52730000D02*
X219460000Y-52730000D01*
X219130000Y-59270000D02*
X219130000Y-52730000D01*
X219460000Y-59270000D02*
X219130000Y-59270000D01*
X221540000Y-59270000D02*
X221870000Y-59270000D01*
X221870000Y-52730000D02*
X221540000Y-52730000D01*
X221870000Y-59270000D02*
X221870000Y-52730000D01*
%TO.C,R6*%
X238130000Y-53230000D02*
X238460000Y-53230000D01*
X238130000Y-59770000D02*
X238130000Y-53230000D01*
X238460000Y-59770000D02*
X238130000Y-59770000D01*
X240540000Y-59770000D02*
X240870000Y-59770000D01*
X240870000Y-53230000D02*
X240540000Y-53230000D01*
X240870000Y-59770000D02*
X240870000Y-53230000D01*
%TO.C,U4*%
X127795000Y-62977800D02*
X127795000Y-61477800D01*
X127795000Y-62977800D02*
X127795000Y-64477800D01*
X131015000Y-62977800D02*
X131015000Y-61477800D01*
X131015000Y-62977800D02*
X131015000Y-64477800D01*
X127970000Y-65190300D02*
X127640000Y-65430300D01*
X127640000Y-64950300D01*
X127970000Y-65190300D01*
G36*
X127970000Y-65190300D02*
G01*
X127640000Y-65430300D01*
X127640000Y-64950300D01*
X127970000Y-65190300D01*
G37*
%TO.C,R57*%
X207130000Y-63540000D02*
X207460000Y-63540000D01*
X207130000Y-70080000D02*
X207130000Y-63540000D01*
X207460000Y-70080000D02*
X207130000Y-70080000D01*
X209540000Y-70080000D02*
X209870000Y-70080000D01*
X209870000Y-63540000D02*
X209540000Y-63540000D01*
X209870000Y-70080000D02*
X209870000Y-63540000D01*
%TO.C,R3*%
X235130000Y-53230000D02*
X235460000Y-53230000D01*
X235130000Y-59770000D02*
X235130000Y-53230000D01*
X235460000Y-59770000D02*
X235130000Y-59770000D01*
X237540000Y-59770000D02*
X237870000Y-59770000D01*
X237870000Y-53230000D02*
X237540000Y-53230000D01*
X237870000Y-59770000D02*
X237870000Y-53230000D01*
%TO.C,U1*%
X247015000Y-60590000D02*
X247015000Y-59790000D01*
X247015000Y-60590000D02*
X247015000Y-61390000D01*
X250135000Y-60590000D02*
X250135000Y-59790000D01*
X250135000Y-60590000D02*
X250135000Y-61390000D01*
X247065000Y-61890000D02*
X246735000Y-62130000D01*
X246735000Y-61650000D01*
X247065000Y-61890000D01*
G36*
X247065000Y-61890000D02*
G01*
X246735000Y-62130000D01*
X246735000Y-61650000D01*
X247065000Y-61890000D01*
G37*
D12*
%TO.C,J7*%
X119332000Y-75926000D02*
X119332000Y-89769000D01*
X119332000Y-89769000D02*
X134318000Y-89769000D01*
X134318000Y-75926000D02*
X119332000Y-75926000D01*
X134318000Y-89769000D02*
X134318000Y-75926000D01*
D11*
%TO.C,R72*%
X195130000Y-66230000D02*
X195130000Y-72770000D01*
X195130000Y-72770000D02*
X195460000Y-72770000D01*
X195460000Y-66230000D02*
X195130000Y-66230000D01*
X197540000Y-66230000D02*
X197870000Y-66230000D01*
X197870000Y-66230000D02*
X197870000Y-72770000D01*
X197870000Y-72770000D02*
X197540000Y-72770000D01*
D12*
%TO.C,J10*%
X96292000Y-76386000D02*
X96292000Y-90229000D01*
X96292000Y-90229000D02*
X111278000Y-90229000D01*
X111278000Y-76386000D02*
X96292000Y-76386000D01*
X111278000Y-90229000D02*
X111278000Y-76386000D01*
D11*
%TO.C,TP18*%
X214770000Y-58500000D02*
G75*
G02*
X211770000Y-58500000I-1500000J0D01*
G01*
X211770000Y-58500000D02*
G75*
G02*
X214770000Y-58500000I1500000J0D01*
G01*
%TO.C,J3*%
X256270000Y-42880000D02*
X256270000Y-41500000D01*
X257650000Y-42880000D02*
X256270000Y-42880000D01*
X258920000Y-40120000D02*
X271730000Y-40120000D01*
X258920000Y-42880000D02*
X258920000Y-40120000D01*
X258920000Y-42880000D02*
X271730000Y-42880000D01*
X271730000Y-42880000D02*
X271730000Y-40120000D01*
%TO.C,R39*%
X96130000Y-54230000D02*
X96460000Y-54230000D01*
X96130000Y-60770000D02*
X96130000Y-54230000D01*
X96460000Y-60770000D02*
X96130000Y-60770000D01*
X98540000Y-60770000D02*
X98870000Y-60770000D01*
X98870000Y-54230000D02*
X98540000Y-54230000D01*
X98870000Y-60770000D02*
X98870000Y-54230000D01*
%TO.C,C19*%
X97120000Y-48450000D02*
X102360000Y-48450000D01*
X97120000Y-51190000D02*
X97120000Y-48450000D01*
X102360000Y-48450000D02*
X102360000Y-51190000D01*
X102360000Y-51190000D02*
X97120000Y-51190000D01*
%TO.C,TP16*%
X213270000Y-74000000D02*
G75*
G02*
X210270000Y-74000000I-1500000J0D01*
G01*
X210270000Y-74000000D02*
G75*
G02*
X213270000Y-74000000I1500000J0D01*
G01*
%TO.C,R40*%
X111630000Y-54540000D02*
X111960000Y-54540000D01*
X111630000Y-61080000D02*
X111630000Y-54540000D01*
X111960000Y-61080000D02*
X111630000Y-61080000D01*
X114040000Y-61080000D02*
X114370000Y-61080000D01*
X114370000Y-54540000D02*
X114040000Y-54540000D01*
X114370000Y-61080000D02*
X114370000Y-54540000D01*
%TO.C,R17*%
X165130000Y-53230000D02*
X165460000Y-53230000D01*
X165130000Y-59770000D02*
X165130000Y-53230000D01*
X165460000Y-59770000D02*
X165130000Y-59770000D01*
X167540000Y-59770000D02*
X167870000Y-59770000D01*
X167870000Y-53230000D02*
X167540000Y-53230000D01*
X167870000Y-59770000D02*
X167870000Y-53230000D01*
%TO.C,C23*%
X189380000Y-70130000D02*
X194620000Y-70130000D01*
X189380000Y-72870000D02*
X189380000Y-70130000D01*
X194620000Y-70130000D02*
X194620000Y-72870000D01*
X194620000Y-72870000D02*
X189380000Y-72870000D01*
%TO.C,R15*%
X156455000Y-63730000D02*
X156785000Y-63730000D01*
X156455000Y-70270000D02*
X156455000Y-63730000D01*
X156785000Y-70270000D02*
X156455000Y-70270000D01*
X158865000Y-70270000D02*
X159195000Y-70270000D01*
X159195000Y-63730000D02*
X158865000Y-63730000D01*
X159195000Y-70270000D02*
X159195000Y-63730000D01*
D12*
%TO.C,J14*%
X204472500Y-76063500D02*
X204472500Y-89906500D01*
X204472500Y-89906500D02*
X219458500Y-89906500D01*
X219458500Y-76063500D02*
X204472500Y-76063500D01*
X219458500Y-89906500D02*
X219458500Y-76063500D01*
D11*
%TO.C,TP10*%
X105825000Y-74357800D02*
G75*
G02*
X102825000Y-74357800I-1500000J0D01*
G01*
X102825000Y-74357800D02*
G75*
G02*
X105825000Y-74357800I1500000J0D01*
G01*
%TO.C,R21*%
X153630000Y-53730000D02*
X153960000Y-53730000D01*
X153630000Y-60270000D02*
X153630000Y-53730000D01*
X153960000Y-60270000D02*
X153630000Y-60270000D01*
X156040000Y-60270000D02*
X156370000Y-60270000D01*
X156370000Y-53730000D02*
X156040000Y-53730000D01*
X156370000Y-60270000D02*
X156370000Y-53730000D01*
%TO.C,R32*%
X76955000Y-64420000D02*
X77285000Y-64420000D01*
X76955000Y-70960000D02*
X76955000Y-64420000D01*
X77285000Y-70960000D02*
X76955000Y-70960000D01*
X79365000Y-70960000D02*
X79695000Y-70960000D01*
X79695000Y-64420000D02*
X79365000Y-64420000D01*
X79695000Y-70960000D02*
X79695000Y-64420000D01*
%TO.C,R35*%
X108630000Y-54540000D02*
X108960000Y-54540000D01*
X108630000Y-61080000D02*
X108630000Y-54540000D01*
X108960000Y-61080000D02*
X108630000Y-61080000D01*
X111040000Y-61080000D02*
X111370000Y-61080000D01*
X111370000Y-54540000D02*
X111040000Y-54540000D01*
X111370000Y-61080000D02*
X111370000Y-54540000D01*
%TO.C,C3*%
X229400000Y-68579700D02*
X234640000Y-68579700D01*
X229400000Y-71319700D02*
X229400000Y-68579700D01*
X234640000Y-68579700D02*
X234640000Y-71319700D01*
X234640000Y-71319700D02*
X229400000Y-71319700D01*
%TO.C,C22*%
X219130000Y-68630000D02*
X224370000Y-68630000D01*
X219130000Y-71370000D02*
X219130000Y-68630000D01*
X224370000Y-68630000D02*
X224370000Y-71370000D01*
X224370000Y-71370000D02*
X219130000Y-71370000D01*
%TO.C,R29*%
X144455000Y-62517800D02*
X144455000Y-69057800D01*
X144455000Y-69057800D02*
X144785000Y-69057800D01*
X144785000Y-62517800D02*
X144455000Y-62517800D01*
X146865000Y-62517800D02*
X147195000Y-62517800D01*
X147195000Y-62517800D02*
X147195000Y-69057800D01*
X147195000Y-69057800D02*
X146865000Y-69057800D01*
%TO.C,C11*%
X153630000Y-48987800D02*
X158870000Y-48987800D01*
X153630000Y-51727800D02*
X153630000Y-48987800D01*
X158870000Y-48987800D02*
X158870000Y-51727800D01*
X158870000Y-51727800D02*
X153630000Y-51727800D01*
%TO.C,C31*%
X185380000Y-49630000D02*
X190620000Y-49630000D01*
X185380000Y-52370000D02*
X185380000Y-49630000D01*
X190620000Y-49630000D02*
X190620000Y-52370000D01*
X190620000Y-52370000D02*
X185380000Y-52370000D01*
%TO.C,TP1*%
X233770000Y-74949700D02*
G75*
G02*
X230770000Y-74949700I-1500000J0D01*
G01*
X230770000Y-74949700D02*
G75*
G02*
X233770000Y-74949700I1500000J0D01*
G01*
%TO.C,TP35*%
X266000000Y-57000000D02*
G75*
G02*
X263000000Y-57000000I-1500000J0D01*
G01*
X263000000Y-57000000D02*
G75*
G02*
X266000000Y-57000000I1500000J0D01*
G01*
%TO.C,R10*%
X247130000Y-65920000D02*
X247130000Y-72460000D01*
X247130000Y-72460000D02*
X247460000Y-72460000D01*
X247460000Y-65920000D02*
X247130000Y-65920000D01*
X249540000Y-65920000D02*
X249870000Y-65920000D01*
X249870000Y-65920000D02*
X249870000Y-72460000D01*
X249870000Y-72460000D02*
X249540000Y-72460000D01*
%TO.C,R69*%
X193350500Y-50561000D02*
X193350500Y-57101000D01*
X193350500Y-57101000D02*
X193680500Y-57101000D01*
X193680500Y-50561000D02*
X193350500Y-50561000D01*
X195760500Y-50561000D02*
X196090500Y-50561000D01*
X196090500Y-50561000D02*
X196090500Y-57101000D01*
X196090500Y-57101000D02*
X195760500Y-57101000D01*
D12*
%TO.C,U22*%
X181245000Y-51175000D02*
X181245000Y-48125000D01*
X184295000Y-51175000D02*
X184295000Y-48125000D01*
D13*
X181590000Y-53270000D02*
G75*
G02*
X181390000Y-53270000I-100000J0D01*
G01*
X181390000Y-53270000D02*
G75*
G02*
X181590000Y-53270000I100000J0D01*
G01*
D11*
%TO.C,R24*%
X135130000Y-52730000D02*
X135460000Y-52730000D01*
X135130000Y-59270000D02*
X135130000Y-52730000D01*
X135460000Y-59270000D02*
X135130000Y-59270000D01*
X137540000Y-59270000D02*
X137870000Y-59270000D01*
X137870000Y-52730000D02*
X137540000Y-52730000D01*
X137870000Y-59270000D02*
X137870000Y-52730000D01*
%TO.C,C27*%
X255630000Y-46167500D02*
X260870000Y-46167500D01*
X255630000Y-48907500D02*
X255630000Y-46167500D01*
X260870000Y-46167500D02*
X260870000Y-48907500D01*
X260870000Y-48907500D02*
X255630000Y-48907500D01*
%TO.C,TP12*%
X107325000Y-58857800D02*
G75*
G02*
X104325000Y-58857800I-1500000J0D01*
G01*
X104325000Y-58857800D02*
G75*
G02*
X107325000Y-58857800I1500000J0D01*
G01*
%TO.C,TP15*%
X75500000Y-55000000D02*
G75*
G02*
X72500000Y-55000000I-1500000J0D01*
G01*
X72500000Y-55000000D02*
G75*
G02*
X75500000Y-55000000I1500000J0D01*
G01*
%TO.C,C15*%
X80205000Y-69262800D02*
X85445000Y-69262800D01*
X80205000Y-72002800D02*
X80205000Y-69262800D01*
X85445000Y-69262800D02*
X85445000Y-72002800D01*
X85445000Y-72002800D02*
X80205000Y-72002800D01*
%TO.C,R28*%
X146630000Y-44920000D02*
X146630000Y-51460000D01*
X146630000Y-51460000D02*
X146960000Y-51460000D01*
X146960000Y-44920000D02*
X146630000Y-44920000D01*
X149040000Y-44920000D02*
X149370000Y-44920000D01*
X149370000Y-44920000D02*
X149370000Y-51460000D01*
X149370000Y-51460000D02*
X149040000Y-51460000D01*
%TO.C,U12*%
X229890000Y-65000000D02*
X229890000Y-63500000D01*
X229890000Y-65000000D02*
X229890000Y-66500000D01*
X233110000Y-65000000D02*
X233110000Y-63500000D01*
X233110000Y-65000000D02*
X233110000Y-66500000D01*
X230065000Y-67212500D02*
X229735000Y-67452500D01*
X229735000Y-66972500D01*
X230065000Y-67212500D01*
G36*
X230065000Y-67212500D02*
G01*
X229735000Y-67452500D01*
X229735000Y-66972500D01*
X230065000Y-67212500D01*
G37*
%TO.C,R46*%
X92630000Y-48230000D02*
X92630000Y-54770000D01*
X92630000Y-54770000D02*
X92960000Y-54770000D01*
X92960000Y-48230000D02*
X92630000Y-48230000D01*
X95040000Y-48230000D02*
X95370000Y-48230000D01*
X95370000Y-48230000D02*
X95370000Y-54770000D01*
X95370000Y-54770000D02*
X95040000Y-54770000D01*
%TO.C,R5*%
X223630000Y-53230000D02*
X223960000Y-53230000D01*
X223630000Y-59770000D02*
X223630000Y-53230000D01*
X223960000Y-59770000D02*
X223630000Y-59770000D01*
X226040000Y-59770000D02*
X226370000Y-59770000D01*
X226370000Y-53230000D02*
X226040000Y-53230000D01*
X226370000Y-59770000D02*
X226370000Y-53230000D01*
%TO.C,U20*%
X180660000Y-65150000D02*
X180660000Y-63650000D01*
X180660000Y-65150000D02*
X180660000Y-66650000D01*
X183880000Y-65150000D02*
X183880000Y-63650000D01*
X183880000Y-65150000D02*
X183880000Y-66650000D01*
X180835000Y-67362500D02*
X180505000Y-67602500D01*
X180505000Y-67122500D01*
X180835000Y-67362500D01*
G36*
X180835000Y-67362500D02*
G01*
X180505000Y-67602500D01*
X180505000Y-67122500D01*
X180835000Y-67362500D01*
G37*
%TO.C,C1*%
X271880000Y-67130000D02*
X277120000Y-67130000D01*
X271880000Y-69870000D02*
X271880000Y-67130000D01*
X277120000Y-67130000D02*
X277120000Y-69870000D01*
X277120000Y-69870000D02*
X271880000Y-69870000D01*
D14*
%TO.C,U14*%
X88010800Y-75993400D02*
X88010800Y-76323600D01*
X88010800Y-76323600D02*
X88010800Y-76933200D01*
X88010800Y-76933200D02*
X88010800Y-77263400D01*
X88010800Y-76323600D02*
G75*
G02*
X88010800Y-76933200I0J-304800D01*
G01*
D11*
%TO.C,R42*%
X77130000Y-54362800D02*
X77460000Y-54362800D01*
X77130000Y-60902800D02*
X77130000Y-54362800D01*
X77460000Y-60902800D02*
X77130000Y-60902800D01*
X79540000Y-60902800D02*
X79870000Y-60902800D01*
X79870000Y-54362800D02*
X79540000Y-54362800D01*
X79870000Y-60902800D02*
X79870000Y-54362800D01*
%TO.C,R34*%
X67630000Y-65040000D02*
X67960000Y-65040000D01*
X67630000Y-71580000D02*
X67630000Y-65040000D01*
X67960000Y-71580000D02*
X67630000Y-71580000D01*
X70040000Y-71580000D02*
X70370000Y-71580000D01*
X70370000Y-65040000D02*
X70040000Y-65040000D01*
X70370000Y-71580000D02*
X70370000Y-65040000D01*
%TO.C,C8*%
X159630000Y-69130000D02*
X164870000Y-69130000D01*
X159630000Y-71870000D02*
X159630000Y-69130000D01*
X164870000Y-69130000D02*
X164870000Y-71870000D01*
X164870000Y-71870000D02*
X159630000Y-71870000D01*
%TO.C,R31*%
X108455000Y-65040000D02*
X108785000Y-65040000D01*
X108455000Y-71580000D02*
X108455000Y-65040000D01*
X108785000Y-71580000D02*
X108455000Y-71580000D01*
X110865000Y-71580000D02*
X111195000Y-71580000D01*
X111195000Y-65040000D02*
X110865000Y-65040000D01*
X111195000Y-71580000D02*
X111195000Y-65040000D01*
%TO.C,C24*%
X210130000Y-68630000D02*
X215370000Y-68630000D01*
X210130000Y-71370000D02*
X210130000Y-68630000D01*
X215370000Y-68630000D02*
X215370000Y-71370000D01*
X215370000Y-71370000D02*
X210130000Y-71370000D01*
D12*
%TO.C,U18*%
X262975000Y-48875000D02*
X262975000Y-45825000D01*
X266025000Y-48875000D02*
X266025000Y-45825000D01*
D13*
X263320000Y-50970000D02*
G75*
G02*
X263120000Y-50970000I-100000J0D01*
G01*
X263120000Y-50970000D02*
G75*
G02*
X263320000Y-50970000I100000J0D01*
G01*
D12*
%TO.C,J11*%
X65792000Y-76196300D02*
X65792000Y-90039300D01*
X65792000Y-90039300D02*
X80778000Y-90039300D01*
X80778000Y-76196300D02*
X65792000Y-76196300D01*
X80778000Y-90039300D02*
X80778000Y-76196300D01*
D11*
%TO.C,J8*%
X119675000Y-43237800D02*
X119675000Y-41857800D01*
X121055000Y-43237800D02*
X119675000Y-43237800D01*
X122325000Y-40477800D02*
X135135000Y-40477800D01*
X122325000Y-43237800D02*
X122325000Y-40477800D01*
X122325000Y-43237800D02*
X135135000Y-43237800D01*
X135135000Y-43237800D02*
X135135000Y-40477800D01*
%TO.C,C20*%
X77205000Y-49762800D02*
X82445000Y-49762800D01*
X77205000Y-52502800D02*
X77205000Y-49762800D01*
X82445000Y-49762800D02*
X82445000Y-52502800D01*
X82445000Y-52502800D02*
X77205000Y-52502800D01*
%TO.C,U19*%
X211160000Y-64000000D02*
X211160000Y-62500000D01*
X211160000Y-64000000D02*
X211160000Y-65500000D01*
X214380000Y-64000000D02*
X214380000Y-62500000D01*
X214380000Y-64000000D02*
X214380000Y-65500000D01*
X211335000Y-66212500D02*
X211005000Y-66452500D01*
X211005000Y-65972500D01*
X211335000Y-66212500D01*
G36*
X211335000Y-66212500D02*
G01*
X211005000Y-66452500D01*
X211005000Y-65972500D01*
X211335000Y-66212500D01*
G37*
%TO.C,TP7*%
X163325000Y-56357800D02*
G75*
G02*
X160325000Y-56357800I-1500000J0D01*
G01*
X160325000Y-56357800D02*
G75*
G02*
X163325000Y-56357800I1500000J0D01*
G01*
%TO.C,R48*%
X85850000Y-64680000D02*
X85850000Y-71220000D01*
X85850000Y-71220000D02*
X86180000Y-71220000D01*
X86180000Y-64680000D02*
X85850000Y-64680000D01*
X88260000Y-64680000D02*
X88590000Y-64680000D01*
X88590000Y-64680000D02*
X88590000Y-71220000D01*
X88590000Y-71220000D02*
X88260000Y-71220000D01*
%TO.C,R19*%
X132130000Y-52730000D02*
X132460000Y-52730000D01*
X132130000Y-59270000D02*
X132130000Y-52730000D01*
X132460000Y-59270000D02*
X132130000Y-59270000D01*
X134540000Y-59270000D02*
X134870000Y-59270000D01*
X134870000Y-52730000D02*
X134540000Y-52730000D01*
X134870000Y-59270000D02*
X134870000Y-52730000D01*
D12*
%TO.C,J4*%
X224277000Y-76598200D02*
X224277000Y-90441200D01*
X224277000Y-90441200D02*
X239263000Y-90441200D01*
X239263000Y-76598200D02*
X224277000Y-76598200D01*
X239263000Y-90441200D02*
X239263000Y-76598200D01*
%TO.C,U13*%
X72300000Y-50157800D02*
X72300000Y-47107800D01*
X75350000Y-50157800D02*
X75350000Y-47107800D01*
D13*
X72645000Y-52252800D02*
G75*
G02*
X72445000Y-52252800I-100000J0D01*
G01*
X72445000Y-52252800D02*
G75*
G02*
X72645000Y-52252800I100000J0D01*
G01*
D11*
%TO.C,C16*%
X102630000Y-69130000D02*
X107870000Y-69130000D01*
X102630000Y-71870000D02*
X102630000Y-69130000D01*
X107870000Y-69130000D02*
X107870000Y-71870000D01*
X107870000Y-71870000D02*
X102630000Y-71870000D01*
%TO.C,R61*%
X184630000Y-54730000D02*
X184960000Y-54730000D01*
X184630000Y-61270000D02*
X184630000Y-54730000D01*
X184960000Y-61270000D02*
X184630000Y-61270000D01*
X187040000Y-61270000D02*
X187370000Y-61270000D01*
X187370000Y-54730000D02*
X187040000Y-54730000D01*
X187370000Y-61270000D02*
X187370000Y-54730000D01*
%TO.C,C12*%
X132130000Y-48107800D02*
X137370000Y-48107800D01*
X132130000Y-50847800D02*
X132130000Y-48107800D01*
X137370000Y-48107800D02*
X137370000Y-50847800D01*
X137370000Y-50847800D02*
X132130000Y-50847800D01*
%TO.C,U24*%
X197890000Y-61637500D02*
X197890000Y-60837500D01*
X197890000Y-61637500D02*
X197890000Y-62437500D01*
X201010000Y-61637500D02*
X201010000Y-60837500D01*
X201010000Y-61637500D02*
X201010000Y-62437500D01*
X197940000Y-62937500D02*
X197610000Y-63177500D01*
X197610000Y-62697500D01*
X197940000Y-62937500D01*
G36*
X197940000Y-62937500D02*
G01*
X197610000Y-63177500D01*
X197610000Y-62697500D01*
X197940000Y-62937500D01*
G37*
%TO.C,TP9*%
X130905000Y-53477800D02*
G75*
G02*
X127905000Y-53477800I-1500000J0D01*
G01*
X127905000Y-53477800D02*
G75*
G02*
X130905000Y-53477800I1500000J0D01*
G01*
%TO.C,C29*%
X216380000Y-48130000D02*
X221620000Y-48130000D01*
X216380000Y-50870000D02*
X216380000Y-48130000D01*
X221620000Y-48130000D02*
X221620000Y-50870000D01*
X221620000Y-50870000D02*
X216380000Y-50870000D01*
%TO.C,TP11*%
X75000000Y-74132800D02*
G75*
G02*
X72000000Y-74132800I-1500000J0D01*
G01*
X72000000Y-74132800D02*
G75*
G02*
X75000000Y-74132800I1500000J0D01*
G01*
%TO.C,R37*%
X80130000Y-54362800D02*
X80460000Y-54362800D01*
X80130000Y-60902800D02*
X80130000Y-54362800D01*
X80460000Y-60902800D02*
X80130000Y-60902800D01*
X82540000Y-60902800D02*
X82870000Y-60902800D01*
X82870000Y-54362800D02*
X82540000Y-54362800D01*
X82870000Y-60902800D02*
X82870000Y-54362800D01*
D12*
%TO.C,J2*%
X259832000Y-76306000D02*
X259832000Y-90149000D01*
X259832000Y-90149000D02*
X274818000Y-90149000D01*
X274818000Y-76306000D02*
X259832000Y-76306000D01*
X274818000Y-90149000D02*
X274818000Y-76306000D01*
D11*
%TO.C,J9*%
X95405000Y-44237800D02*
X95405000Y-42857800D01*
X96785000Y-44237800D02*
X95405000Y-44237800D01*
X98055000Y-41477800D02*
X110865000Y-41477800D01*
X98055000Y-44237800D02*
X98055000Y-41477800D01*
X98055000Y-44237800D02*
X110865000Y-44237800D01*
X110865000Y-44237800D02*
X110865000Y-41477800D01*
%TO.C,R44*%
X89630000Y-48087800D02*
X89630000Y-54627800D01*
X89630000Y-54627800D02*
X89960000Y-54627800D01*
X89960000Y-48087800D02*
X89630000Y-48087800D01*
X92040000Y-48087800D02*
X92370000Y-48087800D01*
X92370000Y-48087800D02*
X92370000Y-54627800D01*
X92370000Y-54627800D02*
X92040000Y-54627800D01*
%TO.C,R54*%
X258130000Y-50730000D02*
X258460000Y-50730000D01*
X258130000Y-57270000D02*
X258130000Y-50730000D01*
X258460000Y-57270000D02*
X258130000Y-57270000D01*
X260540000Y-57270000D02*
X260870000Y-57270000D01*
X260870000Y-50730000D02*
X260540000Y-50730000D01*
X260870000Y-57270000D02*
X260870000Y-50730000D01*
%TO.C,U9*%
X104215000Y-64357800D02*
X104215000Y-62857800D01*
X104215000Y-64357800D02*
X104215000Y-65857800D01*
X107435000Y-64357800D02*
X107435000Y-62857800D01*
X107435000Y-64357800D02*
X107435000Y-65857800D01*
X104390000Y-66570300D02*
X104060000Y-66810300D01*
X104060000Y-66330300D01*
X104390000Y-66570300D01*
G36*
X104390000Y-66570300D02*
G01*
X104060000Y-66810300D01*
X104060000Y-66330300D01*
X104390000Y-66570300D01*
G37*
D12*
%TO.C,U15*%
X230975000Y-48525000D02*
X230975000Y-45475000D01*
X234025000Y-48525000D02*
X234025000Y-45475000D01*
D13*
X231320000Y-50620000D02*
G75*
G02*
X231120000Y-50620000I-100000J0D01*
G01*
X231120000Y-50620000D02*
G75*
G02*
X231320000Y-50620000I100000J0D01*
G01*
D11*
%TO.C,R49*%
X258130000Y-61230000D02*
X258460000Y-61230000D01*
X258130000Y-67770000D02*
X258130000Y-61230000D01*
X258460000Y-67770000D02*
X258130000Y-67770000D01*
X260540000Y-67770000D02*
X260870000Y-67770000D01*
X260870000Y-61230000D02*
X260540000Y-61230000D01*
X260870000Y-67770000D02*
X260870000Y-61230000D01*
%TO.C,J16*%
X172850000Y-43030000D02*
X172850000Y-41650000D01*
X174230000Y-43030000D02*
X172850000Y-43030000D01*
X175500000Y-40270000D02*
X188310000Y-40270000D01*
X175500000Y-43030000D02*
X175500000Y-40270000D01*
X175500000Y-43030000D02*
X188310000Y-43030000D01*
X188310000Y-43030000D02*
X188310000Y-40270000D01*
%TO.C,TP21*%
X183590000Y-56180000D02*
G75*
G02*
X180590000Y-56180000I-1500000J0D01*
G01*
X180590000Y-56180000D02*
G75*
G02*
X183590000Y-56180000I1500000J0D01*
G01*
%TO.C,R9*%
X251130000Y-49420000D02*
X251130000Y-55960000D01*
X251130000Y-55960000D02*
X251460000Y-55960000D01*
X251460000Y-49420000D02*
X251130000Y-49420000D01*
X253540000Y-49420000D02*
X253870000Y-49420000D01*
X253870000Y-49420000D02*
X253870000Y-55960000D01*
X253870000Y-55960000D02*
X253540000Y-55960000D01*
%TO.C,R43*%
X92455000Y-64587800D02*
X92455000Y-71127800D01*
X92455000Y-71127800D02*
X92785000Y-71127800D01*
X92785000Y-64587800D02*
X92455000Y-64587800D01*
X94865000Y-64587800D02*
X95195000Y-64587800D01*
X95195000Y-64587800D02*
X95195000Y-71127800D01*
X95195000Y-71127800D02*
X94865000Y-71127800D01*
%TO.C,R26*%
X143130000Y-44920000D02*
X143130000Y-51460000D01*
X143130000Y-51460000D02*
X143460000Y-51460000D01*
X143460000Y-44920000D02*
X143130000Y-44920000D01*
X145540000Y-44920000D02*
X145870000Y-44920000D01*
X145870000Y-44920000D02*
X145870000Y-51460000D01*
X145870000Y-51460000D02*
X145540000Y-51460000D01*
%TO.C,C14*%
X111630000Y-69987800D02*
X116870000Y-69987800D01*
X111630000Y-72727800D02*
X111630000Y-69987800D01*
X116870000Y-69987800D02*
X116870000Y-72727800D01*
X116870000Y-72727800D02*
X111630000Y-72727800D01*
%TO.C,R63*%
X204630000Y-53040000D02*
X204960000Y-53040000D01*
X204630000Y-59580000D02*
X204630000Y-53040000D01*
X204960000Y-59580000D02*
X204630000Y-59580000D01*
X207040000Y-59580000D02*
X207370000Y-59580000D01*
X207370000Y-53040000D02*
X207040000Y-53040000D01*
X207370000Y-59580000D02*
X207370000Y-53040000D01*
%TO.C,R27*%
X139455000Y-44707800D02*
X139455000Y-51247800D01*
X139455000Y-51247800D02*
X139785000Y-51247800D01*
X139785000Y-44707800D02*
X139455000Y-44707800D01*
X141865000Y-44707800D02*
X142195000Y-44707800D01*
X142195000Y-44707800D02*
X142195000Y-51247800D01*
X142195000Y-51247800D02*
X141865000Y-51247800D01*
%TO.C,U10*%
X72215000Y-64132800D02*
X72215000Y-62632800D01*
X72215000Y-64132800D02*
X72215000Y-65632800D01*
X75435000Y-64132800D02*
X75435000Y-62632800D01*
X75435000Y-64132800D02*
X75435000Y-65632800D01*
X72390000Y-66345300D02*
X72060000Y-66585300D01*
X72060000Y-66105300D01*
X72390000Y-66345300D01*
G36*
X72390000Y-66345300D02*
G01*
X72060000Y-66585300D01*
X72060000Y-66105300D01*
X72390000Y-66345300D01*
G37*
%TO.C,U16*%
X89265000Y-58857800D02*
X89265000Y-58057800D01*
X89265000Y-58857800D02*
X89265000Y-59657800D01*
X92385000Y-58857800D02*
X92385000Y-58057800D01*
X92385000Y-58857800D02*
X92385000Y-59657800D01*
X89315000Y-60157800D02*
X88985000Y-60397800D01*
X88985000Y-59917800D01*
X89315000Y-60157800D01*
G36*
X89315000Y-60157800D02*
G01*
X88985000Y-60397800D01*
X88985000Y-59917800D01*
X89315000Y-60157800D01*
G37*
%TO.C,R38*%
X67955000Y-54862800D02*
X68285000Y-54862800D01*
X67955000Y-61402800D02*
X67955000Y-54862800D01*
X68285000Y-61402800D02*
X67955000Y-61402800D01*
X70365000Y-61402800D02*
X70695000Y-61402800D01*
X70695000Y-54862800D02*
X70365000Y-54862800D01*
X70695000Y-61402800D02*
X70695000Y-54862800D01*
%TO.C,C21*%
X65130000Y-50130000D02*
X70370000Y-50130000D01*
X65130000Y-52870000D02*
X65130000Y-50130000D01*
X70370000Y-50130000D02*
X70370000Y-52870000D01*
X70370000Y-52870000D02*
X65130000Y-52870000D01*
%TO.C,TP8*%
X130905000Y-57477800D02*
G75*
G02*
X127905000Y-57477800I-1500000J0D01*
G01*
X127905000Y-57477800D02*
G75*
G02*
X130905000Y-57477800I1500000J0D01*
G01*
%TO.C,TP14*%
X75325000Y-59132800D02*
G75*
G02*
X72325000Y-59132800I-1500000J0D01*
G01*
X72325000Y-59132800D02*
G75*
G02*
X75325000Y-59132800I1500000J0D01*
G01*
%TO.C,J13*%
X204540000Y-42380000D02*
X204540000Y-41000000D01*
X205920000Y-42380000D02*
X204540000Y-42380000D01*
X207190000Y-39620000D02*
X220000000Y-39620000D01*
X207190000Y-42380000D02*
X207190000Y-39620000D01*
X207190000Y-42380000D02*
X220000000Y-42380000D01*
X220000000Y-42380000D02*
X220000000Y-39620000D01*
%TO.C,C7*%
X135130000Y-68130000D02*
X140370000Y-68130000D01*
X135130000Y-70870000D02*
X135130000Y-68130000D01*
X140370000Y-68130000D02*
X140370000Y-70870000D01*
X140370000Y-70870000D02*
X135130000Y-70870000D01*
%TO.C,R7*%
X247630000Y-49420000D02*
X247630000Y-55960000D01*
X247630000Y-55960000D02*
X247960000Y-55960000D01*
X247960000Y-49420000D02*
X247630000Y-49420000D01*
X250040000Y-49420000D02*
X250370000Y-49420000D01*
X250370000Y-49420000D02*
X250370000Y-55960000D01*
X250370000Y-55960000D02*
X250040000Y-55960000D01*
%TO.C,R1*%
X234900000Y-63730000D02*
X235230000Y-63730000D01*
X234900000Y-70270000D02*
X234900000Y-63730000D01*
X235230000Y-70270000D02*
X234900000Y-70270000D01*
X237310000Y-70270000D02*
X237640000Y-70270000D01*
X237640000Y-63730000D02*
X237310000Y-63730000D01*
X237640000Y-70270000D02*
X237640000Y-63730000D01*
%TO.C,TP3*%
X233270000Y-53000000D02*
G75*
G02*
X230270000Y-53000000I-1500000J0D01*
G01*
X230270000Y-53000000D02*
G75*
G02*
X233270000Y-53000000I1500000J0D01*
G01*
%TO.C,R25*%
X147455000Y-62517800D02*
X147455000Y-69057800D01*
X147455000Y-69057800D02*
X147785000Y-69057800D01*
X147785000Y-62517800D02*
X147455000Y-62517800D01*
X149865000Y-62517800D02*
X150195000Y-62517800D01*
X150195000Y-62517800D02*
X150195000Y-69057800D01*
X150195000Y-69057800D02*
X149865000Y-69057800D01*
%TO.C,R50*%
X267955000Y-61730000D02*
X268285000Y-61730000D01*
X267955000Y-68270000D02*
X267955000Y-61730000D01*
X268285000Y-68270000D02*
X267955000Y-68270000D01*
X270365000Y-68270000D02*
X270695000Y-68270000D01*
X270695000Y-61730000D02*
X270365000Y-61730000D01*
X270695000Y-68270000D02*
X270695000Y-61730000D01*
%TO.C,C4*%
X235130000Y-48579700D02*
X240370000Y-48579700D01*
X235130000Y-51319700D02*
X235130000Y-48579700D01*
X240370000Y-48579700D02*
X240370000Y-51319700D01*
X240370000Y-51319700D02*
X235130000Y-51319700D01*
D12*
%TO.C,U11*%
X104300000Y-50882800D02*
X104300000Y-47832800D01*
X107350000Y-50882800D02*
X107350000Y-47832800D01*
D13*
X104645000Y-52977800D02*
G75*
G02*
X104445000Y-52977800I-100000J0D01*
G01*
X104445000Y-52977800D02*
G75*
G02*
X104645000Y-52977800I100000J0D01*
G01*
D11*
%TO.C,R70*%
X199850500Y-50751000D02*
X199850500Y-57291000D01*
X199850500Y-57291000D02*
X200180500Y-57291000D01*
X200180500Y-50751000D02*
X199850500Y-50751000D01*
X202260500Y-50751000D02*
X202590500Y-50751000D01*
X202590500Y-50751000D02*
X202590500Y-57291000D01*
X202590500Y-57291000D02*
X202260500Y-57291000D01*
%TO.C,TP6*%
X163325000Y-60357800D02*
G75*
G02*
X160325000Y-60357800I-1500000J0D01*
G01*
X160325000Y-60357800D02*
G75*
G02*
X163325000Y-60357800I1500000J0D01*
G01*
%TO.C,C30*%
X204630000Y-48130000D02*
X209870000Y-48130000D01*
X204630000Y-50870000D02*
X204630000Y-48130000D01*
X209870000Y-48130000D02*
X209870000Y-50870000D01*
X209870000Y-50870000D02*
X204630000Y-50870000D01*
%TO.C,R60*%
X207630000Y-53040000D02*
X207960000Y-53040000D01*
X207630000Y-59580000D02*
X207630000Y-53040000D01*
X207960000Y-59580000D02*
X207630000Y-59580000D01*
X210040000Y-59580000D02*
X210370000Y-59580000D01*
X210370000Y-53040000D02*
X210040000Y-53040000D01*
X210370000Y-59580000D02*
X210370000Y-53040000D01*
%TO.C,R14*%
X132130000Y-63040000D02*
X132460000Y-63040000D01*
X132130000Y-69580000D02*
X132130000Y-63040000D01*
X132460000Y-69580000D02*
X132130000Y-69580000D01*
X134540000Y-69580000D02*
X134870000Y-69580000D01*
X134870000Y-63040000D02*
X134540000Y-63040000D01*
X134870000Y-69580000D02*
X134870000Y-63040000D01*
%TO.C,R23*%
X120630000Y-52230000D02*
X120960000Y-52230000D01*
X120630000Y-58770000D02*
X120630000Y-52230000D01*
X120960000Y-58770000D02*
X120630000Y-58770000D01*
X123040000Y-58770000D02*
X123370000Y-58770000D01*
X123370000Y-52230000D02*
X123040000Y-52230000D01*
X123370000Y-58770000D02*
X123370000Y-52230000D01*
%TO.C,U17*%
X262715000Y-63000000D02*
X262715000Y-61500000D01*
X262715000Y-63000000D02*
X262715000Y-64500000D01*
X265935000Y-63000000D02*
X265935000Y-61500000D01*
X265935000Y-63000000D02*
X265935000Y-64500000D01*
X262890000Y-65212500D02*
X262560000Y-65452500D01*
X262560000Y-64972500D01*
X262890000Y-65212500D01*
G36*
X262890000Y-65212500D02*
G01*
X262560000Y-65452500D01*
X262560000Y-64972500D01*
X262890000Y-65212500D01*
G37*
%TO.C,TP2*%
X233270000Y-58500000D02*
G75*
G02*
X230270000Y-58500000I-1500000J0D01*
G01*
X230270000Y-58500000D02*
G75*
G02*
X233270000Y-58500000I1500000J0D01*
G01*
%TO.C,U3*%
X160215000Y-65357800D02*
X160215000Y-63857800D01*
X160215000Y-65357800D02*
X160215000Y-66857800D01*
X163435000Y-65357800D02*
X163435000Y-63857800D01*
X163435000Y-65357800D02*
X163435000Y-66857800D01*
X160390000Y-67570300D02*
X160060000Y-67810300D01*
X160060000Y-67330300D01*
X160390000Y-67570300D01*
G36*
X160390000Y-67570300D02*
G01*
X160060000Y-67810300D01*
X160060000Y-67330300D01*
X160390000Y-67570300D01*
G37*
D12*
%TO.C,J15*%
X172859500Y-76213500D02*
X172859500Y-90056500D01*
X172859500Y-90056500D02*
X187845500Y-90056500D01*
X187845500Y-76213500D02*
X172859500Y-76213500D01*
X187845500Y-90056500D02*
X187845500Y-76213500D01*
D14*
%TO.C,U23*%
X190510800Y-75493400D02*
X190510800Y-75823600D01*
X190510800Y-75823600D02*
X190510800Y-76433200D01*
X190510800Y-76433200D02*
X190510800Y-76763400D01*
X190510800Y-75823600D02*
G75*
G02*
X190510800Y-76433200I0J-304800D01*
G01*
D11*
%TO.C,C5*%
X223630000Y-48630000D02*
X228870000Y-48630000D01*
X223630000Y-51370000D02*
X223630000Y-48630000D01*
X228870000Y-48630000D02*
X228870000Y-51370000D01*
X228870000Y-51370000D02*
X223630000Y-51370000D01*
%TO.C,TP17*%
X182770000Y-74150000D02*
G75*
G02*
X179770000Y-74150000I-1500000J0D01*
G01*
X179770000Y-74150000D02*
G75*
G02*
X182770000Y-74150000I1500000J0D01*
G01*
%TO.C,J1*%
X151825000Y-42737800D02*
X151825000Y-41357800D01*
X153205000Y-42737800D02*
X151825000Y-42737800D01*
X154475000Y-39977800D02*
X167285000Y-39977800D01*
X154475000Y-42737800D02*
X154475000Y-39977800D01*
X154475000Y-42737800D02*
X167285000Y-42737800D01*
X167285000Y-42737800D02*
X167285000Y-39977800D01*
%TO.C,R65*%
X173130000Y-52040000D02*
X173460000Y-52040000D01*
X173130000Y-58580000D02*
X173130000Y-52040000D01*
X173460000Y-58580000D02*
X173130000Y-58580000D01*
X175540000Y-58580000D02*
X175870000Y-58580000D01*
X175870000Y-52040000D02*
X175540000Y-52040000D01*
X175870000Y-58580000D02*
X175870000Y-52040000D01*
%TO.C,R45*%
X86455000Y-48087800D02*
X86455000Y-54627800D01*
X86455000Y-54627800D02*
X86785000Y-54627800D01*
X86785000Y-48087800D02*
X86455000Y-48087800D01*
X88865000Y-48087800D02*
X89195000Y-48087800D01*
X89195000Y-48087800D02*
X89195000Y-54627800D01*
X89195000Y-54627800D02*
X88865000Y-54627800D01*
%TO.C,U8*%
X144265000Y-56167800D02*
X144265000Y-55367800D01*
X144265000Y-56167800D02*
X144265000Y-56967800D01*
X147385000Y-56167800D02*
X147385000Y-55367800D01*
X147385000Y-56167800D02*
X147385000Y-56967800D01*
X144315000Y-57467800D02*
X143985000Y-57707800D01*
X143985000Y-57227800D01*
X144315000Y-57467800D01*
G36*
X144315000Y-57467800D02*
G01*
X143985000Y-57707800D01*
X143985000Y-57227800D01*
X144315000Y-57467800D01*
G37*
%TO.C,J12*%
X65770000Y-44380000D02*
X65770000Y-43000000D01*
X67150000Y-44380000D02*
X65770000Y-44380000D01*
X68420000Y-41620000D02*
X81230000Y-41620000D01*
X68420000Y-44380000D02*
X68420000Y-41620000D01*
X68420000Y-44380000D02*
X81230000Y-44380000D01*
X81230000Y-44380000D02*
X81230000Y-41620000D01*
%TO.C,C10*%
X165130000Y-48130000D02*
X170370000Y-48130000D01*
X165130000Y-50870000D02*
X165130000Y-48130000D01*
X170370000Y-48130000D02*
X170370000Y-50870000D01*
X170370000Y-50870000D02*
X165130000Y-50870000D01*
%TO.C,TP5*%
X128905000Y-73857800D02*
G75*
G02*
X125905000Y-73857800I-1500000J0D01*
G01*
X125905000Y-73857800D02*
G75*
G02*
X128905000Y-73857800I1500000J0D01*
G01*
%TO.C,C26*%
X268130000Y-45130000D02*
X273370000Y-45130000D01*
X268130000Y-47870000D02*
X268130000Y-45130000D01*
X273370000Y-45130000D02*
X273370000Y-47870000D01*
X273370000Y-47870000D02*
X268130000Y-47870000D01*
%TO.C,C25*%
X261955000Y-66667500D02*
X267195000Y-66667500D01*
X261955000Y-69407500D02*
X261955000Y-66667500D01*
X267195000Y-66667500D02*
X267195000Y-69407500D01*
X267195000Y-69407500D02*
X261955000Y-69407500D01*
D14*
%TO.C,U2*%
X248965400Y-76464100D02*
X248965400Y-76794300D01*
X248965400Y-76794300D02*
X248965400Y-77403900D01*
X248965400Y-77403900D02*
X248965400Y-77734100D01*
X248965400Y-76794300D02*
G75*
G02*
X248965400Y-77403900I0J-304800D01*
G01*
D11*
%TO.C,R47*%
X89455000Y-64777800D02*
X89455000Y-71317800D01*
X89455000Y-71317800D02*
X89785000Y-71317800D01*
X89785000Y-64777800D02*
X89455000Y-64777800D01*
X91865000Y-64777800D02*
X92195000Y-64777800D01*
X92195000Y-64777800D02*
X92195000Y-71317800D01*
X92195000Y-71317800D02*
X91865000Y-71317800D01*
%TO.C,R56*%
X186130000Y-64730000D02*
X186460000Y-64730000D01*
X186130000Y-71270000D02*
X186130000Y-64730000D01*
X186460000Y-71270000D02*
X186130000Y-71270000D01*
X188540000Y-71270000D02*
X188870000Y-71270000D01*
X188870000Y-64730000D02*
X188540000Y-64730000D01*
X188870000Y-71270000D02*
X188870000Y-64730000D01*
%TO.C,R66*%
X190370000Y-54730000D02*
X190040000Y-54730000D01*
X190370000Y-61270000D02*
X190370000Y-54730000D01*
X190040000Y-61270000D02*
X190370000Y-61270000D01*
X187960000Y-61270000D02*
X187630000Y-61270000D01*
X187630000Y-54730000D02*
X187960000Y-54730000D01*
X187630000Y-61270000D02*
X187630000Y-54730000D01*
%TD*%
M02*
