%TF.GenerationSoftware,KiCad,Pcbnew,9.0.3*%
%TF.CreationDate,2025-11-11T16:23:08+05:30*%
%TF.ProjectId,Multi_daq,4d756c74-695f-4646-9171-2e6b69636164,rev?*%
%TF.SameCoordinates,Original*%
%TF.FileFunction,Paste,Top*%
%TF.FilePolarity,Positive*%
%FSLAX46Y46*%
G04 Gerber Fmt 4.6, Leading zero omitted, Abs format (unit mm)*
G04 Created by KiCad (PCBNEW 9.0.3) date 2025-11-11 16:23:08*
%MOMM*%
%LPD*%
G01*
G04 APERTURE LIST*
G04 Aperture macros list*
%AMRoundRect*
0 Rectangle with rounded corners*
0 $1 Rounding radius*
0 $2 $3 $4 $5 $6 $7 $8 $9 X,Y pos of 4 corners*
0 Add a 4 corners polygon primitive as box body*
4,1,4,$2,$3,$4,$5,$6,$7,$8,$9,$2,$3,0*
0 Add four circle primitives for the rounded corners*
1,1,$1+$1,$2,$3*
1,1,$1+$1,$4,$5*
1,1,$1+$1,$6,$7*
1,1,$1+$1,$8,$9*
0 Add four rect primitives between the rounded corners*
20,1,$1+$1,$2,$3,$4,$5,0*
20,1,$1+$1,$4,$5,$6,$7,0*
20,1,$1+$1,$6,$7,$8,$9,0*
20,1,$1+$1,$8,$9,$2,$3,0*%
G04 Aperture macros list end*
%ADD10RoundRect,0.035000X0.105000X-0.700000X0.105000X0.700000X-0.105000X0.700000X-0.105000X-0.700000X0*%
%ADD11R,0.558800X1.320800*%
%ADD12RoundRect,0.100000X0.100000X-0.712500X0.100000X0.712500X-0.100000X0.712500X-0.100000X-0.712500X0*%
%ADD13RoundRect,0.150000X0.150000X-0.512500X0.150000X0.512500X-0.150000X0.512500X-0.150000X-0.512500X0*%
G04 APERTURE END LIST*
D10*
%TO.C,U21*%
X212270000Y-50650000D03*
X212770000Y-50650000D03*
X213270000Y-50650000D03*
X213770000Y-50650000D03*
X214270000Y-50650000D03*
X214270000Y-46350000D03*
X213770000Y-46350000D03*
X213270000Y-46350000D03*
X212770000Y-46350000D03*
X212270000Y-46350000D03*
%TD*%
%TO.C,U6*%
X128405000Y-50127800D03*
X128905000Y-50127800D03*
X129405000Y-50127800D03*
X129905000Y-50127800D03*
X130405000Y-50127800D03*
X130405000Y-45827800D03*
X129905000Y-45827800D03*
X129405000Y-45827800D03*
X128905000Y-45827800D03*
X128405000Y-45827800D03*
%TD*%
D11*
%TO.C,U7*%
X141500000Y-74500000D03*
X142439800Y-74500000D03*
X143379600Y-74500000D03*
X143379600Y-71756800D03*
X141500000Y-71756800D03*
%TD*%
D10*
%TO.C,U5*%
X160825000Y-52507800D03*
X161325000Y-52507800D03*
X161825000Y-52507800D03*
X162325000Y-52507800D03*
X162825000Y-52507800D03*
X162825000Y-48207800D03*
X162325000Y-48207800D03*
X161825000Y-48207800D03*
X161325000Y-48207800D03*
X160825000Y-48207800D03*
%TD*%
D12*
%TO.C,U4*%
X128430000Y-65090300D03*
X129080000Y-65090300D03*
X129730000Y-65090300D03*
X130380000Y-65090300D03*
X130380000Y-60865300D03*
X129730000Y-60865300D03*
X129080000Y-60865300D03*
X128430000Y-60865300D03*
%TD*%
D13*
%TO.C,U1*%
X247625000Y-61727500D03*
X248575000Y-61727500D03*
X249525000Y-61727500D03*
X249525000Y-59452500D03*
X247625000Y-59452500D03*
%TD*%
D10*
%TO.C,U22*%
X181770000Y-51800000D03*
X182270000Y-51800000D03*
X182770000Y-51800000D03*
X183270000Y-51800000D03*
X183770000Y-51800000D03*
X183770000Y-47500000D03*
X183270000Y-47500000D03*
X182770000Y-47500000D03*
X182270000Y-47500000D03*
X181770000Y-47500000D03*
%TD*%
D12*
%TO.C,U12*%
X230525000Y-67112500D03*
X231175000Y-67112500D03*
X231825000Y-67112500D03*
X232475000Y-67112500D03*
X232475000Y-62887500D03*
X231825000Y-62887500D03*
X231175000Y-62887500D03*
X230525000Y-62887500D03*
%TD*%
%TO.C,U20*%
X181295000Y-67262500D03*
X181945000Y-67262500D03*
X182595000Y-67262500D03*
X183245000Y-67262500D03*
X183245000Y-63037500D03*
X182595000Y-63037500D03*
X181945000Y-63037500D03*
X181295000Y-63037500D03*
%TD*%
D11*
%TO.C,U14*%
X88620400Y-78000000D03*
X89560200Y-78000000D03*
X90500000Y-78000000D03*
X90500000Y-75256800D03*
X88620400Y-75256800D03*
%TD*%
D10*
%TO.C,U18*%
X263500000Y-49500000D03*
X264000000Y-49500000D03*
X264500000Y-49500000D03*
X265000000Y-49500000D03*
X265500000Y-49500000D03*
X265500000Y-45200000D03*
X265000000Y-45200000D03*
X264500000Y-45200000D03*
X264000000Y-45200000D03*
X263500000Y-45200000D03*
%TD*%
D12*
%TO.C,U19*%
X211795000Y-66112500D03*
X212445000Y-66112500D03*
X213095000Y-66112500D03*
X213745000Y-66112500D03*
X213745000Y-61887500D03*
X213095000Y-61887500D03*
X212445000Y-61887500D03*
X211795000Y-61887500D03*
%TD*%
D10*
%TO.C,U13*%
X72825000Y-50782800D03*
X73325000Y-50782800D03*
X73825000Y-50782800D03*
X74325000Y-50782800D03*
X74825000Y-50782800D03*
X74825000Y-46482800D03*
X74325000Y-46482800D03*
X73825000Y-46482800D03*
X73325000Y-46482800D03*
X72825000Y-46482800D03*
%TD*%
D13*
%TO.C,U24*%
X198500000Y-62775000D03*
X199450000Y-62775000D03*
X200400000Y-62775000D03*
X200400000Y-60500000D03*
X198500000Y-60500000D03*
%TD*%
D12*
%TO.C,U9*%
X104850000Y-66470300D03*
X105500000Y-66470300D03*
X106150000Y-66470300D03*
X106800000Y-66470300D03*
X106800000Y-62245300D03*
X106150000Y-62245300D03*
X105500000Y-62245300D03*
X104850000Y-62245300D03*
%TD*%
D10*
%TO.C,U15*%
X231500000Y-49150000D03*
X232000000Y-49150000D03*
X232500000Y-49150000D03*
X233000000Y-49150000D03*
X233500000Y-49150000D03*
X233500000Y-44850000D03*
X233000000Y-44850000D03*
X232500000Y-44850000D03*
X232000000Y-44850000D03*
X231500000Y-44850000D03*
%TD*%
D12*
%TO.C,U10*%
X72850000Y-66245300D03*
X73500000Y-66245300D03*
X74150000Y-66245300D03*
X74800000Y-66245300D03*
X74800000Y-62020300D03*
X74150000Y-62020300D03*
X73500000Y-62020300D03*
X72850000Y-62020300D03*
%TD*%
D13*
%TO.C,U16*%
X89875000Y-59995300D03*
X90825000Y-59995300D03*
X91775000Y-59995300D03*
X91775000Y-57720300D03*
X89875000Y-57720300D03*
%TD*%
D10*
%TO.C,U11*%
X104825000Y-51507800D03*
X105325000Y-51507800D03*
X105825000Y-51507800D03*
X106325000Y-51507800D03*
X106825000Y-51507800D03*
X106825000Y-47207800D03*
X106325000Y-47207800D03*
X105825000Y-47207800D03*
X105325000Y-47207800D03*
X104825000Y-47207800D03*
%TD*%
D12*
%TO.C,U17*%
X263350000Y-65112500D03*
X264000000Y-65112500D03*
X264650000Y-65112500D03*
X265300000Y-65112500D03*
X265300000Y-60887500D03*
X264650000Y-60887500D03*
X264000000Y-60887500D03*
X263350000Y-60887500D03*
%TD*%
%TO.C,U3*%
X160850000Y-67470300D03*
X161500000Y-67470300D03*
X162150000Y-67470300D03*
X162800000Y-67470300D03*
X162800000Y-63245300D03*
X162150000Y-63245300D03*
X161500000Y-63245300D03*
X160850000Y-63245300D03*
%TD*%
D11*
%TO.C,U23*%
X191120400Y-77500000D03*
X192060200Y-77500000D03*
X193000000Y-77500000D03*
X193000000Y-74756800D03*
X191120400Y-74756800D03*
%TD*%
D13*
%TO.C,U8*%
X144875000Y-57305300D03*
X145825000Y-57305300D03*
X146775000Y-57305300D03*
X146775000Y-55030300D03*
X144875000Y-55030300D03*
%TD*%
D11*
%TO.C,U2*%
X249575000Y-78470700D03*
X250514800Y-78470700D03*
X251454600Y-78470700D03*
X251454600Y-75727500D03*
X249575000Y-75727500D03*
%TD*%
M02*
