M48
; DRILL file {KiCad 9.0.3} date 2025-11-11T16:23:02+0530
; FORMAT={-:-/ absolute / metric / decimal}
; #@! TF.CreationDate,2025-11-11T16:23:02+05:30
; #@! TF.GenerationSoftware,Kicad,Pcbnew,9.0.3
; #@! TF.FileFunction,Plated,1,2,PTH
FMAT,2
METRIC
; #@! TA.AperFunction,Plated,PTH,ViaDrill
T1C0.300
; #@! TA.AperFunction,Plated,PTH,ComponentDrill
T2C0.800
; #@! TA.AperFunction,Plated,PTH,ComponentDrill
T3C1.000
; #@! TA.AperFunction,Plated,PTH,ComponentDrill
T4C2.200
%
G90
G05
T1
X60.52Y-90.25
X63.95Y-37.92
X164.44Y-50.32
X275.37Y-35.23
X276.56Y-92.94
T2
X66.325Y-54.323
X66.325Y-61.943
X66.5Y-51.5
X69.0Y-51.5
X69.0Y-64.5
X69.0Y-72.12
X69.325Y-54.323
X69.325Y-61.943
X72.5Y-70.5
X73.285Y-79.168
X75.0Y-70.5
X75.825Y-79.168
X78.325Y-63.88
X78.325Y-71.5
X78.5Y-53.823
X78.5Y-61.443
X78.575Y-51.133
X81.075Y-51.133
X81.5Y-53.823
X81.5Y-61.443
X81.575Y-70.633
X84.075Y-70.633
X87.22Y-64.14
X87.22Y-71.76
X87.825Y-47.548
X87.825Y-55.168
X90.825Y-64.238
X90.825Y-71.858
X91.0Y-47.548
X91.0Y-55.168
X93.825Y-64.048
X93.825Y-71.668
X94.0Y-47.69
X94.0Y-55.31
X97.5Y-53.69
X97.5Y-61.31
X98.49Y-49.82
X100.5Y-64.19
X100.5Y-71.81
X100.99Y-49.82
X101.5Y-53.69
X101.5Y-61.31
X103.785Y-79.358
X104.0Y-70.5
X106.325Y-79.358
X106.5Y-70.5
X109.825Y-64.5
X109.825Y-72.12
X110.0Y-54.0
X110.0Y-61.62
X110.5Y-51.0
X113.0Y-51.0
X113.0Y-54.0
X113.0Y-61.62
X113.0Y-71.358
X115.5Y-71.358
X122.0Y-51.69
X122.0Y-59.31
X122.25Y-49.0
X124.75Y-49.0
X124.905Y-62.19
X124.905Y-69.81
X125.0Y-51.69
X125.0Y-59.31
X126.825Y-78.898
X128.0Y-68.978
X129.365Y-78.898
X130.5Y-68.978
X133.5Y-49.478
X133.5Y-52.19
X133.5Y-59.81
X133.5Y-62.5
X133.5Y-70.12
X136.0Y-49.478
X136.5Y-52.19
X136.5Y-59.81
X136.5Y-69.5
X139.0Y-69.5
X140.825Y-44.168
X140.825Y-51.788
X142.825Y-61.978
X142.825Y-69.598
X144.5Y-44.38
X144.5Y-52.0
X145.825Y-61.978
X145.825Y-69.598
X148.0Y-44.38
X148.0Y-52.0
X148.825Y-61.978
X148.825Y-69.598
X155.0Y-50.358
X155.0Y-53.19
X155.0Y-60.81
X157.5Y-50.358
X157.825Y-63.19
X157.825Y-70.81
X158.0Y-53.19
X158.0Y-60.81
X160.92Y-79.92
X161.0Y-70.5
X163.46Y-79.92
X163.5Y-70.5
X166.5Y-49.5
X166.5Y-52.69
X166.5Y-60.31
X166.5Y-63.19
X166.5Y-70.81
X169.0Y-49.5
X169.5Y-52.69
X169.5Y-60.31
X170.5Y-70.358
X173.0Y-70.358
X174.5Y-51.5
X174.5Y-59.12
X175.75Y-48.5
X178.0Y-51.5
X178.0Y-59.12
X178.0Y-61.88
X178.0Y-69.5
X178.25Y-48.5
X180.352Y-79.185
X181.25Y-70.5
X182.892Y-79.185
X183.75Y-70.5
X186.0Y-54.19
X186.0Y-61.81
X186.75Y-51.0
X187.5Y-64.19
X187.5Y-71.81
X189.0Y-54.19
X189.0Y-61.81
X189.25Y-51.0
X190.75Y-71.5
X193.25Y-71.5
X194.72Y-50.021
X194.72Y-57.641
X196.5Y-65.69
X196.5Y-73.31
X197.99Y-50.021
X197.99Y-57.641
X199.5Y-65.69
X199.5Y-73.31
X201.22Y-50.211
X201.22Y-57.831
X202.5Y-65.69
X202.5Y-73.31
X206.0Y-49.5
X206.0Y-52.5
X206.0Y-60.12
X208.5Y-49.5
X208.5Y-63.0
X208.5Y-70.62
X209.0Y-52.5
X209.0Y-60.12
X211.5Y-70.0
X211.965Y-79.035
X214.0Y-70.0
X214.505Y-79.035
X217.27Y-64.19
X217.27Y-71.81
X217.5Y-52.5
X217.5Y-60.12
X217.75Y-49.5
X220.25Y-49.5
X220.5Y-52.19
X220.5Y-59.81
X220.5Y-70.0
X223.0Y-70.0
X225.0Y-50.0
X225.0Y-52.69
X225.0Y-60.31
X227.5Y-50.0
X227.77Y-62.69
X227.77Y-70.31
X228.0Y-52.69
X228.0Y-60.31
X230.77Y-69.95
X231.77Y-79.57
X233.27Y-69.95
X234.31Y-79.57
X236.27Y-63.19
X236.27Y-70.81
X236.5Y-49.95
X236.5Y-52.69
X236.5Y-60.31
X238.75Y-74.5
X239.0Y-49.95
X239.5Y-52.69
X239.5Y-60.31
X241.25Y-74.5
X245.0Y-65.38
X245.0Y-73.0
X245.075Y-48.88
X245.075Y-56.5
X248.5Y-65.38
X248.5Y-73.0
X249.0Y-48.88
X249.0Y-56.5
X252.075Y-65.608
X252.075Y-73.227
X252.5Y-48.88
X252.5Y-56.5
X256.0Y-50.19
X256.0Y-57.81
X257.0Y-47.537
X259.5Y-47.537
X259.5Y-50.19
X259.5Y-57.81
X259.5Y-60.69
X259.5Y-68.31
X263.325Y-68.037
X265.825Y-68.037
X267.325Y-79.278
X269.325Y-61.19
X269.325Y-68.81
X269.5Y-46.5
X269.5Y-49.19
X269.5Y-56.81
X269.865Y-79.278
X272.0Y-46.5
X272.5Y-49.19
X272.5Y-56.81
X273.25Y-68.5
X275.75Y-68.5
T3
X67.15Y-43.0
X69.69Y-43.0
X72.23Y-43.0
X73.5Y-74.133
X73.825Y-59.133
X74.0Y-55.0
X74.77Y-43.0
X77.31Y-43.0
X79.85Y-43.0
X96.785Y-42.858
X99.325Y-42.858
X101.865Y-42.858
X104.325Y-74.358
X104.405Y-42.858
X105.825Y-58.858
X106.0Y-55.0
X106.945Y-42.858
X109.485Y-42.858
X121.055Y-41.858
X123.595Y-41.858
X126.135Y-41.858
X127.405Y-73.858
X128.675Y-41.858
X129.405Y-53.478
X129.405Y-57.478
X131.215Y-41.858
X133.755Y-41.858
X153.205Y-41.358
X155.745Y-41.358
X158.285Y-41.358
X160.825Y-41.358
X161.825Y-56.358
X161.825Y-60.358
X162.0Y-74.5
X163.365Y-41.358
X165.905Y-41.358
X174.23Y-41.65
X176.77Y-41.65
X179.31Y-41.65
X181.27Y-74.15
X181.85Y-41.65
X182.09Y-56.18
X182.11Y-60.0
X184.39Y-41.65
X186.93Y-41.65
X205.92Y-41.0
X208.46Y-41.0
X211.0Y-41.0
X211.77Y-74.0
X213.27Y-54.5
X213.27Y-58.5
X213.54Y-41.0
X216.08Y-41.0
X218.62Y-41.0
X225.46Y-41.5
X228.0Y-41.5
X230.54Y-41.5
X231.77Y-53.0
X231.77Y-58.5
X232.27Y-74.95
X233.08Y-41.5
X235.62Y-41.5
X238.16Y-41.5
X257.65Y-41.5
X260.19Y-41.5
X262.73Y-41.5
X264.5Y-53.0
X264.5Y-57.0
X265.27Y-41.5
X267.35Y-73.65
X267.81Y-41.5
X270.35Y-41.5
T4
X68.205Y-84.248
X78.365Y-84.248
X98.705Y-84.438
X108.865Y-84.438
X121.745Y-83.978
X131.905Y-83.978
X155.84Y-85.0
X166.0Y-85.0
X175.272Y-84.265
X185.433Y-84.265
X206.885Y-84.115
X217.046Y-84.115
X226.69Y-84.65
X236.85Y-84.65
X262.245Y-84.358
X272.405Y-84.358
M30
